<?xml version="1.0" encoding="utf-8"?>
<!-- Generator: Adobe Illustrator 24.1.2, SVG Export Plug-In . SVG Version: 6.00 Build 0)  -->
<svg version="1.1" xmlns="http://www.w3.org/2000/svg" xmlns:xlink="http://www.w3.org/1999/xlink" x="0px" y="0px"
	 viewBox="0 0 822.93 827.6" style="enable-background:new 0 0 822.93 827.6;" xml:space="preserve">
<style type="text/css">
	.st0{display:none;}
	.st1{display:inline;fill:#FFFFFF;}
	.st2{display:inline;}
	.st3{fill:#898989;}
	.st4{display:inline;fill:url(#SVGID_1_);}
	.st5{fill:#91B3FA;}
	.st6{fill:#BDD0FB;}
	.st7{fill:url(#SVGID_2_);}
	.st8{fill:url(#SVGID_3_);}
	.st9{fill:url(#SVGID_4_);}
	.st10{fill:url(#SVGID_5_);}
	.st11{fill:url(#SVGID_6_);}
	.st12{opacity:0.78;fill:#FFFFFF;}
	.st13{opacity:0.6;}
	.st14{fill:#FFFFFF;}
	.st15{fill:url(#SVGID_7_);}
	.st16{fill:url(#SVGID_8_);}
	.st17{fill:url(#SVGID_9_);}
	.st18{fill:url(#SVGID_10_);}
	.st19{fill:url(#SVGID_11_);}
	.st20{fill:url(#SVGID_12_);}
	.st21{fill:url(#SVGID_13_);}
	.st22{fill:url(#SVGID_14_);}
	.st23{fill:url(#SVGID_15_);}
	.st24{fill:url(#SVGID_16_);}
	.st25{fill:url(#SVGID_17_);}
	.st26{fill:url(#SVGID_18_);}
	.st27{fill:url(#SVGID_19_);}
	.st28{fill:url(#SVGID_20_);}
	.st29{fill:url(#SVGID_21_);}
	.st30{fill:url(#SVGID_22_);}
	.st31{fill:url(#SVGID_23_);}
	.st32{fill:url(#SVGID_24_);}
	.st33{fill:url(#SVGID_25_);}
	.st34{fill:url(#SVGID_26_);}
	.st35{fill:url(#SVGID_27_);}
	.st36{fill:url(#SVGID_28_);}
	.st37{fill:url(#SVGID_29_);}
	.st38{display:inline;fill:url(#SVGID_30_);}
	.st39{fill:url(#SVGID_31_);}
	.st40{fill:url(#SVGID_32_);}
	.st41{fill:url(#SVGID_33_);}
	.st42{fill:url(#SVGID_34_);}
	.st43{fill:url(#SVGID_35_);}
	.st44{fill:url(#SVGID_36_);}
	.st45{fill:url(#SVGID_37_);}
	.st46{fill:url(#SVGID_38_);}
	.st47{fill:url(#SVGID_39_);}
	.st48{fill:url(#SVGID_40_);}
	.st49{fill:url(#SVGID_41_);}
	.st50{fill:url(#SVGID_42_);}
	.st51{fill:url(#SVGID_43_);}
	.st52{fill:url(#SVGID_44_);}
	.st53{fill:url(#SVGID_45_);}
	.st54{fill:url(#SVGID_46_);}
	.st55{fill:url(#SVGID_47_);}
	.st56{fill:url(#SVGID_48_);}
	.st57{fill:url(#SVGID_49_);}
	.st58{fill:url(#SVGID_50_);}
	.st59{fill:url(#SVGID_51_);}
	.st60{display:none;fill:#FFFFFF;}
	.st61{fill:url(#SVGID_52_);}
	.st62{fill:url(#SVGID_53_);}
	.st63{fill:url(#SVGID_54_);}
	.st64{fill:url(#SVGID_55_);}
	.st65{fill:url(#SVGID_56_);}
	.st66{fill:url(#SVGID_57_);}
	.st67{fill:url(#SVGID_58_);}
	.st68{fill:url(#SVGID_59_);}
	.st69{fill:url(#SVGID_60_);}
	.st70{fill:url(#SVGID_61_);}
	.st71{fill:url(#SVGID_62_);}
	.st72{fill:url(#SVGID_63_);}
	.st73{fill:url(#SVGID_64_);}
	.st74{fill:url(#SVGID_65_);}
	.st75{fill:url(#SVGID_66_);}
	.st76{fill:url(#SVGID_67_);}
	.st77{fill:url(#SVGID_68_);}
	.st78{fill:url(#SVGID_69_);}
	.st79{fill:url(#SVGID_70_);}
	.st80{fill:url(#SVGID_71_);}
	.st81{fill:url(#SVGID_72_);}
	.st82{fill:url(#SVGID_73_);}
	.st83{fill:url(#SVGID_74_);}
	.st84{fill:url(#SVGID_75_);}
	.st85{fill:url(#SVGID_76_);}
	.st86{fill:url(#SVGID_77_);}
	.st87{fill:url(#SVGID_78_);}
	.st88{fill:url(#SVGID_79_);}
	.st89{fill:url(#SVGID_80_);}
	.st90{fill:url(#SVGID_81_);}
	.st91{fill:none;}
	.st92{font-family:'ArialRoundedMTBold';}
	.st93{font-size:72px;}
</style>
<g id="Background" class="st0">
	<rect x="-243.7" y="-188.06" class="st1" width="3500" height="1500"/>
</g>
<g id="Text" class="st0">
	<g class="st2">
		<path class="st3" d="M199.74,987.38v4.35h-24.85v66.4h-5.1v-66.4h-25v-4.35H199.74z"/>
		<path class="st3" d="M254.38,987.38v4.25h-37.25v28.6h31v4.15h-31v29.5h37.25v4.25h-42.4v-70.75H254.38z"/>
		<path class="st3" d="M277.68,1026.13v32h-5.1v-70.75h18.05c8.17,0,14.27,1.58,18.3,4.72c4.03,3.15,6.05,7.78,6.05,13.88
			c0,2.7-0.47,5.17-1.4,7.4c-0.93,2.23-2.27,4.19-4.02,5.88c-1.75,1.68-3.86,3.07-6.33,4.15c-2.47,1.08-5.25,1.79-8.35,2.12
			c0.8,0.5,1.52,1.17,2.15,2l24.35,30.6h-4.45c-0.53,0-0.99-0.1-1.38-0.3c-0.38-0.2-0.76-0.53-1.13-1l-22.65-28.7
			c-0.57-0.73-1.17-1.25-1.83-1.55c-0.65-0.3-1.66-0.45-3.02-0.45H277.68z M277.68,1022.34h12.3c3.13,0,5.94-0.38,8.42-1.13
			c2.48-0.75,4.58-1.83,6.3-3.23c1.72-1.4,3.03-3.08,3.92-5.05c0.9-1.97,1.35-4.18,1.35-6.65c0-5.03-1.65-8.77-4.95-11.2
			c-3.3-2.43-8.1-3.65-14.4-3.65h-12.95V1022.34z"/>
		<path class="st3" d="M369.48,1040.54c0.2-0.53,0.41-1.06,0.63-1.58s0.46-1.01,0.73-1.48l27.8-49.15c0.27-0.43,0.53-0.7,0.8-0.8
			c0.27-0.1,0.63-0.15,1.1-0.15h3.55v70.75h-4.5v-60.3c0-0.87,0.05-1.78,0.15-2.75l-27.85,49.45c-0.47,0.87-1.13,1.3-2,1.3h-0.8
			c-0.83,0-1.5-0.43-2-1.3l-28.6-49.5c0.1,0.97,0.15,1.9,0.15,2.8v60.3h-4.45v-70.75h3.5c0.47,0,0.84,0.05,1.13,0.15
			c0.28,0.1,0.56,0.37,0.83,0.8l28.55,49.2C368.68,1038.47,369.12,1039.47,369.48,1040.54z"/>
		<path class="st3" d="M459.33,995.98c-0.3,0.57-0.73,0.85-1.3,0.85c-0.44,0-1-0.31-1.68-0.92c-0.69-0.62-1.61-1.3-2.78-2.05
			c-1.17-0.75-2.63-1.44-4.39-2.07c-1.76-0.63-3.92-0.95-6.5-0.95c-2.57,0-4.84,0.37-6.8,1.1c-1.96,0.73-3.59,1.73-4.92,3
			c-1.32,1.27-2.32,2.73-3.01,4.4c-0.69,1.67-1.03,3.42-1.03,5.25c0,2.4,0.51,4.38,1.53,5.95c1.02,1.57,2.36,2.9,4.03,4
			c1.67,1.1,3.56,2.02,5.68,2.77c2.12,0.75,4.3,1.49,6.53,2.23c2.24,0.73,4.41,1.54,6.53,2.42c2.12,0.88,4.01,1.99,5.68,3.33
			c1.67,1.33,3.01,2.97,4.03,4.92c1.02,1.95,1.53,4.38,1.53,7.27c0,2.97-0.51,5.76-1.53,8.38c-1.02,2.62-2.49,4.89-4.42,6.83
			c-1.93,1.93-4.3,3.46-7.1,4.58c-2.8,1.12-6,1.67-9.6,1.67c-4.67,0-8.68-0.83-12.05-2.47c-3.37-1.65-6.32-3.91-8.85-6.78l1.4-2.2
			c0.4-0.5,0.87-0.75,1.4-0.75c0.3,0,0.68,0.2,1.15,0.6c0.47,0.4,1.03,0.89,1.7,1.47c0.67,0.58,1.47,1.22,2.4,1.9
			c0.93,0.68,2.02,1.32,3.25,1.9c1.23,0.58,2.65,1.08,4.25,1.48c1.6,0.4,3.42,0.6,5.46,0.6c2.8,0,5.31-0.42,7.51-1.27
			c2.2-0.85,4.06-2.01,5.58-3.48c1.52-1.47,2.68-3.21,3.48-5.22c0.8-2.02,1.2-4.17,1.2-6.48c0-2.5-0.51-4.56-1.53-6.17
			c-1.02-1.62-2.36-2.97-4.03-4.05c-1.67-1.08-3.56-1.99-5.68-2.72c-2.12-0.73-4.3-1.45-6.53-2.15s-4.42-1.48-6.53-2.35
			c-2.12-0.87-4.01-1.98-5.68-3.33c-1.67-1.35-3.01-3.03-4.03-5.05c-1.02-2.02-1.53-4.54-1.53-7.58c0-2.37,0.45-4.65,1.35-6.85
			c0.9-2.2,2.22-4.14,3.96-5.82c1.74-1.68,3.88-3.03,6.43-4.05c2.55-1.02,5.47-1.52,8.74-1.52c3.67,0,6.97,0.58,9.89,1.75
			c2.92,1.17,5.58,2.95,7.98,5.35L459.33,995.98z"/>
		<path class="st3" d="M549.88,1058.13h-3.95c-0.47,0-0.85-0.13-1.15-0.38c-0.3-0.25-0.54-0.58-0.7-0.97l-8.35-20.55h-34.75
			l-8.3,20.55c-0.13,0.37-0.37,0.68-0.7,0.95c-0.33,0.27-0.73,0.4-1.2,0.4h-3.9l28.95-70.75h5.1L549.88,1058.13z M502.53,1032.43
			h31.7l-14.45-35.75c-0.23-0.57-0.47-1.21-0.7-1.92c-0.23-0.72-0.47-1.47-0.7-2.28c-0.23,0.8-0.47,1.56-0.7,2.28
			c-0.23,0.72-0.47,1.38-0.7,1.97L502.53,1032.43z"/>
		<path class="st3" d="M564.68,987.56c0.27,0.12,0.55,0.38,0.85,0.78l45.8,61.3c-0.1-1-0.15-1.97-0.15-2.9v-59.35h4.5v70.75h-2.45
			c-0.77,0-1.38-0.33-1.85-1l-46-61.4c0.1,1,0.15,1.95,0.15,2.85v59.55h-4.45v-70.75h2.5C564.05,987.38,564.41,987.44,564.68,987.56
			z"/>
		<path class="st3" d="M696.23,1022.73c0,5.47-0.82,10.38-2.45,14.75c-1.63,4.37-3.93,8.08-6.9,11.15
			c-2.97,3.07-6.52,5.42-10.65,7.05c-4.13,1.63-8.72,2.45-13.75,2.45h-25.8v-70.75h25.8c5.03,0,9.62,0.82,13.75,2.45
			c4.13,1.63,7.68,3.98,10.65,7.05c2.97,3.07,5.27,6.78,6.9,11.15C695.41,1012.4,696.23,1017.3,696.23,1022.73z M690.93,1022.73
			c0-4.93-0.68-9.33-2.05-13.2c-1.37-3.87-3.29-7.13-5.78-9.8c-2.48-2.67-5.47-4.7-8.97-6.1c-3.5-1.4-7.38-2.1-11.65-2.1h-20.65
			v62.45h20.65c4.27,0,8.15-0.7,11.65-2.1s6.49-3.43,8.97-6.1s4.41-5.93,5.78-9.8C690.25,1032.12,690.93,1027.7,690.93,1022.73z"/>
		<path class="st3" d="M170.74,1154.28c0.33,0,0.62,0.12,0.85,0.35l2,2.15c-1.47,1.57-3.07,2.98-4.8,4.23
			c-1.73,1.25-3.63,2.32-5.68,3.2c-2.05,0.88-4.3,1.57-6.75,2.05c-2.45,0.48-5.14,0.72-8.07,0.72c-4.9,0-9.39-0.86-13.48-2.58
			c-4.08-1.72-7.58-4.15-10.5-7.3s-5.19-6.96-6.83-11.43c-1.63-4.47-2.45-9.43-2.45-14.9c0-5.37,0.84-10.27,2.52-14.7
			c1.68-4.43,4.05-8.24,7.1-11.42c3.05-3.18,6.7-5.65,10.95-7.4s8.94-2.63,14.08-2.63c2.57,0,4.92,0.19,7.05,0.57
			c2.13,0.38,4.13,0.93,5.98,1.65c1.85,0.72,3.59,1.61,5.22,2.67c1.63,1.07,3.23,2.3,4.8,3.7l-1.55,2.25
			c-0.27,0.4-0.68,0.6-1.25,0.6c-0.3,0-0.68-0.17-1.15-0.53c-0.47-0.35-1.06-0.78-1.78-1.3c-0.72-0.52-1.58-1.08-2.6-1.7
			c-1.02-0.62-2.23-1.18-3.63-1.7c-1.4-0.52-3.02-0.95-4.85-1.3c-1.83-0.35-3.92-0.52-6.25-0.52c-4.3,0-8.25,0.74-11.85,2.23
			c-3.6,1.48-6.7,3.6-9.3,6.35c-2.6,2.75-4.63,6.08-6.08,10c-1.45,3.92-2.17,8.31-2.17,13.17c0,5,0.72,9.47,2.15,13.4
			c1.43,3.93,3.42,7.26,5.95,9.98c2.53,2.72,5.53,4.8,8.97,6.25c3.45,1.45,7.19,2.17,11.23,2.17c2.53,0,4.79-0.17,6.77-0.5
			c1.98-0.33,3.81-0.83,5.48-1.5c1.67-0.67,3.22-1.48,4.65-2.45c1.43-0.97,2.85-2.1,4.25-3.4c0.17-0.13,0.33-0.24,0.48-0.33
			C170.36,1154.32,170.54,1154.28,170.74,1154.28z"/>
		<path class="st3" d="M252.79,1130.78c0,5.47-0.82,10.42-2.45,14.88c-1.63,4.45-3.93,8.25-6.9,11.4c-2.97,3.15-6.52,5.58-10.65,7.3
			c-4.13,1.72-8.72,2.57-13.75,2.57c-4.97,0-9.52-0.86-13.65-2.57c-4.13-1.72-7.68-4.15-10.65-7.3c-2.97-3.15-5.27-6.95-6.92-11.4
			c-1.65-4.45-2.47-9.41-2.47-14.88c0-5.43,0.83-10.38,2.47-14.83c1.65-4.45,3.96-8.25,6.92-11.4c2.97-3.15,6.52-5.59,10.65-7.32
			c4.13-1.73,8.68-2.6,13.65-2.6c5.03,0,9.62,0.86,13.75,2.57c4.13,1.72,7.68,4.16,10.65,7.33s5.27,6.98,6.9,11.42
			C251.97,1120.41,252.79,1125.35,252.79,1130.78z M247.48,1130.78c0-4.93-0.68-9.37-2.05-13.3c-1.37-3.93-3.29-7.27-5.77-10
			c-2.48-2.73-5.48-4.83-8.98-6.28c-3.5-1.45-7.38-2.17-11.65-2.17c-4.2,0-8.04,0.73-11.53,2.17c-3.48,1.45-6.48,3.54-9,6.28
			c-2.52,2.73-4.47,6.07-5.85,10c-1.38,3.93-2.08,8.37-2.08,13.3c0,4.97,0.69,9.41,2.08,13.33c1.38,3.92,3.33,7.24,5.85,9.97
			c2.52,2.73,5.52,4.82,9,6.25c3.48,1.43,7.33,2.15,11.53,2.15c4.27,0,8.15-0.72,11.65-2.15c3.5-1.43,6.49-3.52,8.98-6.25
			c2.48-2.73,4.41-6.06,5.77-9.97C246.8,1140.19,247.48,1135.75,247.48,1130.78z"/>
		<path class="st3" d="M273.03,1095.61c0.27,0.12,0.55,0.38,0.85,0.78l45.8,61.3c-0.1-1-0.15-1.97-0.15-2.9v-59.35h4.5v70.75h-2.45
			c-0.77,0-1.38-0.33-1.85-1l-46-61.4c0.1,1,0.15,1.95,0.15,2.85v59.55h-4.45v-70.75h2.5
			C272.4,1095.43,272.77,1095.49,273.03,1095.61z"/>
		<path class="st3" d="M404.58,1130.78c0,5.47-0.82,10.38-2.45,14.75c-1.63,4.37-3.93,8.08-6.9,11.15
			c-2.97,3.07-6.52,5.42-10.65,7.05c-4.13,1.63-8.72,2.45-13.75,2.45h-25.8v-70.75h25.8c5.03,0,9.62,0.82,13.75,2.45
			c4.13,1.63,7.68,3.98,10.65,7.05c2.97,3.07,5.27,6.78,6.9,11.15C403.77,1120.45,404.58,1125.35,404.58,1130.78z M399.28,1130.78
			c0-4.93-0.68-9.33-2.05-13.2c-1.37-3.87-3.29-7.13-5.78-9.8c-2.48-2.67-5.47-4.7-8.97-6.1c-3.5-1.4-7.38-2.1-11.65-2.1h-20.65
			v62.45h20.65c4.27,0,8.15-0.7,11.65-2.1c3.5-1.4,6.49-3.43,8.97-6.1c2.48-2.67,4.41-5.93,5.78-9.8
			C398.6,1140.17,399.28,1135.75,399.28,1130.78z"/>
		<path class="st3" d="M428.03,1166.18h-5.15v-70.75h5.15V1166.18z"/>
		<path class="st3" d="M497.13,1095.43v4.35h-24.85v66.4h-5.1v-66.4h-25v-4.35H497.13z"/>
		<path class="st3" d="M516.38,1166.18h-5.15v-70.75h5.15V1166.18z"/>
		<path class="st3" d="M602.38,1130.78c0,5.47-0.82,10.42-2.45,14.88c-1.63,4.45-3.93,8.25-6.9,11.4c-2.97,3.15-6.52,5.58-10.65,7.3
			c-4.13,1.72-8.72,2.57-13.75,2.57c-4.97,0-9.52-0.86-13.65-2.57c-4.13-1.72-7.68-4.15-10.65-7.3c-2.97-3.15-5.27-6.95-6.92-11.4
			s-2.47-9.41-2.47-14.88c0-5.43,0.82-10.38,2.47-14.83c1.65-4.45,3.96-8.25,6.92-11.4c2.97-3.15,6.52-5.59,10.65-7.32
			c4.13-1.73,8.68-2.6,13.65-2.6c5.03,0,9.62,0.86,13.75,2.57c4.13,1.72,7.68,4.16,10.65,7.33s5.27,6.98,6.9,11.42
			C601.56,1120.41,602.38,1125.35,602.38,1130.78z M597.08,1130.78c0-4.93-0.68-9.37-2.05-13.3c-1.37-3.93-3.29-7.27-5.78-10
			c-2.48-2.73-5.47-4.83-8.97-6.28c-3.5-1.45-7.38-2.17-11.65-2.17c-4.2,0-8.04,0.73-11.52,2.17c-3.48,1.45-6.48,3.54-9,6.28
			c-2.52,2.73-4.47,6.07-5.85,10c-1.38,3.93-2.07,8.37-2.07,13.3c0,4.97,0.69,9.41,2.07,13.33c1.38,3.92,3.33,7.24,5.85,9.97
			c2.52,2.73,5.52,4.82,9,6.25c3.48,1.43,7.33,2.15,11.52,2.15c4.27,0,8.15-0.72,11.65-2.15c3.5-1.43,6.49-3.52,8.97-6.25
			c2.48-2.73,4.41-6.06,5.78-9.97C596.4,1140.19,597.08,1135.75,597.08,1130.78z"/>
		<path class="st3" d="M622.63,1095.61c0.27,0.12,0.55,0.38,0.85,0.78l45.8,61.3c-0.1-1-0.15-1.97-0.15-2.9v-59.35h4.5v70.75h-2.45
			c-0.77,0-1.38-0.33-1.85-1l-46-61.4c0.1,1,0.15,1.95,0.15,2.85v59.55h-4.45v-70.75h2.5C622,1095.43,622.36,1095.49,622.63,1095.61
			z"/>
		<path class="st3" d="M728.88,1104.03c-0.3,0.57-0.73,0.85-1.3,0.85c-0.44,0-1-0.31-1.68-0.93c-0.69-0.62-1.61-1.3-2.78-2.05
			c-1.17-0.75-2.63-1.44-4.39-2.08c-1.75-0.63-3.92-0.95-6.5-0.95c-2.58,0-4.84,0.37-6.8,1.1c-1.96,0.73-3.59,1.73-4.92,3
			c-1.32,1.27-2.32,2.73-3.01,4.4c-0.69,1.67-1.03,3.42-1.03,5.25c0,2.4,0.51,4.38,1.53,5.95c1.02,1.57,2.36,2.9,4.03,4
			c1.67,1.1,3.56,2.03,5.68,2.78c2.12,0.75,4.3,1.49,6.53,2.22c2.24,0.73,4.41,1.54,6.53,2.43c2.12,0.88,4.01,1.99,5.68,3.32
			c1.67,1.33,3.01,2.97,4.03,4.93c1.02,1.95,1.53,4.38,1.53,7.27c0,2.97-0.51,5.76-1.53,8.38c-1.02,2.62-2.49,4.89-4.42,6.83
			c-1.93,1.93-4.3,3.46-7.1,4.57c-2.8,1.12-6,1.68-9.6,1.68c-4.67,0-8.68-0.83-12.05-2.47c-3.37-1.65-6.32-3.91-8.85-6.78l1.4-2.2
			c0.4-0.5,0.87-0.75,1.4-0.75c0.3,0,0.68,0.2,1.15,0.6c0.47,0.4,1.03,0.89,1.7,1.47c0.67,0.58,1.47,1.22,2.4,1.9
			c0.93,0.68,2.02,1.32,3.25,1.9c1.23,0.58,2.65,1.08,4.25,1.48c1.6,0.4,3.42,0.6,5.46,0.6c2.8,0,5.31-0.43,7.51-1.28
			c2.2-0.85,4.06-2.01,5.58-3.47c1.52-1.47,2.68-3.21,3.48-5.22c0.8-2.02,1.2-4.18,1.2-6.48c0-2.5-0.51-4.56-1.53-6.17
			c-1.02-1.62-2.36-2.97-4.03-4.05c-1.67-1.08-3.56-1.99-5.68-2.72c-2.12-0.73-4.3-1.45-6.53-2.15c-2.24-0.7-4.42-1.48-6.53-2.35
			c-2.12-0.87-4.01-1.97-5.68-3.32c-1.67-1.35-3.01-3.03-4.03-5.05c-1.02-2.02-1.53-4.54-1.53-7.57c0-2.37,0.45-4.65,1.35-6.85
			c0.9-2.2,2.22-4.14,3.96-5.83c1.74-1.68,3.88-3.03,6.43-4.05c2.55-1.02,5.46-1.52,8.74-1.52c3.67,0,6.97,0.58,9.89,1.75
			c2.92,1.17,5.58,2.95,7.98,5.35L728.88,1104.03z"/>
	</g>
	<g class="st2">
		<path class="st3" d="M2282.75,1100.5h33.55v4.35h-38.65v-70.75h5.1V1100.5z"/>
		<path class="st3" d="M2371.2,1034.1v4.25h-37.25v28.6h31v4.15h-31v29.5h37.25v4.25h-42.4v-70.75H2371.2z"/>
		<path class="st3" d="M2418.3,1101.5c2.43,0,4.65-0.13,6.65-0.38s3.86-0.63,5.58-1.13c1.72-0.5,3.35-1.11,4.9-1.82
			c1.55-0.72,3.11-1.53,4.68-2.43v-19.05h-13.6c-0.37,0-0.68-0.12-0.93-0.35c-0.25-0.23-0.38-0.5-0.38-0.8v-2.8h19.55v25.15
			c-1.77,1.23-3.6,2.33-5.5,3.3c-1.9,0.97-3.93,1.77-6.1,2.42s-4.5,1.15-7,1.5s-5.23,0.53-8.2,0.53c-5.1,0-9.76-0.86-13.97-2.58
			c-4.22-1.72-7.83-4.15-10.85-7.3c-3.02-3.15-5.36-6.96-7.03-11.43c-1.67-4.47-2.5-9.43-2.5-14.9c0-5.47,0.83-10.42,2.5-14.88
			c1.67-4.45,4.03-8.25,7.1-11.4c3.07-3.15,6.79-5.58,11.18-7.3c4.38-1.72,9.29-2.57,14.72-2.57c2.7,0,5.19,0.18,7.47,0.55
			c2.28,0.37,4.41,0.91,6.38,1.63c1.97,0.72,3.8,1.6,5.5,2.65c1.7,1.05,3.33,2.26,4.9,3.63l-1.35,2.2c-0.3,0.5-0.72,0.75-1.25,0.75
			c-0.3,0-0.58-0.07-0.85-0.2c-0.5-0.2-1.23-0.67-2.17-1.4c-0.95-0.73-2.23-1.5-3.85-2.3c-1.62-0.8-3.64-1.52-6.08-2.15
			c-2.43-0.63-5.38-0.95-8.85-0.95c-4.6,0-8.75,0.73-12.45,2.2c-3.7,1.47-6.86,3.57-9.48,6.3c-2.62,2.73-4.63,6.07-6.05,10
			c-1.42,3.93-2.13,8.35-2.13,13.25c0,5,0.72,9.48,2.15,13.45c1.43,3.97,3.44,7.32,6.02,10.07s5.68,4.86,9.3,6.33
			C2409.94,1100.77,2413.93,1101.5,2418.3,1101.5z"/>
		<path class="st3" d="M2516,1104.85h-3.95c-0.47,0-0.85-0.13-1.15-0.38c-0.3-0.25-0.53-0.57-0.7-0.97l-8.35-20.55h-34.75
			l-8.3,20.55c-0.13,0.37-0.37,0.68-0.7,0.95s-0.73,0.4-1.2,0.4h-3.9l28.95-70.75h5.1L2516,1104.85z M2468.65,1079.15h31.7
			l-14.45-35.75c-0.23-0.57-0.47-1.21-0.7-1.93c-0.23-0.72-0.47-1.47-0.7-2.27c-0.23,0.8-0.47,1.56-0.7,2.27
			c-0.23,0.72-0.47,1.38-0.7,1.98L2468.65,1079.15z"/>
		<path class="st3" d="M2532.3,1100.5h33.55v4.35h-38.65v-70.75h5.1V1100.5z"/>
		<path class="st3" d="M2601.25,1034.28c0.27,0.12,0.55,0.38,0.85,0.78l45.8,61.3c-0.1-1-0.15-1.97-0.15-2.9v-59.35h4.5v70.75h-2.45
			c-0.77,0-1.38-0.33-1.85-1l-46-61.4c0.1,1,0.15,1.95,0.15,2.85v59.55h-4.45v-70.75h2.5
			C2600.61,1034.1,2600.98,1034.16,2601.25,1034.28z"/>
		<path class="st3" d="M2736.35,1069.45c0,5.47-0.82,10.42-2.45,14.88c-1.63,4.45-3.93,8.25-6.9,11.4
			c-2.97,3.15-6.52,5.58-10.65,7.3c-4.13,1.72-8.72,2.57-13.75,2.57c-4.97,0-9.52-0.86-13.65-2.57c-4.13-1.72-7.68-4.15-10.65-7.3
			c-2.97-3.15-5.28-6.95-6.93-11.4c-1.65-4.45-2.47-9.41-2.47-14.88c0-5.43,0.83-10.38,2.47-14.83c1.65-4.45,3.96-8.25,6.93-11.4
			c2.97-3.15,6.52-5.59,10.65-7.32c4.13-1.73,8.68-2.6,13.65-2.6c5.03,0,9.62,0.86,13.75,2.57c4.13,1.72,7.68,4.16,10.65,7.33
			s5.27,6.98,6.9,11.42C2735.53,1059.08,2736.35,1064.02,2736.35,1069.45z M2731.05,1069.45c0-4.93-0.68-9.37-2.05-13.3
			s-3.29-7.27-5.77-10c-2.48-2.73-5.48-4.83-8.98-6.28c-3.5-1.45-7.38-2.17-11.65-2.17c-4.2,0-8.04,0.73-11.52,2.17
			c-3.48,1.45-6.48,3.54-9,6.28c-2.52,2.73-4.47,6.07-5.85,10c-1.38,3.93-2.08,8.37-2.08,13.3c0,4.97,0.69,9.41,2.08,13.33
			c1.38,3.92,3.33,7.24,5.85,9.97c2.52,2.73,5.52,4.82,9,6.25c3.48,1.43,7.32,2.15,11.52,2.15c4.27,0,8.15-0.72,11.65-2.15
			c3.5-1.43,6.49-3.52,8.98-6.25c2.48-2.73,4.41-6.06,5.77-9.97C2730.36,1078.86,2731.05,1074.42,2731.05,1069.45z"/>
		<path class="st3" d="M2793.19,1034.1v4.35h-24.85v66.4h-5.1v-66.4h-25v-4.35H2793.19z"/>
		<path class="st3" d="M2812.44,1104.85h-5.15v-70.75h5.15V1104.85z"/>
		<path class="st3" d="M2886.74,1092.95c0.33,0,0.62,0.12,0.85,0.35l2,2.15c-1.47,1.57-3.07,2.98-4.8,4.23
			c-1.73,1.25-3.63,2.32-5.67,3.2c-2.05,0.88-4.3,1.57-6.75,2.05c-2.45,0.48-5.14,0.72-8.08,0.72c-4.9,0-9.39-0.86-13.48-2.58
			c-4.08-1.72-7.58-4.15-10.5-7.3s-5.19-6.96-6.82-11.43c-1.63-4.47-2.45-9.43-2.45-14.9c0-5.37,0.84-10.27,2.52-14.7
			c1.68-4.43,4.05-8.24,7.1-11.42c3.05-3.18,6.7-5.65,10.95-7.4s8.94-2.63,14.07-2.63c2.57,0,4.92,0.19,7.05,0.57
			c2.13,0.38,4.13,0.93,5.97,1.65s3.59,1.61,5.22,2.67c1.63,1.07,3.23,2.3,4.8,3.7l-1.55,2.25c-0.27,0.4-0.68,0.6-1.25,0.6
			c-0.3,0-0.68-0.17-1.15-0.53c-0.47-0.35-1.06-0.78-1.78-1.3c-0.72-0.52-1.58-1.08-2.6-1.7c-1.02-0.62-2.23-1.18-3.63-1.7
			c-1.4-0.52-3.02-0.95-4.85-1.3c-1.83-0.35-3.92-0.52-6.25-0.52c-4.3,0-8.25,0.74-11.85,2.23c-3.6,1.48-6.7,3.6-9.3,6.35
			c-2.6,2.75-4.63,6.08-6.08,10c-1.45,3.92-2.17,8.31-2.17,13.17c0,5,0.72,9.47,2.15,13.4c1.43,3.93,3.42,7.26,5.95,9.98
			c2.53,2.72,5.53,4.8,8.98,6.25c3.45,1.45,7.19,2.17,11.22,2.17c2.53,0,4.79-0.17,6.78-0.5c1.98-0.33,3.81-0.83,5.47-1.5
			c1.67-0.67,3.22-1.48,4.65-2.45c1.43-0.97,2.85-2.1,4.25-3.4c0.17-0.13,0.32-0.24,0.47-0.33S2886.54,1092.95,2886.74,1092.95z"/>
		<path class="st3" d="M2948.09,1034.1v4.25h-37.25v28.6h31v4.15h-31v29.5h37.25v4.25h-42.4v-70.75H2948.09z"/>
	</g>
	<g class="st2">
		<path class="st3" d="M1129.06,1076.35v28.5h-5.1v-70.75h18.25c8.3,0,14.56,1.82,18.78,5.45c4.22,3.63,6.32,8.82,6.32,15.55
			c0,3.1-0.57,5.95-1.72,8.55s-2.81,4.84-4.97,6.72c-2.17,1.88-4.8,3.35-7.9,4.4c-3.1,1.05-6.6,1.57-10.5,1.57H1129.06z
			 M1129.06,1072.25h13.15c3.13,0,5.93-0.43,8.4-1.3c2.47-0.87,4.56-2.07,6.27-3.6c1.72-1.53,3.03-3.34,3.95-5.42
			c0.92-2.08,1.38-4.36,1.38-6.83c0-5.43-1.67-9.62-5.03-12.55c-3.35-2.93-8.34-4.4-14.97-4.4h-13.15V1072.25z"/>
		<path class="st3" d="M1188.41,1072.85v32h-5.1v-70.75h18.05c8.17,0,14.27,1.58,18.3,4.73s6.05,7.77,6.05,13.88
			c0,2.7-0.47,5.17-1.4,7.4c-0.93,2.23-2.28,4.19-4.03,5.88c-1.75,1.68-3.86,3.07-6.32,4.15c-2.47,1.08-5.25,1.79-8.35,2.13
			c0.8,0.5,1.52,1.17,2.15,2l24.35,30.6h-4.45c-0.53,0-0.99-0.1-1.38-0.3c-0.38-0.2-0.76-0.53-1.13-1l-22.65-28.7
			c-0.57-0.73-1.17-1.25-1.83-1.55c-0.65-0.3-1.66-0.45-3.03-0.45H1188.41z M1188.41,1069.05h12.3c3.13,0,5.94-0.38,8.42-1.13
			c2.48-0.75,4.58-1.83,6.3-3.23s3.03-3.08,3.92-5.05c0.9-1.97,1.35-4.18,1.35-6.65c0-5.03-1.65-8.77-4.95-11.2s-8.1-3.65-14.4-3.65
			h-12.95V1069.05z"/>
		<path class="st3" d="M1251.91,1104.85h-5.15v-70.75h5.15V1104.85z"/>
		<path class="st3" d="M1265.06,1034.1h4.05c0.47,0,0.85,0.13,1.15,0.38s0.53,0.58,0.7,0.98l24.1,58.7c0.63,1.53,1.15,3.17,1.55,4.9
			c0.37-1.8,0.85-3.43,1.45-4.9l24.05-58.7c0.17-0.37,0.41-0.68,0.73-0.95c0.32-0.27,0.71-0.4,1.17-0.4h4l-29.2,70.75h-4.55
			L1265.06,1034.1z"/>
		<path class="st3" d="M1387.76,1104.85h-3.95c-0.47,0-0.85-0.13-1.15-0.38c-0.3-0.25-0.53-0.57-0.7-0.97l-8.35-20.55h-34.75
			l-8.3,20.55c-0.13,0.37-0.37,0.68-0.7,0.95s-0.73,0.4-1.2,0.4h-3.9l28.95-70.75h5.1L1387.76,1104.85z M1340.41,1079.15h31.7
			l-14.45-35.75c-0.23-0.57-0.47-1.21-0.7-1.93c-0.23-0.72-0.47-1.47-0.7-2.27c-0.23,0.8-0.47,1.56-0.7,2.27
			c-0.23,0.72-0.47,1.38-0.7,1.98L1340.41,1079.15z"/>
		<path class="st3" d="M1448.86,1092.95c0.33,0,0.62,0.12,0.85,0.35l2,2.15c-1.47,1.57-3.07,2.98-4.8,4.23
			c-1.73,1.25-3.63,2.32-5.67,3.2c-2.05,0.88-4.3,1.57-6.75,2.05c-2.45,0.48-5.14,0.72-8.08,0.72c-4.9,0-9.39-0.86-13.48-2.58
			c-4.08-1.72-7.58-4.15-10.5-7.3s-5.19-6.96-6.82-11.43c-1.63-4.47-2.45-9.43-2.45-14.9c0-5.37,0.84-10.27,2.52-14.7
			c1.68-4.43,4.05-8.24,7.1-11.42c3.05-3.18,6.7-5.65,10.95-7.4s8.94-2.63,14.07-2.63c2.57,0,4.92,0.19,7.05,0.57
			c2.13,0.38,4.13,0.93,5.97,1.65s3.59,1.61,5.22,2.67c1.63,1.07,3.23,2.3,4.8,3.7l-1.55,2.25c-0.27,0.4-0.68,0.6-1.25,0.6
			c-0.3,0-0.68-0.17-1.15-0.53c-0.47-0.35-1.06-0.78-1.78-1.3c-0.72-0.52-1.58-1.08-2.6-1.7c-1.02-0.62-2.23-1.18-3.63-1.7
			c-1.4-0.52-3.02-0.95-4.85-1.3c-1.83-0.35-3.92-0.52-6.25-0.52c-4.3,0-8.25,0.74-11.85,2.23c-3.6,1.48-6.7,3.6-9.3,6.35
			c-2.6,2.75-4.63,6.08-6.08,10c-1.45,3.92-2.17,8.31-2.17,13.17c0,5,0.72,9.47,2.15,13.4c1.43,3.93,3.42,7.26,5.95,9.98
			c2.53,2.72,5.53,4.8,8.98,6.25c3.45,1.45,7.19,2.17,11.22,2.17c2.53,0,4.79-0.17,6.78-0.5c1.98-0.33,3.81-0.83,5.47-1.5
			c1.67-0.67,3.22-1.48,4.65-2.45c1.43-0.97,2.85-2.1,4.25-3.4c0.17-0.13,0.32-0.24,0.47-0.33S1448.66,1092.95,1448.86,1092.95z"/>
		<path class="st3" d="M1489.86,1075.65v29.2h-5.15v-29.2l-26.15-41.55h4.45c0.47,0,0.84,0.11,1.13,0.33
			c0.28,0.22,0.56,0.52,0.83,0.92l20.25,32.5c0.47,0.77,0.87,1.51,1.2,2.23c0.33,0.72,0.63,1.44,0.9,2.17
			c0.27-0.73,0.57-1.46,0.9-2.17c0.33-0.72,0.73-1.46,1.2-2.23l20.2-32.5c0.2-0.37,0.45-0.67,0.75-0.9s0.68-0.35,1.15-0.35h4.5
			L1489.86,1075.65z"/>
		<path class="st3" d="M1553.66,1076.35v28.5h-5.1v-70.75h18.25c8.3,0,14.56,1.82,18.78,5.45c4.22,3.63,6.32,8.82,6.32,15.55
			c0,3.1-0.57,5.95-1.72,8.55s-2.81,4.84-4.97,6.72c-2.17,1.88-4.8,3.35-7.9,4.4c-3.1,1.05-6.6,1.57-10.5,1.57H1553.66z
			 M1553.66,1072.25h13.15c3.13,0,5.93-0.43,8.4-1.3c2.47-0.87,4.56-2.07,6.27-3.6c1.72-1.53,3.03-3.34,3.95-5.42
			c0.92-2.08,1.38-4.36,1.38-6.83c0-5.43-1.67-9.62-5.03-12.55c-3.35-2.93-8.34-4.4-14.97-4.4h-13.15V1072.25z"/>
		<path class="st3" d="M1669.51,1069.45c0,5.47-0.82,10.42-2.45,14.88c-1.63,4.45-3.93,8.25-6.9,11.4
			c-2.97,3.15-6.52,5.58-10.65,7.3s-8.72,2.57-13.75,2.57c-4.97,0-9.52-0.86-13.65-2.57c-4.13-1.72-7.68-4.15-10.65-7.3
			c-2.97-3.15-5.27-6.95-6.92-11.4s-2.47-9.41-2.47-14.88c0-5.43,0.82-10.38,2.47-14.83c1.65-4.45,3.96-8.25,6.92-11.4
			c2.97-3.15,6.52-5.59,10.65-7.32c4.13-1.73,8.68-2.6,13.65-2.6c5.03,0,9.62,0.86,13.75,2.57s7.68,4.16,10.65,7.33
			s5.27,6.98,6.9,11.42C1668.69,1059.08,1669.51,1064.02,1669.51,1069.45z M1664.21,1069.45c0-4.93-0.68-9.37-2.05-13.3
			c-1.37-3.93-3.29-7.27-5.78-10c-2.48-2.73-5.47-4.83-8.97-6.28c-3.5-1.45-7.38-2.17-11.65-2.17c-4.2,0-8.04,0.73-11.52,2.17
			c-3.48,1.45-6.48,3.54-9,6.28c-2.52,2.73-4.47,6.07-5.85,10s-2.07,8.37-2.07,13.3c0,4.97,0.69,9.41,2.07,13.33
			c1.38,3.92,3.33,7.24,5.85,9.97c2.52,2.73,5.52,4.82,9,6.25c3.48,1.43,7.33,2.15,11.52,2.15c4.27,0,8.15-0.72,11.65-2.15
			c3.5-1.43,6.49-3.52,8.97-6.25c2.48-2.73,4.41-6.06,5.78-9.97C1663.52,1078.86,1664.21,1074.42,1664.21,1069.45z"/>
		<path class="st3" d="M1691.26,1100.5h33.55v4.35h-38.65v-70.75h5.1V1100.5z"/>
		<path class="st3" d="M1744.31,1104.85h-5.15v-70.75h5.15V1104.85z"/>
		<path class="st3" d="M1818.61,1092.95c0.33,0,0.62,0.12,0.85,0.35l2,2.15c-1.47,1.57-3.07,2.98-4.8,4.23
			c-1.73,1.25-3.63,2.32-5.67,3.2c-2.05,0.88-4.3,1.57-6.75,2.05c-2.45,0.48-5.14,0.72-8.08,0.72c-4.9,0-9.39-0.86-13.48-2.58
			c-4.08-1.72-7.58-4.15-10.5-7.3s-5.19-6.96-6.82-11.43c-1.63-4.47-2.45-9.43-2.45-14.9c0-5.37,0.84-10.27,2.52-14.7
			c1.68-4.43,4.05-8.24,7.1-11.42c3.05-3.18,6.7-5.65,10.95-7.4s8.94-2.63,14.07-2.63c2.57,0,4.92,0.19,7.05,0.57
			c2.13,0.38,4.13,0.93,5.97,1.65s3.59,1.61,5.22,2.67c1.63,1.07,3.23,2.3,4.8,3.7l-1.55,2.25c-0.27,0.4-0.68,0.6-1.25,0.6
			c-0.3,0-0.68-0.17-1.15-0.53c-0.47-0.35-1.06-0.78-1.78-1.3c-0.72-0.52-1.58-1.08-2.6-1.7c-1.02-0.62-2.23-1.18-3.63-1.7
			c-1.4-0.52-3.02-0.95-4.85-1.3c-1.83-0.35-3.92-0.52-6.25-0.52c-4.3,0-8.25,0.74-11.85,2.23c-3.6,1.48-6.7,3.6-9.3,6.35
			c-2.6,2.75-4.63,6.08-6.08,10c-1.45,3.92-2.17,8.31-2.17,13.17c0,5,0.72,9.47,2.15,13.4c1.43,3.93,3.42,7.26,5.95,9.98
			c2.53,2.72,5.53,4.8,8.98,6.25c3.45,1.45,7.19,2.17,11.22,2.17c2.53,0,4.79-0.17,6.78-0.5c1.98-0.33,3.81-0.83,5.47-1.5
			c1.67-0.67,3.22-1.48,4.65-2.45c1.43-0.97,2.85-2.1,4.25-3.4c0.17-0.13,0.32-0.24,0.47-0.33S1818.41,1092.95,1818.61,1092.95z"/>
		<path class="st3" d="M1859.6,1075.65v29.2h-5.15v-29.2l-26.15-41.55h4.45c0.47,0,0.84,0.11,1.13,0.33
			c0.28,0.22,0.56,0.52,0.83,0.92l20.25,32.5c0.47,0.77,0.87,1.51,1.2,2.23c0.33,0.72,0.63,1.44,0.9,2.17
			c0.27-0.73,0.57-1.46,0.9-2.17c0.33-0.72,0.73-1.46,1.2-2.23l20.2-32.5c0.2-0.37,0.45-0.67,0.75-0.9s0.68-0.35,1.15-0.35h4.5
			L1859.6,1075.65z"/>
	</g>
</g>
<g id="Metaphor_illustration">
	<g class="st0">
		<linearGradient id="SVGID_1_" gradientUnits="userSpaceOnUse" x1="3117.5405" y1="1073.1316" x2="2380.2947" y2="157.5185">
			<stop  offset="0" style="stop-color:#DAE3FE"/>
			<stop  offset="1" style="stop-color:#E9EFFD"/>
		</linearGradient>
		<path class="st4" d="M2914.72,712.05c-16.93,17.83-32.96,29.32-45.62,38.41c-148.81,106.77-324.89,75.65-362.31,68.05
			c-55.26-11.22-162.08-32.92-239.31-123.74c-116.84-137.4-98.65-353.87-8.02-496.77c16.58-26.14,104.14-171.21,282.12-194.47
			c107.71-14.08,233.27,14.32,324.19,90.49C3056.63,253.92,3043.05,576.95,2914.72,712.05z"/>
		<g class="st2">
			<g>
				<path class="st5" d="M2780.79,471.64c0,0-2.42-101.85,44.49-129.11c46.91-27.26,136.11-44.3,139.45-190.55
					c1.96-85.62,4.08-123.06,5.5-139.38c0.55-6.37-5.1-11.51-11.39-10.32c-44.43,8.37-188.76,42.82-219.02,141.33
					C2703.95,260.4,2780.79,471.64,2780.79,471.64z"/>
				<path class="st6" d="M2924.48,42.96c-48.77,43.5-105.16,120.48-135.22,197.46c-3.86,12.69-15.14,39.67-20.05,87.6
					c-4.38,39.98-2.2,82.23,3.11,110.19c0.34,1.77,2.04,2.93,3.81,2.59c3.04-0.58,2.64-3.85,2.61-3.74
					c-6.06-47.78-3.55-107.25,10.34-160.9c17.75-65.89,57.33-129.76,98.27-183.94l4.21-5.33c31.72-40.73,38.4-41.03,35.43-43.87
					C2926.29,42.34,2925.2,42.33,2924.48,42.96z"/>
			</g>
			<g>
				<path class="st6" d="M2722.17,658.46c-6.35,3.11,60.09-80.43,80.9-211.64c9.81-61.83,9.93-139.29,45.15-169.15
					c29.31-24.85,129.06-9.16,161.7-3.2c4.08,0.74,5.45,5.9,2.28,8.56c-15.65,13.14-49.13,44.15-57.86,75.4
					c-11.5,41.19-50.65,67.38-85.71,74.47c-35.05,7.09-54.55,13.97-71.63,70.03C2779.92,559,2740.2,649.62,2722.17,658.46z"/>
				<linearGradient id="SVGID_2_" gradientUnits="userSpaceOnUse" x1="2804.2629" y1="378.3156" x2="2964.9468" y2="378.3156">
					<stop  offset="0" style="stop-color:#DAE3FE"/>
					<stop  offset="1" style="stop-color:#E9EFFD"/>
				</linearGradient>
				<path class="st7" d="M2964.01,291.88c-41.64,1.74-86.34,20.74-109.02,56.37l-2.14,3.4c-4.94,7.97-32.97,64.65-48.53,111.62
					c-0.19,0.59,0.12,1.22,0.71,1.41c0.99,0.33,1.49-0.77,1.4-0.67c10.84-26.54,26.42-60.19,38.82-85.35
					c13.3-27.46,22.61-46.05,52.95-63.86c33.77-19.18,66.04-21.16,65.94-21.14c0.49-0.05,0.85-0.49,0.8-0.98
					C2964.89,292.21,2964.48,291.86,2964.01,291.88z"/>
			</g>
		</g>
		<g class="st2">
			<linearGradient id="SVGID_3_" gradientUnits="userSpaceOnUse" x1="2607.4072" y1="778.7344" x2="2570.1516" y2="-324.0501">
				<stop  offset="0" style="stop-color:#09005D"/>
				<stop  offset="1" style="stop-color:#1A0F91"/>
			</linearGradient>
			<path class="st8" d="M2345.3,197.75c0-26.31,21.33-47.63,47.63-47.63h405.08c22.35,0,40.78,17.51,41.91,39.83l29.9,587.28
				c0.89,17.47-12.86,32.2-30.34,32.52l-464.27,8.44c-16.43,0.3-29.91-12.94-29.91-29.37V197.75z"/>
			<path class="st5" d="M2443.06,808.2h-0.01l-51.95-0.67c-17.37-0.23-31.5-14.54-31.5-31.91v-78.43c0-0.61,0.5-1.11,1.11-1.11
				s1.11,0.5,1.11,1.11v78.43c0,16.16,13.15,29.48,29.31,29.69l51.95,0.67c0.61,0.01,1.1,0.51,1.09,1.12
				C2444.16,807.71,2443.67,808.2,2443.06,808.2z"/>
			<linearGradient id="SVGID_4_" gradientUnits="userSpaceOnUse" x1="2291.5461" y1="622.6007" x2="2713.7859" y2="890.8475">
				<stop  offset="0" style="stop-color:#A737D5"/>
				<stop  offset="1" style="stop-color:#EF497A"/>
			</linearGradient>
			<path class="st9" d="M2360.7,674c-0.61,0-1.11-0.5-1.11-1.11v-12.7c0-0.61,0.5-1.11,1.11-1.11s1.11,0.5,1.11,1.11v12.7
				C2361.81,673.5,2361.32,674,2360.7,674z"/>
			<g>
				<linearGradient id="SVGID_5_" gradientUnits="userSpaceOnUse" x1="3248.4006" y1="-59.3509" x2="2950.4006" y2="184.6487">
					<stop  offset="0" style="stop-color:#E1473D"/>
					<stop  offset="1" style="stop-color:#E9605A"/>
				</linearGradient>
				<path class="st10" d="M2378.48,159.15c-0.05-8.42,7.35-14.93,15.69-13.8c55.32,7.5,245.54,30.7,402.81,18.63
					c7.17-0.55,13.4,4.88,13.78,12.07l31.35,589.9c0.43,8.09-5.75,15.01-13.83,15.48c-66.15,3.91-338.55,19.05-435.72,8.87
					c-5.91-0.62-10.4-5.6-10.44-11.54L2378.48,159.15z"/>
				<linearGradient id="SVGID_6_" gradientUnits="userSpaceOnUse" x1="2820.4333" y1="309.4778" x2="3288.4336" y2="-36.5222">
					<stop  offset="0" style="stop-color:#FEBBBA"/>
					<stop  offset="1" style="stop-color:#FF928E"/>
				</linearGradient>
				<path class="st11" d="M2385,173.94c-0.05-8.1,7.08-14.37,15.1-13.28c53.23,7.22,236.29,29.55,387.64,17.93
					c6.9-0.53,12.89,4.7,13.26,11.61l30.17,567.69c0.41,7.78-5.53,14.44-13.31,14.9c-63.65,3.77-325.8,18.33-419.31,8.54
					c-5.69-0.6-10.01-5.39-10.04-11.11L2385,173.94z"/>
				<path class="st12" d="M2434.28,217.7l5.65,121.71c0.19,4.05,3.46,7.27,7.51,7.38c22.54,0.64,92.78,2.35,132.43,0.28
					c4.49-0.23,8.03-3.86,8.18-8.35c0.76-22.82,2.41-89.26-2.79-117.03c-0.84-4.49-4.7-7.77-9.26-7.93l-133.23-4.66
					C2437.98,208.93,2434.06,212.9,2434.28,217.7z"/>
				<g class="st13">
					<path class="st14" d="M2767.81,228.3c2.49,0,4.48-1.84,4.41-4.08c-0.07-2.25-2.16-4.12-4.65-4.16l-146.53-2.61
						c-2.49-0.04-3.85,1.84-3.02,4.19l0.84,2.39c0.83,2.35,3.54,4.27,6.03,4.27H2767.81z"/>
				</g>
				<g class="st13">
					<path class="st14" d="M2621.05,240.13c-2.49-0.04-3.85,1.84-3.02,4.19l0.84,2.39c0.83,2.35,3.54,4.27,6.03,4.27h142.91
						c2.49,0,4.48-1.84,4.41-4.08c-0.07-2.25-2.16-4.12-4.65-4.16L2621.05,240.13z"/>
				</g>
				<g class="st13">
					<path class="st14" d="M2621.05,263.15c-2.49-0.04-3.85,1.84-3.02,4.19l0.84,2.39c0.83,2.35,3.54,4.27,6.03,4.27h142.91
						c2.49,0,4.48-1.84,4.41-4.08c-0.07-2.25-2.16-4.12-4.65-4.16L2621.05,263.15z"/>
				</g>
				<g class="st13">
					<path class="st14" d="M2782,385.02c2.49,0,4.41-1.84,4.26-4.08c-0.15-2.25-2.31-4.1-4.8-4.12l-342.7-2.7
						c-2.49-0.02-3.26,1.56-1.71,3.51l3.07,3.85c1.55,1.95,4.86,3.54,7.35,3.54H2782z"/>
				</g>
				<g class="st13">
					<path class="st14" d="M2438.77,396.8c-2.49-0.02-3.26,1.56-1.71,3.51l3.07,3.85c1.55,1.95,4.86,3.54,7.35,3.54H2782
						c2.49,0,4.41-1.84,4.26-4.08c-0.15-2.25-2.31-4.1-4.8-4.12L2438.77,396.8z"/>
				</g>
				<linearGradient id="SVGID_7_" gradientUnits="userSpaceOnUse" x1="2388.9736" y1="401.5512" x2="2778.9233" y2="713.262">
					<stop  offset="0" style="stop-color:#A737D5"/>
					<stop  offset="1" style="stop-color:#EF497A"/>
				</linearGradient>
				<path class="st15" d="M2437.44,434.69c8.23-0.63,23.64-0.92,32.12-1.04c3.59-0.05,6.75,2.38,7.59,5.88
					c1.64,6.79,3.9,18.57,3.61,31.06c-0.09,3.74-3.15,6.72-6.89,6.68l-31.3-0.34c-3.85-0.04-7.05-2.98-7.4-6.82l-2.75-29.45
					C2432.13,437.62,2434.39,434.92,2437.44,434.69z"/>
				<g class="st13">
					<path class="st14" d="M2495.11,446.77c-2.49-0.1-4.22,1.83-3.85,4.29l0.82,5.48c0.37,2.46,2.71,4.48,5.2,4.48h76.46
						c2.49,0,4.5-2.04,4.47-4.53l-0.02-1.72c-0.03-2.49-2.09-4.61-4.58-4.72L2495.11,446.77z"/>
				</g>
				<linearGradient id="SVGID_8_" gradientUnits="userSpaceOnUse" x1="2645.6313" y1="442.5484" x2="3103.6306" y2="118.5488">
					<stop  offset="0" style="stop-color:#FF928E"/>
					<stop  offset="1" style="stop-color:#FE7062"/>
				</linearGradient>
				<path class="st16" d="M2607.98,434.69c8.23-0.63,23.64-0.92,32.12-1.04c3.59-0.05,6.75,2.38,7.59,5.88
					c1.64,6.79,3.9,18.57,3.61,31.06c-0.08,3.74-3.15,6.72-6.89,6.68l-31.3-0.34c-3.85-0.04-7.05-2.98-7.4-6.82l-2.75-29.45
					C2602.67,437.62,2604.93,434.92,2607.98,434.69z"/>
				<g class="st13">
					<path class="st14" d="M2665.66,446.77c-2.49-0.1-4.22,1.83-3.85,4.29l0.82,5.48c0.37,2.46,2.71,4.48,5.2,4.48h76.46
						c2.49,0,4.5-2.04,4.47-4.53l-0.02-1.72c-0.03-2.49-2.09-4.61-4.58-4.72L2665.66,446.77z"/>
				</g>
				<g>
					<g class="st13">
						<path class="st14" d="M2427.85,535.43c1.07,3.17,4.77,5.37,8.98,5.34l342.9-2.28c3.88-0.03,6.98-2.52,6.9-5.54
							c-0.08-2.94-3.15-5.29-6.92-5.31l-342.91-1.22C2430.73,526.41,2426.3,530.87,2427.85,535.43z"/>
					</g>
					<g class="st13">
						<path class="st14" d="M2427.85,597.35c1.07,3.17,4.77,5.37,8.98,5.34l342.9-2.28c3.88-0.03,6.98-2.52,6.9-5.54
							c-0.08-2.94-3.15-5.29-6.92-5.3l-342.91-1.22C2430.73,588.32,2426.3,592.78,2427.85,597.35z"/>
					</g>
					<g class="st13">
						<path class="st14" d="M2427.85,659.26c1.07,3.17,4.77,5.37,8.98,5.34l342.9-2.28c3.88-0.03,6.98-2.52,6.9-5.54
							c-0.08-2.94-3.15-5.29-6.92-5.3l-342.91-1.22C2430.73,650.23,2426.3,654.69,2427.85,659.26z"/>
					</g>
					<g class="st13">
						<path class="st14" d="M2427.85,721.17L2427.85,721.17c1.07,3.17,4.77,5.37,8.98,5.34l342.9-2.28c3.88-0.03,6.98-2.52,6.9-5.54
							c-0.08-2.94-3.15-5.29-6.92-5.3l-342.91-1.22C2430.73,712.14,2426.3,716.61,2427.85,721.17z"/>
					</g>
				</g>
			</g>
			<linearGradient id="SVGID_9_" gradientUnits="userSpaceOnUse" x1="2665.7859" y1="9.5765" x2="2479.4656" y2="254.6766">
				<stop  offset="0" style="stop-color:#09005D"/>
				<stop  offset="1" style="stop-color:#1A0F91"/>
			</linearGradient>
			<path class="st17" d="M2620.59,70.04c-14.63-10.18-27.35-9.98-36.31-7.33c-8.17,2.41-13.47,10.3-12.69,18.78l3.86,42.16
				l45.96,4.08C2621.42,127.72,2649.29,90,2620.59,70.04z M2600.38,104.05c-6.33,0-11.46-5.13-11.46-11.46s5.13-11.46,11.46-11.46
				c6.33,0,11.46,5.13,11.46,11.46S2606.71,104.05,2600.38,104.05z"/>
			<path class="st5" d="M2580.05,105.91c-0.57,0-1.05-0.43-1.1-1.01l-0.62-6.71c-0.06-0.61,0.39-1.15,1-1.21
				c0.62-0.06,1.15,0.39,1.21,1l0.62,6.71c0.06,0.61-0.39,1.15-1,1.21C2580.11,105.91,2580.08,105.91,2580.05,105.91z
				 M2578.84,92.75c-0.57,0-1.05-0.43-1.1-1.01l-0.47-5.1c-0.74-8.08,4.34-15.6,12.09-17.89c5.49-1.62,11.14-1.85,16.8-0.69
				c0.6,0.12,0.99,0.71,0.86,1.31c-0.12,0.6-0.7,0.98-1.31,0.86c-5.3-1.09-10.59-0.87-15.72,0.64c-6.73,1.99-11.15,8.53-10.51,15.56
				l0.47,5.1c0.06,0.61-0.39,1.15-1,1.21C2578.91,92.75,2578.88,92.75,2578.84,92.75z"/>
			<linearGradient id="SVGID_10_" gradientUnits="userSpaceOnUse" x1="2686.2239" y1="25.1125" x2="2499.9033" y2="270.2129">
				<stop  offset="0" style="stop-color:#09005D"/>
				<stop  offset="1" style="stop-color:#1A0F91"/>
			</linearGradient>
			<path class="st18" d="M2512.73,150.89v-21.2c0-7.32,6.06-13.18,13.38-12.93l146.13,5.01c6.49,0.22,11.74,5.34,12.13,11.82
				l1.22,20.37L2512.73,150.89z"/>
			<path class="st5" d="M2567.22,124.75h-6.28c-0.61,0-1.11-0.5-1.11-1.11c0-0.61,0.5-1.11,1.11-1.11h6.28
				c0.61,0,1.11,0.5,1.11,1.11C2568.33,124.26,2567.83,124.75,2567.22,124.75z"/>
			<path class="st5" d="M2520.64,144.23c-0.61,0-1.11-0.5-1.11-1.11v-8.57c0-6.63,5.39-12.01,12.01-12.01h23.1
				c0.61,0,1.11,0.5,1.11,1.11c0,0.61-0.5,1.11-1.11,1.11h-23.1c-5.4,0-9.8,4.4-9.8,9.8v8.57
				C2521.75,143.74,2521.25,144.23,2520.64,144.23z"/>
			<linearGradient id="SVGID_11_" gradientUnits="userSpaceOnUse" x1="2662.7441" y1="40.105" x2="2534.094" y2="276.3332">
				<stop  offset="0" style="stop-color:#FF928E"/>
				<stop  offset="1" style="stop-color:#FE7062"/>
			</linearGradient>
			<path class="st19" d="M2453.18,156.24c0.35-7.34,6.41-13.11,13.75-13.11l255.54-0.01c9.19,0,17.04,6.61,18.61,15.67l0.22,1.25
				c1.72,9.92-5.92,18.99-15.98,18.99h-262.17c-6.02,0-10.82-5.04-10.53-11.05L2453.18,156.24z"/>
		</g>
		<g class="st2">
			<g>
				<linearGradient id="SVGID_12_" gradientUnits="userSpaceOnUse" x1="2459.905" y1="665.8494" x2="2412.405" y2="732.8492">
					<stop  offset="0" style="stop-color:#09005D"/>
					<stop  offset="1" style="stop-color:#1A0F91"/>
				</linearGradient>
				<rect x="2196.74" y="735.15" class="st20" width="367.37" height="85.62"/>
				<linearGradient id="SVGID_13_" gradientUnits="userSpaceOnUse" x1="2590.303" y1="508.9093" x2="2265.894" y2="953.1348">
					<stop  offset="0" style="stop-color:#4F52FF"/>
					<stop  offset="1" style="stop-color:#4042E2"/>
				</linearGradient>
				<path class="st21" d="M2565.41,815.29h-368.59c-4.27,0-7.73-3.46-7.73-7.73v-25.14h381.49v27.71
					C2570.58,812.98,2568.27,815.29,2565.41,815.29z"/>
				<linearGradient id="SVGID_14_" gradientUnits="userSpaceOnUse" x1="2381.6948" y1="719.1049" x2="2390.6946" y2="532.1055">
					<stop  offset="0" style="stop-color:#4F52FF"/>
					<stop  offset="1" style="stop-color:#4042E2"/>
				</linearGradient>
				<path class="st22" d="M2562.91,777.96h-364.26c-5.28,0-9.57-4.28-9.57-9.57v-23.31h381.49v25.21
					C2570.58,774.53,2567.15,777.96,2562.91,777.96z"/>
				<linearGradient id="SVGID_15_" gradientUnits="userSpaceOnUse" x1="2669.4209" y1="448.1716" x2="2586.4209" y2="532.1716">
					<stop  offset="0" style="stop-color:#09005D"/>
					<stop  offset="1" style="stop-color:#1A0F91"/>
				</linearGradient>
				<path class="st23" d="M2570.58,745.09h-381.49v-4.43c0-4.36,3.54-7.9,7.9-7.9h365.59c4.42,0,8,3.58,8,8V745.09z"/>
			</g>
			<g>
				<linearGradient id="SVGID_16_" gradientUnits="userSpaceOnUse" x1="3062.28" y1="841.2244" x2="3139.28" y2="860.2244">
					<stop  offset="0" style="stop-color:#4F52FF"/>
					<stop  offset="1" style="stop-color:#4042E2"/>
				</linearGradient>
				<path class="st24" d="M2905.88,773.51c12.36,6.01,16.72,22.53,9.74,36.89c-6.98,14.36-22.67,21.13-35.03,15.12
					s-16.72-22.53-9.74-36.89C2877.84,774.27,2893.52,767.5,2905.88,773.51z"/>
				<linearGradient id="SVGID_17_" gradientUnits="userSpaceOnUse" x1="2711.5139" y1="688.9847" x2="2818.5139" y2="755.9847">
					<stop  offset="0" style="stop-color:#4F52FF"/>
					<stop  offset="1" style="stop-color:#4042E2"/>
				</linearGradient>
				<path class="st25" d="M2883.96,783.77l-8.84,18.17c-1.51,3.11-5.25,4.4-8.36,2.89l-7.98-3.88c-3.11-1.51-4.4-5.25-2.89-8.36
					l8.84-18.17c1.51-3.11,5.25-4.4,8.36-2.89l7.98,3.88C2884.18,776.92,2885.47,780.66,2883.96,783.77z"/>
				
					<linearGradient id="SVGID_18_" gradientUnits="userSpaceOnUse" x1="2978.2458" y1="705.6214" x2="2436.1938" y2="441.6278" gradientTransform="matrix(0.9989 -0.0469 0.0469 0.9989 20.2549 283.9615)">
					<stop  offset="0" style="stop-color:#4F52FF"/>
					<stop  offset="1" style="stop-color:#4042E2"/>
				</linearGradient>
				<path class="st26" d="M2869.64,767.28c-2.27,11.66-7.45,22.07-15.31,31.32c-4.25,5-11.07,7.24-17.85,5.88
					c-64.85-13.02-200.76-97.02-332.75-170.41c-8.75-4.86-14.79-10.38-10.67-18.86l9.1-18.72c4.1-8.42,13.9-3.68,23.1,0.1
					c139.62,57.36,287.7,107.36,338.54,153.63C2868.67,754.66,2870.84,761.13,2869.64,767.28z"/>
				<linearGradient id="SVGID_19_" gradientUnits="userSpaceOnUse" x1="2422.7317" y1="550.4227" x2="2503.7314" y2="608.4224">
					<stop  offset="0" style="stop-color:#09005D"/>
					<stop  offset="1" style="stop-color:#1A0F91"/>
				</linearGradient>
				<path class="st27" d="M2521.49,581.14l-27.24,56.01c-1.45,2.98-5.04,4.22-8.02,2.77l-8.76-4.26c-2.98-1.45-4.22-5.04-2.77-8.02
					l27.24-56.01c1.45-2.98,5.04-4.22,8.02-2.77l8.76,4.26C2521.7,574.57,2522.94,578.16,2521.49,581.14z"/>
				<linearGradient id="SVGID_20_" gradientUnits="userSpaceOnUse" x1="2634.2542" y1="653.3327" x2="2367.7539" y2="543.8324">
					<stop  offset="0" style="stop-color:#4F52FF"/>
					<stop  offset="1" style="stop-color:#4042E2"/>
				</linearGradient>
				<path class="st28" d="M2384.12,517.7l-27.24,56.01c-1.45,2.98-5.04,4.22-8.02,2.77l-8.76-4.26c-2.98-1.45-4.22-5.04-2.77-8.02
					l27.24-56.01c1.45-2.98,5.04-4.22,8.02-2.77l8.76,4.26C2384.33,511.13,2385.57,514.72,2384.12,517.7z"/>
				<linearGradient id="SVGID_21_" gradientUnits="userSpaceOnUse" x1="2352.3208" y1="549.1693" x2="2479.8208" y2="612.1693">
					<stop  offset="0" style="stop-color:#4F52FF"/>
					<stop  offset="1" style="stop-color:#4042E2"/>
				</linearGradient>
				<polygon class="st29" points="2536.88,515.3 2439.23,716.11 2303.19,649.96 2400.84,449.15 				"/>
				<linearGradient id="SVGID_22_" gradientUnits="userSpaceOnUse" x1="2266.4731" y1="759.7681" x2="2341.4731" y2="705.7682">
					<stop  offset="0" style="stop-color:#09005D"/>
					<stop  offset="1" style="stop-color:#1A0F91"/>
				</linearGradient>
				<polygon class="st30" points="2444.38,705.52 2432.1,730.77 2296.06,664.62 2308.34,639.36 				"/>
				<linearGradient id="SVGID_23_" gradientUnits="userSpaceOnUse" x1="2309.6682" y1="846.4056" x2="2353.6682" y2="727.4057">
					<stop  offset="0" style="stop-color:#4F52FF"/>
					<stop  offset="1" style="stop-color:#4042E2"/>
				</linearGradient>
				<path class="st31" d="M2437.65,719.37l-6.1,12.55c-1.87,3.84-6.24,5.76-10.33,4.55c-42.41-12.59-83.45-32.22-122.94-59.86
					c-3.46-2.42-4.64-7-2.8-10.8l6.13-12.6L2437.65,719.37z"/>
				<linearGradient id="SVGID_24_" gradientUnits="userSpaceOnUse" x1="2279.1409" y1="423.8427" x2="2323.1409" y2="535.8426">
					<stop  offset="0" style="stop-color:#09005D"/>
					<stop  offset="1" style="stop-color:#1A0F91"/>
				</linearGradient>
				<path class="st32" d="M2449.48,704.37l-1.27,2.61c-1.51,3.1-5.25,4.4-8.35,2.89l-134.58-65.44c-3.1-1.51-4.4-5.25-2.89-8.35
					l1.27-2.61c1.51-3.1,5.25-4.4,8.35-2.89l134.58,65.44C2449.69,697.53,2450.99,701.27,2449.48,704.37z"/>
				<linearGradient id="SVGID_25_" gradientUnits="userSpaceOnUse" x1="2307.564" y1="864.64" x2="2371.564" y2="682.6395">
					<stop  offset="0" style="stop-color:#4F52FF"/>
					<stop  offset="1" style="stop-color:#4042E2"/>
				</linearGradient>
				<path class="st33" d="M2448.84,705.67L2448.84,705.67c-1.37,2.81-4.76,3.98-7.57,2.62l-135.64-65.96
					c-2.81-1.37-3.98-4.76-2.62-7.57l0,0c1.37-2.81,4.76-3.98,7.57-2.62l135.64,65.96C2449.04,699.47,2450.21,702.86,2448.84,705.67
					z"/>
				
					<linearGradient id="SVGID_26_" gradientUnits="userSpaceOnUse" x1="3329.1592" y1="1061.3879" x2="3411.2195" y2="949.8059" gradientTransform="matrix(-0.4373 0.8993 0.8993 0.4373 6185.4023 -3578.8936)">
					<stop  offset="0" style="stop-color:#09005D"/>
					<stop  offset="1" style="stop-color:#1A0F91"/>
				</linearGradient>
				<polygon class="st34" points="2537.68,513.67 2549.96,488.42 2413.91,422.26 2401.63,447.52 				"/>
				<linearGradient id="SVGID_27_" gradientUnits="userSpaceOnUse" x1="2597.5063" y1="268.8072" x2="2536.5063" y2="367.8071">
					<stop  offset="0" style="stop-color:#4F52FF"/>
					<stop  offset="1" style="stop-color:#4042E2"/>
				</linearGradient>
				<path class="st35" d="M2544.41,499.82l6.1-12.55c1.87-3.84,0.68-8.46-2.8-10.93c-36.09-25.58-76.88-45.75-123-59.74
					c-4.04-1.23-8.37,0.67-10.22,4.46l-6.13,12.6L2544.41,499.82z"/>
				<linearGradient id="SVGID_28_" gradientUnits="userSpaceOnUse" x1="2444.3523" y1="304.9713" x2="2458.8523" y2="414.9716">
					<stop  offset="0" style="stop-color:#09005D"/>
					<stop  offset="1" style="stop-color:#1A0F91"/>
				</linearGradient>
				<path class="st36" d="M2539.92,518.39l1.27-2.61c1.51-3.1,0.22-6.84-2.89-8.35l-134.58-65.44c-3.1-1.51-6.84-0.22-8.35,2.89
					l-1.27,2.61c-1.51,3.1-0.22,6.84,2.89,8.35l134.58,65.44C2534.67,522.79,2538.41,521.49,2539.92,518.39z"/>
				<linearGradient id="SVGID_29_" gradientUnits="userSpaceOnUse" x1="2604.2908" y1="288.1674" x2="2515.291" y2="414.1671">
					<stop  offset="0" style="stop-color:#4F52FF"/>
					<stop  offset="1" style="stop-color:#4042E2"/>
				</linearGradient>
				<path class="st37" d="M2540.55,517.08L2540.55,517.08c1.37-2.81,0.2-6.2-2.62-7.57l-135.64-65.96c-2.81-1.37-6.2-0.2-7.57,2.62
					l0,0c-1.37,2.81-0.2,6.2,2.62,7.57l135.64,65.96C2535.79,521.07,2539.18,519.9,2540.55,517.08z"/>
			</g>
		</g>
	</g>
	<g class="st0">
		<linearGradient id="SVGID_30_" gradientUnits="userSpaceOnUse" x1="2017.6237" y1="1060.6293" x2="1293.1786" y2="160.9141">
			<stop  offset="0" style="stop-color:#DAE3FE"/>
			<stop  offset="1" style="stop-color:#E9EFFD"/>
		</linearGradient>
		<path class="st38" d="M1818.32,705.81c-16.64,17.52-32.38,28.82-44.82,37.74c-146.23,104.92-319.25,74.34-356.02,66.87
			c-54.3-11.03-159.26-32.35-235.15-121.59c-114.81-135.01-96.93-347.73-7.88-488.14c16.29-25.68,102.34-168.24,277.22-191.1
			c105.84-13.84,229.22,14.07,318.56,88.92C1957.77,255.64,1944.42,573.06,1818.32,705.81z"/>
		<g class="st2">
			<g>
				<path class="st5" d="M1703.15,332.69c0.29,33.26-2.55,77.56-7.49,116l-5.56,0.58c6.74-46.46,10.82-109.56,0.28-180.71
					c-10.63-71.75-37.39-157.42-8.83-202.65c23.77-37.64,139.47-54.94,177.62-59.69c4.77-0.59,8.07,4.62,5.49,8.67
					c-12.73,19.96-38.98,65.86-37.77,103.43c1.59,49.52-32.59,92.07-68.88,112.08C1721.73,250.42,1702.56,264.79,1703.15,332.69z"/>
				<path class="st6" d="M1814.53,41.58c-22.89,8.42-44.01,21.46-61.94,38.17c-8.99,8.33-16.92,17.85-23.54,28.24
					c-6.53,10.44-11.75,21.79-14.94,33.73l-1.18,4.48c-0.38,1.5-0.63,3.02-0.94,4.53c-0.28,1.51-0.62,3.04-0.85,4.54l-0.71,4.49
					c-0.96,5.98-1.88,11.97-2.75,17.97c-1.75,11.99-3.31,24.01-4.68,36.05c-2.75,24.08-4.76,48.25-5.29,72.53
					c-0.01,0.58,0.45,1.06,1.03,1.08c0.56,0.01,1.03-0.42,1.07-0.97l0-0.03c0.92-12.02,2.06-24.06,3.44-36.06
					c1.32-12.01,2.79-24,4.38-35.97l2.45-17.95l2.66-17.92c0.88-5.97,1.82-11.94,2.79-17.9l0.72-4.47c0.24-1.49,0.56-2.92,0.84-4.38
					c0.3-1.45,0.52-2.92,0.88-4.35l1.11-4.3c2.98-11.48,8-22.34,14.11-32.5c3.17-5.02,6.52-9.95,10.32-14.53l1.39-1.74l1.46-1.69
					c0.98-1.12,1.93-2.27,2.93-3.37c2.04-2.18,4.05-4.38,6.21-6.45c8.47-8.43,17.97-15.83,27.94-22.48
					c9.98-6.64,20.6-12.48,31.64-17.14l0.05-0.02c0.43-0.18,0.63-0.68,0.45-1.11C1815.43,41.63,1814.95,41.42,1814.53,41.58z"/>
			</g>
			<g>
				<path class="st6" d="M1706.7,377.4c-16.84,31.26-12.59,47.32-11.76,61.22c0.15,2.47,0.37,5.95,0.52,10.08l-5.43,0.57
					c0.52-5.75,0.72-11.5,0.42-17.1c-2.04-38.4-0.21-104.51,28.67-146.94c28.88-42.43,64.59-49.75,113.74-19.02
					c40.96,25.61,66.14,38.06,80.29,39.39c3.5,0.33,5.66,4.02,4.31,7.27c-7.18,17.29-28.4,57.51-70.87,59.25
					C1792.41,374.35,1723.54,346.15,1706.7,377.4z"/>
				<linearGradient id="SVGID_31_" gradientUnits="userSpaceOnUse" x1="1691.7168" y1="342.5006" x2="1822.6837" y2="342.5006">
					<stop  offset="0" style="stop-color:#DAE3FE"/>
					<stop  offset="1" style="stop-color:#E9EFFD"/>
				</linearGradient>
				<path class="st39" d="M1822.35,314.79c-3.27-2.52-6.69-4.75-10.2-6.88c-3.51-2.12-7.11-4.11-10.82-5.88
					c-7.41-3.57-15.21-6.47-23.38-8.17c-4.08-0.84-8.26-1.37-12.48-1.47c-4.22-0.07-8.48,0.3-12.65,1.27
					c-1.03,0.28-2.08,0.49-3.1,0.83c-1.01,0.35-2.06,0.66-3.03,1.05l-5.74,2.46l-5.57,2.86l-5.35,3.29
					c-6.97,4.65-13.1,10.6-18.01,17.37c-4.95,6.75-8.59,14.32-11.43,22.06l-1.06,2.91c-0.37,0.96-0.6,1.97-0.91,2.95
					c-0.57,1.98-1.2,3.94-1.71,5.93l-1.39,6c-0.51,1.99-0.75,4.03-1.12,6.04c-1.44,8.06-2.16,16.21-2.67,24.34
					c-0.03,0.45,0.32,0.84,0.77,0.87c0.43,0.03,0.81-0.29,0.87-0.71l0-0.03c1.08-8.03,2.09-16.06,3.9-23.92
					c0.78-3.96,1.9-7.82,2.9-11.71c0.56-1.93,1.23-3.82,1.84-5.72c0.33-0.95,0.58-1.92,0.97-2.84l1.11-2.78
					c2.94-7.42,6.71-14.48,11.43-20.8c4.73-6.32,10.55-11.74,17.09-16.1l5.05-3.07l5.28-2.68l5.47-2.31
					c0.91-0.36,1.81-0.64,2.72-0.96c0.9-0.31,1.85-0.5,2.77-0.76c3.74-0.89,7.62-1.27,11.52-1.23c3.9,0.01,7.82,0.42,11.71,1.13
					c7.78,1.41,15.4,3.94,22.8,7.03c3.69,1.58,7.35,3.24,10.93,5.08c3.57,1.85,7.11,3.82,10.51,5.93l0.02,0.01
					c0.4,0.25,0.93,0.13,1.18-0.28C1822.79,315.54,1822.69,315.05,1822.35,314.79z"/>
			</g>
		</g>
		<g class="st2">
			<linearGradient id="SVGID_32_" gradientUnits="userSpaceOnUse" x1="1093.1583" y1="534.2658" x2="1841.2542" y2="534.2658">
				<stop  offset="0" style="stop-color:#09005D"/>
				<stop  offset="1" style="stop-color:#1A0F91"/>
			</linearGradient>
			<path class="st40" d="M1093.16,350.62v343.89c0,28.29,21.75,51.42,49.04,52.15c121.19,3.24,545.05,11.09,660.42,9.33
				c19.83-0.3,35.89-16.75,36.46-37.29c2.22-79.89,5.84-272-7.53-361.19c-2.82-18.78-18.11-32.83-36.44-33.44
				c-101.54-3.37-550.86-14.06-666.17-11.37C1109.04,313.17,1093.16,330.01,1093.16,350.62z"/>
			<linearGradient id="SVGID_33_" gradientUnits="userSpaceOnUse" x1="1593.6628" y1="369.9339" x2="954.0185" y2="1102.671">
				<stop  offset="0" style="stop-color:#FF928E"/>
				<stop  offset="1" style="stop-color:#FE7062"/>
			</linearGradient>
			<path class="st41" d="M1113.98,348.95v326.72c0,16.52,12.79,29.98,28.73,30.22l643.31,8.24c15.8,0.24,28.75-12.93,28.81-29.3
				l1.08-323.8c0.04-11.71-8.96-21.3-20.25-21.59l-658.63-13.79C1124.38,325.33,1113.98,335.85,1113.98,348.95z"/>
			<linearGradient id="SVGID_34_" gradientUnits="userSpaceOnUse" x1="1728.7222" y1="-315.308" x2="1626.7219" y2="-47.3079">
				<stop  offset="0" style="stop-color:#E1473D"/>
				<stop  offset="1" style="stop-color:#E9605A"/>
			</linearGradient>
			<path class="st42" d="M1114.33,392.13l701.76,16.46V363.5c0-14.03-11.24-25.47-25.26-25.72l-651.74-11.69
				c-13.77-0.25-25.05,10.89-24.97,24.66L1114.33,392.13z"/>
			<g>
				
					<ellipse transform="matrix(0.7071 -0.7071 0.7071 0.7071 84.9063 913.223)" class="st12" cx="1144.81" cy="354.12" rx="8.81" ry="8.81"/>
				
					<ellipse transform="matrix(0.7071 -0.7071 0.7071 0.7071 93.2236 933.3026)" class="st12" cx="1173.21" cy="354.12" rx="8.81" ry="8.81"/>
				
					<ellipse transform="matrix(0.1602 -0.9871 0.9871 0.1602 656.249 1479.5696)" class="st12" cx="1197.64" cy="354.12" rx="8.81" ry="8.82"/>
			</g>
		</g>
		<g class="st2">
			<linearGradient id="SVGID_35_" gradientUnits="userSpaceOnUse" x1="1209.0237" y1="440.136" x2="1711.6819" y2="440.136">
				<stop  offset="0" style="stop-color:#4F52FF"/>
				<stop  offset="1" style="stop-color:#4042E2"/>
			</linearGradient>
			<path class="st43" d="M1669.53,712.97h-460.5c70.68-208.52,81.45-389.12,5.44-535.52c-2.39-4.6,0.91-10.14,6.02-10.14h436.39
				c7.77,0,14.69,4.91,17.48,12.3C1731.86,332.12,1717.1,515.27,1669.53,712.97z"/>
			<path class="st6" d="M1661.89,714.13l-443.12-1.47c67.46-206.53,77.42-385.39,5.27-530.33c-2.28-4.58,0.88-10.05,5.83-10.05
				h423.08c7.53,0,14.25,4.86,16.95,12.18C1725.65,335.51,1708.01,518.35,1661.89,714.13z"/>
			<g>
				<path class="st14" d="M1635.14,250.3h-337.08c-3.75,0-7.1-2.37-8.39-5.93l-11.41-31.61c-1.33-3.69,1.37-7.59,5.27-7.59h341.71
					c3.01,0,5.62,2.07,6.34,5.02l8.31,34C1640.66,247.29,1638.32,250.3,1635.14,250.3z"/>
				<path class="st14" d="M1665.75,300.78h-378.06c-2.01,0-3.76-1.39-4.24-3.37l-2.43-10.2c-0.42-1.76,0.9-3.46,2.7-3.46h379.94
					c1.77,0,3.27,1.31,3.53,3.07l1.55,10.45C1669.01,299.12,1667.6,300.78,1665.75,300.78z"/>
				<path class="st14" d="M1669.7,334.83h-375.74c-2.36,0-4.37-1.72-4.77-4.07l-1.42-8.5c-0.39-2.33,1.39-4.46,3.73-4.46h376.28
					c1.75,0,3.22,1.32,3.43,3.07l1.29,10.74C1672.72,333.32,1671.4,334.83,1669.7,334.83z"/>
				<path class="st14" d="M1675.31,390.33c0.02,0.99-0.78,1.81-1.76,1.81l-375.07-0.56c-2.66,0-4.82-2.18-4.82-4.87V378
					c0-1.91,1.53-3.45,3.42-3.45h374.33c2.02,0,3.67,1.64,3.71,3.68L1675.31,390.33z"/>
				<path class="st14" d="M1671.43,425.62H1295.5v-11.95c0-2.8,2.25-5.08,5.03-5.08h371.19c1.96,0,3.53,1.63,3.49,3.6l-0.22,9.91
					C1674.95,424.06,1673.37,425.62,1671.43,425.62z"/>
				<path class="st14" d="M1669.62,461.32H1295.5V444.3h375.87c1.51,0,2.71,1.28,2.62,2.8l-0.62,10.66
					C1673.25,459.76,1671.61,461.32,1669.62,461.32z"/>
				<path class="st14" d="M1667.42,495.64h-377.55v-17.02h378.58c1.85,0,3.32,1.58,3.21,3.45l-0.6,10.11
					C1670.95,494.12,1669.35,495.64,1667.42,495.64z"/>
				<path class="st14" d="M1660.49,545.92h-381.4v-17.02h383.31c2.29,0,4.06,2.03,3.76,4.32l-1.11,8.64
					C1664.77,544.18,1662.81,545.92,1660.49,545.92z"/>
				<path class="st14" d="M1656.63,579.96h-377.54v-17.02h380.62c1.3,0,2.31,1.15,2.15,2.46l-1.37,11.11
					C1660.26,578.48,1658.6,579.96,1656.63,579.96z"/>
				<path class="st14" d="M1641.88,639.5h-370.65v-17.02h374.58c1.53,0,2.69,1.39,2.43,2.92l-1.74,10.18
					C1646.11,637.84,1644.16,639.5,1641.88,639.5z"/>
				<path class="st14" d="M1633.83,673.82h-370.48v-17.02h373.61c1.82,0,3.19,1.67,2.85,3.48l-1.91,10.14
					C1637.54,672.39,1635.83,673.82,1633.83,673.82z"/>
			</g>
		</g>
		<g class="st2">
			<linearGradient id="SVGID_36_" gradientUnits="userSpaceOnUse" x1="1468.4856" y1="336.3279" x2="1174.4849" y2="758.3282">
				<stop  offset="0" style="stop-color:#4F52FF"/>
				<stop  offset="1" style="stop-color:#4042E2"/>
			</linearGradient>
			<path class="st44" d="M1505.96,491.83c-0.87-13.44-8.99-25.35-21.15-31.13l-157.64-74.87c-10.1-4.79-21.81-4.79-31.91,0
				L1137.6,460.7c-12.17,5.78-20.29,17.69-21.16,31.13c-14.79,228.57,131.77,311.85,179.81,332.89c9.53,4.17,20.35,4.17,29.88,0
				C1374.19,803.68,1520.74,720.4,1505.96,491.83z"/>
			<path class="st6" d="M1263.52,417.63c-0.94,0-1.83-0.53-2.26-1.43c-0.59-1.25-0.06-2.74,1.19-3.33l37.25-17.69
				c1.25-0.6,2.74-0.06,3.33,1.19c0.59,1.25,0.06,2.74-1.19,3.33l-37.25,17.69C1264.24,417.55,1263.88,417.63,1263.52,417.63z"/>
			<path class="st6" d="M1128.5,541c-1.34,0-2.45-1.06-2.5-2.42c-0.5-14.87-0.24-30.38,0.78-46.09c0.63-9.67,6.47-18.27,15.26-22.44
				l106.05-50.37c1.25-0.59,2.74-0.06,3.33,1.19c0.59,1.25,0.06,2.74-1.19,3.33l-106.05,50.37c-7.15,3.4-11.91,10.39-12.42,18.25
				c-1.01,15.55-1.26,30.9-0.77,45.6c0.05,1.38-1.04,2.54-2.42,2.58C1128.56,541,1128.53,541,1128.5,541z"/>
			<path class="st5" d="M1467.83,500.75c-0.17-3.41-2.2-6.45-5.29-7.91l-147.37-69.99c-2.52-1.2-5.44-1.2-7.95,0l-147.37,69.99
				c-3.08,1.46-5.11,4.51-5.29,7.91c-4.36,85.26,15.34,156.41,58.58,211.55c32.97,42.04,71.53,64.57,94.13,75.08
				c2.49,1.16,5.35,1.16,7.84,0c22.6-10.51,61.16-33.04,94.13-75.08C1452.5,657.15,1472.19,586.01,1467.83,500.75z"/>
			<g>
				<linearGradient id="SVGID_37_" gradientUnits="userSpaceOnUse" x1="1626.4104" y1="208.0309" x2="1507.9169" y2="337.024">
					<stop  offset="0" style="stop-color:#FF928E"/>
					<stop  offset="1" style="stop-color:#FE7062"/>
				</linearGradient>
				<path class="st45" d="M1267.63,592.35h-14.69v-58.53c0-22.99,17.21-42.42,40.03-45.19l30.03-3.65
					c12.93-1.57,25.93,2.48,35.68,11.11c9.75,8.63,15.34,21.05,15.34,34.08v51.1h-14.69v-51.1c0-8.82-3.79-17.23-10.39-23.08
					c-6.6-5.85-15.41-8.59-24.17-7.53l-30.03,3.65c-15.46,1.88-27.12,15.04-27.12,30.61V592.35z"/>
				<linearGradient id="SVGID_38_" gradientUnits="userSpaceOnUse" x1="1669.787" y1="247.8766" x2="1551.293" y2="376.8702">
					<stop  offset="0" style="stop-color:#FF928E"/>
					<stop  offset="1" style="stop-color:#FE7062"/>
				</linearGradient>
				<path class="st46" d="M1248.6,579.21l128.75-7.13c5.23-0.29,9.63,3.87,9.63,9.11v102c0,5.04-4.08,9.12-9.12,9.12H1252.2
					c-4.92,0-8.96-3.91-9.12-8.83l-3.09-94.87C1239.82,583.67,1243.65,579.49,1248.6,579.21z"/>
				<linearGradient id="SVGID_39_" gradientUnits="userSpaceOnUse" x1="1324.7855" y1="620.7537" x2="1152.7859" y2="912.7535">
					<stop  offset="0" style="stop-color:#E1473D"/>
					<stop  offset="1" style="stop-color:#E9605A"/>
				</linearGradient>
				<path class="st47" d="M1334.47,663.09l-7.79-22.4c-0.94-2.69-0.3-5.71,1.7-7.74c3.99-4.05,6.37-9.69,6.09-15.89
					c-0.5-10.93-9.42-19.79-20.36-20.21c-12.1-0.46-22.05,9.2-22.05,21.2c0,6.65,3.06,12.59,7.86,16.48
					c2.49,2.02,3.51,5.33,2.46,8.36l-7.03,20.2c-1.71,4.91,1.94,10.04,7.14,10.04h24.84
					C1332.53,673.14,1336.18,668.01,1334.47,663.09z"/>
			</g>
		</g>
	</g>
	<g>
		<linearGradient id="SVGID_40_" gradientUnits="userSpaceOnUse" x1="904.7276" y1="1020.2885" x2="203.7529" y2="149.7219">
			<stop  offset="0" style="stop-color:#DAE3FE"/>
			<stop  offset="1" style="stop-color:#E9EFFD"/>
		</linearGradient>
		<path class="st48" d="M711.89,676.97c-16.1,16.95-31.34,27.88-43.37,36.52c-141.49,101.52-308.91,71.93-344.49,64.7
			c-52.54-10.67-154.11-31.3-227.53-117.65C-14.6,529.9,2.7,324.08,88.87,188.21c15.76-24.85,99.02-162.79,268.24-184.91
			C459.52-10.08,578.9,16.92,665.35,89.35C846.82,241.38,833.9,548.52,711.89,676.97z"/>
		<g>
			<linearGradient id="SVGID_41_" gradientUnits="userSpaceOnUse" x1="907.9512" y1="314.2784" x2="728.5999" y2="457.1991">
				<stop  offset="0" style="stop-color:#4F52FF"/>
				<stop  offset="1" style="stop-color:#4042E2"/>
			</linearGradient>
			<path class="st49" d="M735.38,463.38c2.11,2.06,60.03-3.23,84.36,3.12c0,0,18.86-103.84-35.29-107.92
				c-54.15-4.08-72.93,38.09-72.93,38.09L735.38,463.38z"/>
			<path class="st5" d="M657.9,353.69l134.09,4.89c0,0-48.86,0.67-43.45,62.47c5.41,61.8,32.95,242.25-36.98,242.43
				c-69.93,0.18-71.05-31.76-71.05-31.76L657.9,353.69z"/>
			<linearGradient id="SVGID_42_" gradientUnits="userSpaceOnUse" x1="889.0742" y1="318.1796" x2="635.968" y2="521.5121">
				<stop  offset="0" style="stop-color:#4F52FF"/>
				<stop  offset="1" style="stop-color:#4042E2"/>
			</linearGradient>
			<path class="st50" d="M611.97,324.69l51.83-12.07c0,0,34.66-3.12,39.34,27.69c4.69,30.8,3.33,213.3,1.86,250.93
				c-1.47,37.64,2.06,66.58,23.24,72.23l-154.09,2.67L611.97,324.69z"/>
			<g>
				<linearGradient id="SVGID_43_" gradientUnits="userSpaceOnUse" x1="524.9785" y1="547.9128" x2="641.4335" y2="547.9128">
					<stop  offset="0" style="stop-color:#FEBBBA"/>
					<stop  offset="1" style="stop-color:#FF928E"/>
				</linearGradient>
				<path class="st51" d="M592.98,669.62c0,0,9.32-130.74,69.97-232.06c11.14-18.61,39.33-13.27,42.84,8.13
					C715.98,507.95,712.32,613.01,592.98,669.62z"/>
				<linearGradient id="SVGID_44_" gradientUnits="userSpaceOnUse" x1="720.0299" y1="394.8761" x2="892.0297" y2="2.8767">
					<stop  offset="0" style="stop-color:#FEBBBA"/>
					<stop  offset="1" style="stop-color:#FF928E"/>
				</linearGradient>
				<path class="st52" d="M686.74,447.4c-0.72,9.83-2.14,19.52-3.79,29.2c-1.7,9.66-3.71,19.28-6.06,28.81
					c-4.7,19.07-10.58,37.87-17.82,56.16c-3.65,9.13-7.51,18.19-11.84,27.03c-2.1,4.45-4.44,8.78-6.69,13.16
					c-2.38,4.31-4.71,8.64-7.29,12.84c-10,16.95-21.71,32.92-35.08,47.3c-0.4,0.43-1.07,0.45-1.5,0.05
					c-0.4-0.38-0.45-0.99-0.12-1.42l0.01-0.01c11.9-15.42,22.62-31.63,31.91-48.65c2.4-4.21,4.53-8.57,6.81-12.84
					c2.12-4.36,4.34-8.67,6.31-13.1c0.99-2.21,2.07-4.38,3.03-6.61l2.93-6.66c0.96-2.23,1.86-4.48,2.79-6.71
					c0.94-2.23,1.83-4.49,2.7-6.75c1.81-4.5,3.49-9.05,5.18-13.6c1.62-4.57,3.23-9.15,4.74-13.76c3.12-9.19,5.89-18.5,8.56-27.84
					c2.62-9.36,5.05-18.77,7.24-28.25c2.23-9.46,4.21-19.02,5.89-28.58l0.01-0.03c0.1-0.58,0.65-0.96,1.23-0.86
					C686.4,446.38,686.78,446.87,686.74,447.4z"/>
			</g>
			<g>
				<linearGradient id="SVGID_45_" gradientUnits="userSpaceOnUse" x1="618.2732" y1="585.1492" x2="766.7134" y2="585.1492">
					<stop  offset="0" style="stop-color:#FEBBBA"/>
					<stop  offset="1" style="stop-color:#FF928E"/>
				</linearGradient>
				<path class="st53" d="M618.27,656.14c0,0,64.29-132.94,145.92-141.97c1.45-0.16,2.68,1.06,2.5,2.52
					C764.64,533.5,747.75,622.16,618.27,656.14z"/>
				<linearGradient id="SVGID_46_" gradientUnits="userSpaceOnUse" x1="691.6254" y1="539.1224" x2="753.6251" y2="73.1225">
					<stop  offset="0" style="stop-color:#FEBBBA"/>
					<stop  offset="1" style="stop-color:#FF928E"/>
				</linearGradient>
				<path class="st54" d="M748.62,535.73c-4.51,5.63-9.18,11.08-13.93,16.48c-2.4,2.67-4.81,5.34-7.24,7.99
					c-2.46,2.62-4.88,5.27-7.37,7.87c-9.92,10.4-20.2,20.46-30.81,30.16c-5.26,4.9-10.74,9.56-16.13,14.31l-8.29,6.9
					c-1.38,1.15-2.76,2.31-4.16,3.43l-4.25,3.32c-11.2,9.02-23,17.27-34.91,25.31c-0.42,0.28-0.98,0.17-1.26-0.24
					c-0.28-0.41-0.17-0.96,0.23-1.25l0.02-0.02l8.76-6.21l4.38-3.1c1.45-1.06,2.86-2.16,4.29-3.23l8.58-6.46
					c2.82-2.2,5.6-4.46,8.4-6.69l4.2-3.35l4.12-3.45l8.23-6.9c5.36-4.75,10.8-9.4,16.02-14.3c5.3-4.81,10.47-9.77,15.64-14.73
					l7.64-7.55l7.53-7.66c2.51-2.56,4.95-5.18,7.43-7.76c2.45-2.61,4.87-5.25,7.3-7.88c4.82-5.29,9.6-10.64,14.17-16.13l0.01-0.01
					c0.32-0.39,0.89-0.44,1.28-0.12C748.87,534.78,748.92,535.34,748.62,535.73z"/>
			</g>
			<path class="st5" d="M506.59,327.2c0,0,94.38,5.19,157.21-14.57c0,0-41.77-2.86-41.77,93.57c0,73.73,10.93,214.45,1.39,241.16
				c-9.55,26.71-45.24,62.62-96.42,31.76C475.83,648.26,506.59,327.2,506.59,327.2z"/>
			<path class="st5" d="M501.48,85.19c0,0,122.07,19.69,138.95-0.31c0,0-10.66-38.09-48.14-37.52
				C554.81,47.93,501.48,85.19,501.48,85.19z"/>
			
				<linearGradient id="SVGID_47_" gradientUnits="userSpaceOnUse" x1="655.1602" y1="148.6545" x2="17.1843" y2="965.0678" gradientTransform="matrix(0.9987 0.0513 -0.0513 0.9987 -106.6219 -32.971)">
				<stop  offset="0" style="stop-color:#4F52FF"/>
				<stop  offset="1" style="stop-color:#4042E2"/>
			</linearGradient>
			<path class="st55" d="M166.56,36.99c-37.86,0.4-67.92,31.98-66.5,69.82c4.52,120.85,13.94,376.47,17.35,500.92
				c0.76,27.75,21.79,50.71,49.36,53.91c98.21,11.39,319.35,35.05,405.03,28.01l0,0c-19-10.61-30.25-31.16-28.96-52.89l33.1-555.99
				c1.17-19.65,21.47-32.76,39.52-24.92c11.37,4.94,19.68,14.65,24.98,29.03c-6.83-23.83-18.59-41.61-48.14-37.52
				C592.29,47.36,305.91,35.51,166.56,36.99z"/>
			<path class="st5" d="M111.97,108.27c3.35-31.54,30.12-55.36,61.83-54.95l385.38,4.95c-21.9,116.63-27.49,356.13-33.55,592.15
				c-0.36,13.99,7.19,26.99,19.52,33.61c0,0-256.69-10.22-366.52-23.71c-25.86-3.17-46.02-23.9-48.56-49.83
				c-4.93-50.41-6.53-140.31-11.65-234.95C113.21,279.12,104.59,177.78,111.97,108.27z"/>
			<g>
				<linearGradient id="SVGID_48_" gradientUnits="userSpaceOnUse" x1="148.4197" y1="164.467" x2="496.9958" y2="164.467">
					<stop  offset="0" style="stop-color:#DAE3FE"/>
					<stop  offset="1" style="stop-color:#E9EFFD"/>
				</linearGradient>
				<path class="st56" d="M160.59,151c55.85,1.57,270.26,7.36,324.41,8.82c6.83,0.18,12.26,4.57,11.99,9.67l0,0
					c-0.25,4.86-5.59,8.59-12.09,8.44l-324.26-7.64c-6.25-0.15-11.46-3.84-12.02-8.51l-0.14-1.18
					C147.82,155.26,153.44,150.8,160.59,151z"/>
				<linearGradient id="SVGID_49_" gradientUnits="userSpaceOnUse" x1="152.5962" y1="205.6697" x2="386.9026" y2="205.6697">
					<stop  offset="0" style="stop-color:#DAE3FE"/>
					<stop  offset="1" style="stop-color:#E9EFFD"/>
				</linearGradient>
				<path class="st57" d="M154.16,207.62L154.16,207.62c0.89,1.24,2.58,2.04,4.43,2.11l222.52,7.81c2.8,0.1,5.12-1.49,5.22-3.59
					l0.56-10.97c0.11-2.18-2.22-4.05-5.13-4.12l-216.45-5.06C155.68,193.58,149.55,201.17,154.16,207.62z"/>
			</g>
			<g>
				<linearGradient id="SVGID_50_" gradientUnits="userSpaceOnUse" x1="142.9484" y1="263.681" x2="491.5245" y2="263.681">
					<stop  offset="0" style="stop-color:#DAE3FE"/>
					<stop  offset="1" style="stop-color:#E9EFFD"/>
				</linearGradient>
				<path class="st58" d="M155.11,250.22c55.85,1.57,270.26,7.36,324.41,8.82c6.83,0.18,12.26,4.57,11.99,9.67l0,0
					c-0.25,4.86-5.59,8.59-12.09,8.44l-324.26-7.64c-6.25-0.15-11.46-3.84-12.02-8.51l-0.14-1.18
					C142.35,254.47,147.97,250.02,155.11,250.22z"/>
				<linearGradient id="SVGID_51_" gradientUnits="userSpaceOnUse" x1="147.1248" y1="304.8837" x2="381.4313" y2="304.8837">
					<stop  offset="0" style="stop-color:#DAE3FE"/>
					<stop  offset="1" style="stop-color:#E9EFFD"/>
				</linearGradient>
				<path class="st59" d="M148.69,306.83L148.69,306.83c0.89,1.24,2.58,2.04,4.43,2.11l222.52,7.81c2.8,0.1,5.12-1.49,5.22-3.59
					l0.56-10.97c0.11-2.18-2.22-4.05-5.13-4.12l-216.45-5.06C150.21,292.8,144.08,300.39,148.69,306.83z"/>
			</g>
			<path class="st60" d="M193.8,550.88c1.9-24.25,10.12-48.03,23.04-68.89c6.49-10.42,14.11-20.17,22.85-28.87
				c2.24-2.12,4.42-4.29,6.72-6.35c2.36-1.99,4.66-4.04,7.08-5.97c2.47-1.85,4.91-3.75,7.45-5.51l3.87-2.55l1.94-1.28l0.97-0.64
				c0.35-0.22,0.82-0.5,1.24-0.72c6.8-3.76,16.57-3.93,23.16,2.69c1.61,1.59,2.72,3.5,3.56,5.38c0.38,0.95,0.75,1.9,0.97,2.83
				c0.28,0.95,0.44,1.86,0.59,2.78c0.58,3.67,0.41,7.09,0.07,10.39c-0.17,1.65-0.44,3.26-0.73,4.84l-0.88,4.45
				c-0.57,2.97-1.23,5.92-1.88,8.87c-1.3,5.9-2.78,11.77-4.33,17.61c-6.31,23.34-14.67,46.13-25.01,67.99l-3.96,8.15
				c-1.39,2.69-2.74,5.39-4.15,8.06l-2.15,3.99l-1.07,2l-1.18,2.08c-1.64,2.77-3.46,5.46-5.59,8.02c-2.14,2.55-4.55,5-7.56,7.06
				c-2.98,2.04-6.75,3.69-10.92,3.89c-1.03,0.11-2.07,0-3.1-0.11c-1.05-0.06-2-0.39-3-0.63c-1.97-0.53-3.84-1.49-5.48-2.65
				c-3.31-2.35-5.68-5.59-7.16-9.09c-1.42-3.46-2.04-7.07-2.07-10.57c-0.04-3.51,0.48-6.85,1.2-10c0.74-3.16,1.65-6.12,2.66-9.01
				l1.49-4.37l1.67-4.3c4.49-11.45,10.42-22.27,17.36-32.37c6.91-10.13,15.07-19.36,24.05-27.67l1.68-1.56l1.75-1.49l3.5-2.96
				c1.19-0.96,2.42-1.87,3.63-2.81c1.22-0.93,2.4-1.89,3.68-2.74c2.51-1.75,4.99-3.54,7.61-5.12l1.94-1.22l0.97-0.61
				c0.17-0.11,0.3-0.19,0.51-0.31l0.64-0.36c1.72-0.91,3.61-1.51,5.56-1.72c3.88-0.46,8.07,0.7,11.08,3.45
				c1.55,1.37,2.8,3.33,3.37,5.35c0.6,2.03,0.58,3.98,0.4,5.73c-0.19,1.76-0.56,3.38-0.97,4.9l-1.21,4.35l-2.42,8.62
				c-3.2,11.49-6.53,22.96-9.79,34.43l-0.01,0.03l-5.04-0.9c0.38-3.86,1.42-7.76,3.55-11.27c1.09-1.74,2.41-3.35,4.08-4.69
				c1.67-1.36,3.6-2.32,5.64-2.92c2.05-0.57,4.24-0.78,6.43-0.42c1.09,0.18,2.18,0.48,3.21,0.97c0.52,0.22,1.01,0.52,1.5,0.81
				l1.02,0.64c2.47,1.39,5.54,1.65,8.07,0.53c0.64-0.26,1.23-0.62,1.78-1.02c0.26-0.22,0.55-0.42,0.78-0.67l0.38-0.37l0.46-0.49
				l3.67-3.92l7.34-7.83l7.34-7.83l3.67-3.92c0.9-0.95,2.2-1.79,3.64-2.07c1.44-0.31,2.93-0.1,4.2,0.48
				c1.27,0.58,2.38,1.52,3.13,2.75c0.75,1.23,1.08,2.77,0.91,4.18c-0.02,0.36-0.1,0.7-0.19,1.03c-0.08,0.31-0.2,0.72-0.26,0.87
				l-0.44,1.24l-0.83,2.49c-1.08,3.33-1.99,6.71-2.75,10.12c-0.76,3.42-1.35,6.87-1.79,10.34c-0.05,0.43-0.11,0.88-0.15,1.29
				l-0.03,1.06c-0.04,0.36,0.02,0.7,0.07,1.04c0.07,0.34,0.04,0.7,0.17,1.02c0.29,1.35,1.01,2.56,1.89,3.61
				c0.88,1.07,2.1,1.86,3.39,2.4c0.64,0.31,1.33,0.43,2.01,0.61c0.69,0.06,1.39,0.17,2.08,0.08c1.37-0.11,2.73-0.46,3.89-1.24
				l0.45-0.26l0.41-0.34l0.83-0.68l1.9-1.86c5.05-4.96,9.89-10.14,14.47-15.54c9.16-10.8,17.36-22.42,24.45-34.67l2.6-4.63
				l1.26-2.34l0.63-1.17l0.16-0.29c0.01-0.03-0.01-0.02,0-0.02c0.02-0.01-0.02,0.03-0.01,0.06c-0.01,0.2,0.08,0.24,0.06,0.22
				c0,0,0.04,0.03,0.12,0.02c0.08-0.02,0.18-0.04,0.18-0.05c0,0,0,0-0.01,0l-0.23,0.23l-0.45,0.46c-0.3,0.3-0.6,0.62-0.89,0.93
				c-0.59,0.62-1.16,1.27-1.73,1.91c-2.24,2.6-4.28,5.39-6.08,8.32c-0.9,1.47-1.74,2.97-2.53,4.5c-0.39,0.77-0.77,1.54-1.12,2.32
				l-0.53,1.18l-0.26,0.59l-0.17,0.53c-1.02,2.77-1.04,5.83,0.23,8.46c1.24,2.61,3.49,4.83,6.24,5.83c1.34,0.6,2.8,0.72,4.23,0.76
				c1.43-0.14,2.88-0.37,4.2-1.05l1.01-0.46l1.14-0.66c0.76-0.45,1.52-0.87,2.27-1.34c1.5-0.91,2.98-1.85,4.45-2.81
				c11.72-7.74,22.22-17.33,30.95-28.33l0-0.01c0.88-1.11,2.5-1.3,3.61-0.41c1.11,0.88,1.3,2.5,0.41,3.61
				c-9.08,11.43-19.98,21.39-32.14,29.42c-1.52,1-3.06,1.98-4.62,2.92c-0.77,0.49-1.57,0.93-2.35,1.39l-1.18,0.69l-1.42,0.67
				c-1.88,0.93-4.02,1.34-6.14,1.5c-2.13-0.01-4.3-0.26-6.26-1.1c-4-1.49-7.23-4.62-9.05-8.47c-1.86-3.85-1.85-8.51-0.38-12.41
				l0.26-0.74l0.28-0.64l0.57-1.27c0.39-0.84,0.8-1.68,1.21-2.51c0.85-1.65,1.76-3.27,2.73-4.86c1.94-3.17,4.14-6.18,6.57-8.99
				c0.61-0.7,1.23-1.4,1.87-2.07c0.32-0.34,0.64-0.68,0.97-1.01l0.49-0.5l0.24-0.25c0.16-0.14,0.33-0.29,0.51-0.43
				c0.71-0.54,1.67-0.96,2.65-1c0.97-0.05,1.91,0.2,2.69,0.63c1.54,0.84,2.7,2.65,2.55,4.65c-0.05,0.46-0.14,0.96-0.31,1.36
				c-0.08,0.2-0.18,0.43-0.26,0.6l-0.16,0.3l-0.64,1.2l-1.28,2.39l-2.66,4.73c-7.25,12.52-15.63,24.39-24.99,35.43
				c-4.69,5.51-9.62,10.81-14.79,15.88l-1.94,1.9l-1.24,1.03l-0.63,0.51l-0.71,0.42c-1.84,1.19-4.04,1.82-6.22,1.98
				c-1.1,0.11-2.19-0.01-3.27-0.14c-1.06-0.24-2.13-0.47-3.12-0.93c-1.99-0.84-3.86-2.07-5.27-3.76c-1.42-1.66-2.54-3.64-3.03-5.8
				c-0.18-0.53-0.18-1.08-0.27-1.62c-0.07-0.54-0.15-1.09-0.1-1.63l0.06-1.62l0.16-1.38c0.45-3.63,1.08-7.24,1.87-10.81
				c0.8-3.57,1.75-7.11,2.88-10.59l0.87-2.6l0.46-1.29c0.1-0.27,0.08-0.3,0.12-0.41c0.03-0.1,0.07-0.2,0.06-0.29
				c0.04-0.36-0.02-0.67-0.2-0.97c-0.18-0.3-0.5-0.58-0.85-0.73c-0.76-0.3-1.33-0.19-1.97,0.43l-3.67,3.92l-7.34,7.83l-7.34,7.83
				l-3.67,3.92l-0.46,0.49l-0.58,0.57c-0.38,0.39-0.82,0.73-1.25,1.07c-0.89,0.65-1.84,1.23-2.86,1.64
				c-4.07,1.77-8.86,1.34-12.61-0.79l-1.26-0.79c-0.28-0.16-0.55-0.34-0.86-0.46c-0.59-0.28-1.24-0.46-1.91-0.57
				c-1.34-0.23-2.8-0.1-4.19,0.29c-2.82,0.8-5.14,2.72-6.76,5.36c-1.61,2.63-2.5,5.81-2.81,9.05l-5.04-0.9l0.01-0.03
				c2.89-11.58,5.71-23.18,8.66-34.74l2.19-8.68l1.08-4.3c0.33-1.37,0.58-2.68,0.67-3.89c0.09-1.2,0.03-2.3-0.26-3.13
				c-0.28-0.84-0.71-1.48-1.4-2.07c-1.45-1.25-3.53-1.8-5.56-1.5c-1.02,0.13-2.01,0.49-2.91,0.99l-0.33,0.2l-0.43,0.29l-0.91,0.61
				l-1.81,1.21c-2.45,1.57-4.77,3.34-7.11,5.06c-1.19,0.84-2.29,1.79-3.43,2.7c-1.12,0.92-2.27,1.82-3.38,2.76l-3.25,2.9l-1.63,1.45
				l-1.57,1.51c-8.4,8.02-16.01,16.91-22.39,26.61c-6.41,9.67-11.86,19.99-15.91,30.84l-1.51,4.07l-1.33,4.13
				c-0.91,2.75-1.71,5.52-2.28,8.18c-1.18,5.33-1.22,10.44,0.59,14.61c0.87,1.97,2.22,3.68,3.82,4.75c0.8,0.54,1.63,0.96,2.55,1.17
				c0.93,0.24,1.83,0.38,2.74,0.29c1.8-0.1,3.74-0.86,5.66-2.18c1.91-1.32,3.74-3.15,5.41-5.19c1.67-2.04,3.2-4.31,4.57-6.69
				l1.01-1.82l1.03-1.95l2.06-3.91c1.36-2.61,2.65-5.26,3.98-7.89l3.79-7.98c9.85-21.39,17.95-43.59,24.04-66.33
				c1.49-5.69,2.92-11.4,4.17-17.15c0.62-2.88,1.26-5.75,1.8-8.64l0.85-4.33c0.24-1.36,0.46-2.69,0.59-4.01
				c0.27-2.62,0.35-5.23-0.03-7.46c-0.37-2.24-1.1-4.03-2.13-5.04c-0.48-0.57-1.13-0.93-1.86-1.31c-0.82-0.3-1.66-0.62-2.58-0.65
				c-1.81-0.16-3.81,0.26-5.59,1.22c-0.24,0.13-0.41,0.22-0.69,0.4l-0.9,0.59l-1.81,1.17l-3.62,2.35c-2.38,1.61-4.64,3.4-6.99,5.06
				c-2.29,1.75-4.47,3.63-6.72,5.43c-2.18,1.88-4.26,3.88-6.4,5.81c-8.29,8.02-15.8,16.9-22.26,26.53
				c-12.96,19.22-21.89,41.28-25.84,64.42c-0.24,1.4-1.56,2.34-2.96,2.11C194.62,553.39,193.71,552.18,193.8,550.88z"/>
			<path class="st60" d="M460.36,476.25c-0.66-0.55-1.02-1.41-0.9-2.32c0.19-1.41,1.49-2.39,2.89-2.19l29.99,4.13
				c1.4,0.19,2.39,1.49,2.19,2.89c-0.19,1.4-1.49,2.39-2.89,2.19l-29.99-4.13C461.16,476.75,460.72,476.54,460.36,476.25z"/>
			<linearGradient id="SVGID_52_" gradientUnits="userSpaceOnUse" x1="607.9131" y1="525.2957" x2="611.06" y2="525.2957">
				<stop  offset="0" style="stop-color:#DAE3FE"/>
				<stop  offset="1" style="stop-color:#E9EFFD"/>
			</linearGradient>
			<path class="st61" d="M609.78,537.69c-0.7,0-1.27-0.56-1.28-1.26c0-0.05-0.1-5.05-0.58-22.2c-0.02-0.71,0.54-1.3,1.25-1.32
				c0.7-0.04,1.3,0.54,1.32,1.25c0.48,17.17,0.58,22.18,0.58,22.23c0.01,0.71-0.55,1.29-1.26,1.31
				C609.79,537.69,609.78,537.69,609.78,537.69z"/>
			<linearGradient id="SVGID_53_" gradientUnits="userSpaceOnUse" x1="603.8325" y1="412.9394" x2="625.0299" y2="412.9394">
				<stop  offset="0" style="stop-color:#DAE3FE"/>
				<stop  offset="1" style="stop-color:#E9EFFD"/>
			</linearGradient>
			<path class="st62" d="M608.62,495.83c-0.69,0-1.26-0.55-1.28-1.24c-0.34-11.16-0.87-23.51-1.44-36.57
				c-0.76-17.65-1.55-35.9-1.96-53.49c-1.09-46.3,6.51-64.05,13.09-70.78c3.51-3.59,6.4-3.7,6.72-3.7c0.71,0,1.28,0.57,1.28,1.28
				c0,0.7-0.56,1.27-1.26,1.28c-0.32,0.02-18.92,1.78-17.26,71.85c0.42,17.56,1.2,35.8,1.96,53.44c0.56,13.07,1.1,25.42,1.44,36.6
				c0.02,0.71-0.54,1.3-1.24,1.32C608.65,495.83,608.63,495.83,608.62,495.83z"/>
			<linearGradient id="SVGID_54_" gradientUnits="userSpaceOnUse" x1="733.9225" y1="429.5725" x2="752.0816" y2="429.5725">
				<stop  offset="0" style="stop-color:#DAE3FE"/>
				<stop  offset="1" style="stop-color:#E9EFFD"/>
			</linearGradient>
			<path class="st63" d="M743.01,490.63c-0.67,0-1.24-0.53-1.28-1.21c-0.03-0.42-2.55-42.26-7.08-77.09
				c-4.67-35.89,14.88-43.42,15.72-43.73c0.66-0.24,1.4,0.1,1.65,0.77c0.24,0.67-0.1,1.4-0.76,1.64
				c-0.76,0.28-18.44,7.27-14.05,40.98c4.54,34.92,7.07,76.85,7.1,77.27c0.04,0.71-0.5,1.32-1.21,1.36
				C743.06,490.62,743.03,490.63,743.01,490.63z"/>
		</g>
		<g>
			<g>
				<g>
					<linearGradient id="SVGID_55_" gradientUnits="userSpaceOnUse" x1="141.8836" y1="825.7037" x2="181.0847" y2="825.7037">
						<stop  offset="0" style="stop-color:#4F52FF"/>
						<stop  offset="1" style="stop-color:#4042E2"/>
					</linearGradient>
					<path class="st64" d="M179.98,823.81c-6.72,0.58-18.37,1.52-27.56,1.93c-5.52,0.24-8.7-0.3-10.53-1.03
						c0,0.21,0.01,0.4,0.02,0.58c0.04,0.97,0.83,1.74,1.81,1.79c17.36,0.97,31.17,0.34,36.09,0.04c1.02-0.06,1.62-1.17,1.1-2.03
						C180.63,824.65,180.32,824.23,179.98,823.81z"/>
					<linearGradient id="SVGID_56_" gradientUnits="userSpaceOnUse" x1="141.8813" y1="818.0209" x2="179.9777" y2="818.0209">
						<stop  offset="0" style="stop-color:#09005D"/>
						<stop  offset="1" style="stop-color:#1A0F91"/>
					</linearGradient>
					<path class="st65" d="M152.42,825.74c9.19-0.4,20.84-1.35,27.56-1.93c-6.6-8.1-27.56-13.56-27.56-13.56h-5.92
						c-4.07,5.87-4.66,11.45-4.62,14.46C143.71,825.44,146.89,825.98,152.42,825.74z"/>
					<linearGradient id="SVGID_57_" gradientUnits="userSpaceOnUse" x1="145.5028" y1="807.2945" x2="156.5449" y2="807.2945">
						<stop  offset="0" style="stop-color:#FEBBBA"/>
						<stop  offset="1" style="stop-color:#FF928E"/>
					</linearGradient>
					<path class="st66" d="M145.5,800.58l0.55,10.96c0.06,1.19,0.95,2.18,2.14,2.35c1.18,0.17,2.77,0.19,4.45-0.37
						c1.03-0.34,1.8-1.21,1.99-2.28l1.91-10.67H145.5z"/>
				</g>
				<g>
					<g>
						<linearGradient id="SVGID_58_" gradientUnits="userSpaceOnUse" x1="63.733" y1="824.8583" x2="78.7556" y2="824.8583">
							<stop  offset="0" style="stop-color:#4F52FF"/>
							<stop  offset="1" style="stop-color:#4042E2"/>
						</linearGradient>
						<path class="st67" d="M68.62,825.65c-2.91-0.41-4.23-1.92-4.78-3.54c0,0.01-0.01,0.03-0.01,0.04
							c-0.43,1.71,0.56,3.47,2.55,4.32c2.4,1.02,5.02,1.19,7.06,1.11c2.19-0.09,4.19-0.99,5.3-2.44l0.02-0.02
							C76.56,826.2,73.48,826.33,68.62,825.65z"/>
						<linearGradient id="SVGID_59_" gradientUnits="userSpaceOnUse" x1="63.8424" y1="813.2914" x2="85.8924" y2="813.2914">
							<stop  offset="0" style="stop-color:#09005D"/>
							<stop  offset="1" style="stop-color:#1A0F91"/>
						</linearGradient>
						<path class="st68" d="M82.36,800.51h-4.88c-7.44-0.15-12.1,15.53-13.63,21.6c0.55,1.62,1.87,3.13,4.78,3.54
							c4.86,0.68,7.94,0.55,10.13-0.54c4.02-5.29,6.01-13.03,6.97-17.55C86.81,802.43,82.36,800.51,82.36,800.51z"/>
					</g>
					<linearGradient id="SVGID_60_" gradientUnits="userSpaceOnUse" x1="75.3036" y1="798.0893" x2="88.5001" y2="798.0893">
						<stop  offset="0" style="stop-color:#FEBBBA"/>
						<stop  offset="1" style="stop-color:#FF928E"/>
					</linearGradient>
					<path class="st69" d="M78.1,790.34l-2.71,10.78c-0.33,1.32,0.3,2.69,1.52,3.32c1.52,0.78,3.65,1.6,5.61,1.36
						c0.92-0.11,1.69-0.76,1.99-1.63l3.98-11.34L78.1,790.34z"/>
				</g>
				<linearGradient id="SVGID_61_" gradientUnits="userSpaceOnUse" x1="177.3417" y1="676.5018" x2="31.265" y2="889.3884">
					<stop  offset="0" style="stop-color:#4F52FF"/>
					<stop  offset="1" style="stop-color:#4042E2"/>
				</linearGradient>
				<path class="st70" d="M74.87,793.46c3.37,2.99,14.34,3.39,14.34,3.39c39.51-94.83,55.67-108.3,55.67-108.3
					c-5.7,35.79-0.92,115.03-0.92,115.03c6.52,2.88,14.93,0,14.93,0c0.53-58.6,9.54-109.7,20.18-149.99
					c-26.7-0.6-40.91-9.74-45.54-13.41C111.26,676.07,74.87,793.46,74.87,793.46z"/>
				<linearGradient id="SVGID_62_" gradientUnits="userSpaceOnUse" x1="74.777" y1="662.1036" x2="209.7774" y2="553.1032">
					<stop  offset="0" style="stop-color:#FF928E"/>
					<stop  offset="1" style="stop-color:#FE7062"/>
				</linearGradient>
				<path class="st71" d="M140.3,531.13c-5.05,25.21-3.24,70.34-2.05,90.92c0.33,5.79-3.7,13.81-6.97,19.28
					c-0.51,0.86-0.2,1.96,0.69,2.41c5.46,2.81,23.98,11.51,45.44,12.6c1.43,0.07,2.71-0.9,3.08-2.29
					c15.92-59.43,34.4-97.41,34.4-97.41C194.49,524.04,140.3,531.13,140.3,531.13z"/>
				<linearGradient id="SVGID_63_" gradientUnits="userSpaceOnUse" x1="119.774" y1="749.2188" x2="126.0974" y2="736.572">
					<stop  offset="0" style="stop-color:#53D8FF"/>
					<stop  offset="1" style="stop-color:#3840F7"/>
				</linearGradient>
				<path class="st72" d="M147.58,686.3c-0.22,0-0.45-0.06-0.66-0.19c-0.6-0.36-0.79-1.14-0.42-1.74c0.21-0.35,5.32-8.61,15.67-13.6
					c0.63-0.3,1.39-0.04,1.69,0.59c0.3,0.63,0.04,1.39-0.59,1.69c-9.64,4.65-14.56,12.56-14.6,12.64
					C148.42,686.08,148.01,686.3,147.58,686.3z"/>
				<g>
					<linearGradient id="SVGID_64_" gradientUnits="userSpaceOnUse" x1="135.7627" y1="605.7339" x2="88.7854" y2="647.3333">
						<stop  offset="0" style="stop-color:#FEBBBA"/>
						<stop  offset="1" style="stop-color:#FF928E"/>
					</linearGradient>
					<path class="st73" d="M108.6,603.49c1.62,11.75,6.42,24.56,16.02,38.16l3.65-2.97c0,0-4.21-17.09-1.82-36.47
						C120.53,601.05,113.54,602.24,108.6,603.49z"/>
					<linearGradient id="SVGID_65_" gradientUnits="userSpaceOnUse" x1="51.2523" y1="632.9677" x2="186.2523" y2="523.9675">
						<stop  offset="0" style="stop-color:#FF928E"/>
						<stop  offset="1" style="stop-color:#FE7062"/>
					</linearGradient>
					<path class="st74" d="M145.95,562.24l-5.65-31.11c0,0-37.72,28.83-31.7,72.36c4.94-1.25,11.93-2.44,17.85-1.28
						C128.17,588.23,133.32,573.07,145.95,562.24z"/>
				</g>
				<g>
					<linearGradient id="SVGID_66_" gradientUnits="userSpaceOnUse" x1="95.3452" y1="687.5782" x2="230.3454" y2="578.5779">
						<stop  offset="0" style="stop-color:#FF928E"/>
						<stop  offset="1" style="stop-color:#FE7062"/>
					</linearGradient>
					<path class="st75" d="M214.9,556.64L200.34,588c2.35,18.93,12.52,27.12,23.49,30.26c0.68-8.63,2.87-15.6,4.89-20.42
						C214.71,583.37,214.9,556.64,214.9,556.64z"/>
					<linearGradient id="SVGID_67_" gradientUnits="userSpaceOnUse" x1="223.8267" y1="609.6688" x2="260.8231" y2="609.6688">
						<stop  offset="0" style="stop-color:#FEBBBA"/>
						<stop  offset="1" style="stop-color:#FF928E"/>
					</linearGradient>
					<path class="st76" d="M228.72,597.83c-2.02,4.82-4.21,11.79-4.89,20.42c29.26,11.35,37-10.66,37-10.66l-5.41-0.95
						C243.21,607.92,234.68,603.99,228.72,597.83z"/>
				</g>
				<linearGradient id="SVGID_68_" gradientUnits="userSpaceOnUse" x1="187.8653" y1="510.8009" x2="187.4612" y2="579.8889">
					<stop  offset="0" style="stop-color:#FEBBBA"/>
					<stop  offset="1" style="stop-color:#FF928E"/>
				</linearGradient>
				<path class="st77" d="M201.48,517.93l-7.03,25.84c-0.79,2.9-3.93,4.46-6.72,3.35c-3.01-1.21-6.84-2.85-10.13-4.63
					c-3.51-1.9-4.61-6.42-2.39-9.74l14.61-21.79L201.48,517.93z"/>
			</g>
			<g>
				
					<linearGradient id="SVGID_69_" gradientUnits="userSpaceOnUse" x1="-125.2757" y1="2046.6854" x2="-159.284" y2="2091.6755" gradientTransform="matrix(0.9897 -0.1428 0.1428 0.9897 42.0024 -1544.0533)">
					<stop  offset="0" style="stop-color:#FEBBBA"/>
					<stop  offset="1" style="stop-color:#FF928E"/>
				</linearGradient>
				<path class="st78" d="M216.86,498.29c0.06,0.44-5.86,29.49-5.86,29.49l-16.51-3.74l1.53-28.36
					C196.01,495.68,215.79,490.86,216.86,498.29z"/>
				
					<linearGradient id="SVGID_70_" gradientUnits="userSpaceOnUse" x1="-151.2484" y1="2057.5381" x2="-110.625" y2="2057.5381" gradientTransform="matrix(0.9897 -0.1428 0.1428 0.9897 42.0024 -1544.0533)">
					<stop  offset="0" style="stop-color:#09005D"/>
					<stop  offset="1" style="stop-color:#1A0F91"/>
				</linearGradient>
				<path class="st79" d="M199.73,502l-1.97,14.87c-0.03,0.19-0.03,0.38,0,0.57c0.17,1.17,1.03,5.13,5.04,4
					c3.63-1.03,6.97-1.91,9.27-1.21c1.03,0.32,1.66,1.36,1.44,2.42c-0.54,2.64-1.86,8.56-3.8,13.53c-0.39,1.01-1.5,1.54-2.54,1.24
					c-3.13-0.91-9.68-3.02-14.55-5.96c-0.66-0.4-1.05-1.12-1.02-1.89c0.16-3.75,0.6-15.16,0.23-18.36c-0.35-3-4.03-4.8-5.63-5.45
					c-0.52-0.21-0.94-0.62-1.15-1.15c-0.74-1.86-1.76-6.16,3.65-7.92c1.13-0.37,1.73-1.59,1.33-2.71c-0.8-2.23-1.14-5.64,3.05-7.52
					c4.26-1.91,7.44,0.36,9.16,2.21c0.69,0.75,1.81,0.86,2.67,0.32c0.49-0.31,1.12-0.41,1.89,0.06c1.03,0.64,2.39,0.2,2.92-0.89
					c1.02-2.09,3.1-4.34,7.27-3.62c7.4,1.27,8.24,9.47,6.29,14.27c-1.95,4.8-9.9,2.97-13.88,0.55c-3.03-1.84-6.96,0.09-8.67,1.12
					C200.17,500.82,199.81,501.37,199.73,502z"/>
				
					<linearGradient id="SVGID_71_" gradientUnits="userSpaceOnUse" x1="-175.0844" y1="2082.314" x2="-147.8071" y2="2054.3284" gradientTransform="matrix(0.9897 -0.1428 0.1428 0.9897 42.0024 -1544.0533)">
					<stop  offset="0" style="stop-color:#FEBBBA"/>
					<stop  offset="1" style="stop-color:#FF928E"/>
				</linearGradient>
				<path class="st80" d="M191.15,516.64c0,0,3.04-8.52-0.08-10.6c-3.13-2.09-7.75-1-6.73,5.17
					C185.6,518.87,191.15,516.64,191.15,516.64z"/>
			</g>
			<linearGradient id="SVGID_72_" gradientUnits="userSpaceOnUse" x1="256.8926" y1="605.3237" x2="270.1414" y2="605.3237">
				<stop  offset="0" style="stop-color:#FEBBBA"/>
				<stop  offset="1" style="stop-color:#FF928E"/>
			</linearGradient>
			<path class="st81" d="M258.65,611.62c1.47,1.15,6.52-1.25,9.6-2.91c1.5-0.81,2.23-2.57,1.72-4.2c-0.74-2.34-1.98-5.37-3.51-5.75
				C263.94,598.13,252.59,606.88,258.65,611.62z"/>
			<g>
				<g>
					<linearGradient id="SVGID_73_" gradientUnits="userSpaceOnUse" x1="404.5365" y1="502.4998" x2="-154.2659" y2="910.1365">
						<stop  offset="0" style="stop-color:#09005D"/>
						<stop  offset="1" style="stop-color:#1A0F91"/>
					</linearGradient>
					<path class="st82" d="M10.24,682.77L395.5,545.75l20.38,56.62L30.76,743.22c-8.18,2.99-17.31-0.33-21.69-7.85
						c-4.5-7.73-8.8-19.81-9.06-37.9C-0.09,690.88,4.04,684.98,10.24,682.77z"/>
					<g>
						<linearGradient id="SVGID_74_" gradientUnits="userSpaceOnUse" x1="461.4697" y1="548.2115" x2="517.6962" y2="548.2115">
							<stop  offset="0" style="stop-color:#09005D"/>
							<stop  offset="1" style="stop-color:#1A0F91"/>
						</linearGradient>
						<path class="st83" d="M514.69,531.12l-53.22,6.53c0.06,7.32,2.45,16.8,10.57,27.67l44.44-29.32
							C518.85,534.45,517.49,530.78,514.69,531.12z"/>
						<linearGradient id="SVGID_75_" gradientUnits="userSpaceOnUse" x1="488.4801" y1="499.3151" x2="215.9543" y2="779.3903">
							<stop  offset="0" style="stop-color:#FEBBBA"/>
							<stop  offset="1" style="stop-color:#FF928E"/>
						</linearGradient>
						<path class="st84" d="M395.5,545.75c-2.44,35.48,20.38,56.62,20.38,56.62l56.16-37.05c-8.12-10.87-10.52-20.35-10.57-27.67
							L395.5,545.75z"/>
					</g>
				</g>
				<linearGradient id="SVGID_76_" gradientUnits="userSpaceOnUse" x1="322.2883" y1="507.4908" x2="76.3415" y2="760.2507">
					<stop  offset="0" style="stop-color:#4F52FF"/>
					<stop  offset="1" style="stop-color:#4042E2"/>
				</linearGradient>
				<path class="st85" d="M15.02,700.13c-0.47,0-0.9-0.29-1.07-0.76c-0.21-0.59,0.1-1.24,0.69-1.44l368.59-130.26
					c0.59-0.21,1.24,0.1,1.44,0.69c0.21,0.59-0.1,1.24-0.69,1.44L15.4,700.07C15.27,700.11,15.15,700.13,15.02,700.13z"/>
				<linearGradient id="SVGID_77_" gradientUnits="userSpaceOnUse" x1="328.6471" y1="529.703" x2="82.6998" y2="782.4634">
					<stop  offset="0" style="stop-color:#4F52FF"/>
					<stop  offset="1" style="stop-color:#4042E2"/>
				</linearGradient>
				<path class="st86" d="M21.38,722.35c-0.47,0-0.9-0.29-1.07-0.76c-0.21-0.59,0.1-1.24,0.69-1.44l368.59-130.26
					c0.59-0.21,1.24,0.1,1.44,0.69c0.21,0.59-0.1,1.24-0.69,1.44L21.76,722.28C21.63,722.33,21.5,722.35,21.38,722.35z"/>
			</g>
			<linearGradient id="SVGID_78_" gradientUnits="userSpaceOnUse" x1="154.314" y1="626.6835" x2="107.3368" y2="668.2828">
				<stop  offset="0" style="stop-color:#FEBBBA"/>
				<stop  offset="1" style="stop-color:#FF928E"/>
			</linearGradient>
			<path class="st87" d="M126.76,638.16l17.03-1.39l7.37,6.8c0,0-1.74,2.41-7.2,1.03c-5.45-1.39-12.93-1.73-12.93-1.73
				s-7.53,3.39-7.62-2.96L126.76,638.16z"/>
		</g>
	</g>
	<linearGradient id="SVGID_79_" gradientUnits="userSpaceOnUse" x1="142.9484" y1="419.2751" x2="491.5245" y2="419.2751">
		<stop  offset="0" style="stop-color:#DAE3FE"/>
		<stop  offset="1" style="stop-color:#E9EFFD"/>
	</linearGradient>
	<path class="st88" d="M155.11,405.81c55.85,1.57,270.26,7.36,324.41,8.82c6.83,0.18,12.26,4.57,11.99,9.67l0,0
		c-0.25,4.86-5.59,8.59-12.09,8.44l-324.26-7.64c-6.25-0.15-11.46-3.84-12.02-8.51l-0.14-1.18
		C142.35,410.07,147.97,405.61,155.11,405.81z"/>
	<linearGradient id="SVGID_80_" gradientUnits="userSpaceOnUse" x1="143.6698" y1="458.4086" x2="377.9763" y2="458.4086">
		<stop  offset="0" style="stop-color:#DAE3FE"/>
		<stop  offset="1" style="stop-color:#E9EFFD"/>
	</linearGradient>
	<path class="st89" d="M145.24,460.36L145.24,460.36c0.89,1.24,2.58,2.04,4.43,2.11l222.52,7.81c2.8,0.1,5.12-1.49,5.22-3.59
		l0.56-10.97c0.11-2.18-2.22-4.05-5.13-4.12l-216.45-5.06C146.75,446.32,140.62,453.91,145.24,460.36z"/>
	<linearGradient id="SVGID_81_" gradientUnits="userSpaceOnUse" x1="142.9484" y1="378.5385" x2="491.5245" y2="378.5385">
		<stop  offset="0" style="stop-color:#DAE3FE"/>
		<stop  offset="1" style="stop-color:#E9EFFD"/>
	</linearGradient>
	<path class="st90" d="M155.11,365.07c55.85,1.57,270.26,7.36,324.41,8.82c6.83,0.18,12.26,4.57,11.99,9.67l0,0
		c-0.25,4.86-5.59,8.59-12.09,8.44l-324.26-7.64c-6.25-0.15-11.46-3.84-12.02-8.51l-0.14-1.18
		C142.35,369.33,147.97,364.87,155.11,365.07z"/>
	<rect x="223.83" y="77.69" class="st91" width="239.28" height="80.15"/>
	<text id="text" transform="matrix(1 0 0 1 265.0346 130.1066)" class="st14 st92 st93">ADA</text>
</g>
</svg>
