<?xml version="1.0" encoding="utf-8"?>
<!-- Generator: Adobe Illustrator 24.1.2, SVG Export Plug-In . SVG Version: 6.00 Build 0)  -->
<svg version="1.1" xmlns="http://www.w3.org/2000/svg" xmlns:xlink="http://www.w3.org/1999/xlink" x="0px" y="0px"
	 viewBox="0 0 828.77 816.9" style="enable-background:new 0 0 828.77 816.9;" xml:space="preserve">
<style type="text/css">
	.st0{fill:url(#SVGID_1_);}
	.st1{fill:#BDD0FB;}
	.st2{fill:#FFFFFF;}
	.st3{fill:#91B3FA;}
	.st4{fill:url(#SVGID_2_);}
	.st5{fill:url(#SVGID_3_);}
	.st6{fill:url(#SVGID_4_);}
	.st7{fill:url(#SVGID_5_);}
	.st8{fill:url(#SVGID_6_);}
	.st9{opacity:0.49;fill:#FFFFFF;}
	.st10{fill:#7D97F4;}
	.st11{fill:url(#SVGID_7_);}
	.st12{fill:url(#SVGID_8_);}
	.st13{fill:url(#SVGID_9_);}
	.st14{fill:url(#SVGID_10_);}
	.st15{fill:url(#SVGID_11_);}
	.st16{fill:url(#SVGID_12_);}
	.st17{fill:url(#SVGID_13_);}
	.st18{fill:url(#SVGID_14_);}
	.st19{fill:url(#SVGID_15_);}
	.st20{fill:url(#SVGID_16_);}
	.st21{fill:url(#SVGID_17_);}
	.st22{fill:url(#SVGID_18_);}
	.st23{fill:url(#SVGID_19_);}
	.st24{fill:url(#SVGID_20_);}
	.st25{fill:url(#SVGID_21_);}
	.st26{fill:url(#SVGID_22_);}
	.st27{fill:url(#SVGID_23_);}
	.st28{fill:url(#SVGID_24_);}
	.st29{fill:url(#SVGID_25_);}
	.st30{fill:url(#SVGID_26_);}
	.st31{fill:url(#SVGID_27_);}
	.st32{fill:url(#SVGID_28_);}
	.st33{fill:url(#SVGID_29_);}
	.st34{fill:url(#SVGID_30_);}
	.st35{fill:url(#SVGID_31_);}
	.st36{fill:url(#SVGID_32_);}
	.st37{fill:url(#SVGID_33_);}
	.st38{fill:url(#SVGID_34_);}
	.st39{fill:url(#SVGID_35_);}
	.st40{fill:url(#SVGID_36_);}
	.st41{fill:url(#SVGID_37_);}
	.st42{fill:url(#SVGID_38_);}
	.st43{opacity:0.3;}
	.st44{fill:none;}
	.st45{fill:none;stroke:#4042E2;stroke-width:24;stroke-miterlimit:10;}
	.st46{fill:#4042E2;}
</style>
<g id="Metaphor_illustration">
	<g>
		<linearGradient id="SVGID_1_" gradientUnits="userSpaceOnUse" x1="928.1908" y1="1056.7467" x2="205.0996" y2="158.7128">
			<stop  offset="0" style="stop-color:#DAE3FE"/>
			<stop  offset="1" style="stop-color:#E9EFFD"/>
		</linearGradient>
		<path class="st0" d="M729.26,702.59c-16.61,17.49-32.32,28.76-44.74,37.67c-145.95,104.72-318.65,74.2-355.36,66.74
			C274.97,796,170.2,774.72,94.45,685.65C-20.14,550.88-2.3,338.57,86.59,198.42C102.85,172.78,188.73,30.49,363.3,7.68
			C468.94-6.13,592.08,21.72,681.26,96.43C868.45,253.26,855.13,570.09,729.26,702.59z"/>
		<g>
			<path class="st1" d="M819.37,4.11c0.77-3.28-3.84-5.45-6.66-3.17c-28.65,23.24-97.5,92.82-80.35,214.42
				c21.53,152.57-15.28,208.23-61.09,242.19c0,0,62.92-15.97,102.5-72.46C870.96,246.41,805.69,62.36,819.37,4.11z"/>
			<path class="st2" d="M797.56,51.76c-3.58,16.98-6.78,34.02-9.25,51.13c-2.57,17.1-4.54,34.26-5.89,51.44
				c-1.27,17.19-2.17,34.4-2.22,51.61c-0.14,17.21,0.57,34.41,1.36,51.68c0.68,17.26,1.47,34.65,0.21,52.15
				c-1.24,17.47-4.92,35.1-12.22,51.62c-1.82,4.12-3.74,8.22-5.92,12.19c-2.1,4-4.4,7.93-6.78,11.81
				c-4.81,7.76-10.22,15.25-16.25,22.36c-12.11,14.2-26.71,26.8-42.8,37.46c-1.69,1.12-4.12,0.85-5.42-0.62
				c-1.28-1.44-0.99-3.48,0.62-4.62l0.01-0.01c3.83-2.69,7.62-5.41,11.25-8.27c1.84-1.4,3.61-2.88,5.41-4.32
				c1.73-1.5,3.54-2.94,5.21-4.49c6.83-6.08,13.16-12.57,18.9-19.43c11.55-13.65,20.79-28.87,27.8-44.64
				c3.4-7.92,6.12-16.05,8.1-24.33c1.98-8.28,3.22-16.7,3.91-25.2c1.38-16.99,0.76-34.21,0.22-51.47
				c-0.51-17.27-0.88-34.62-0.42-51.97c0.2-8.67,0.58-17.34,1.14-25.99c0.25-4.33,0.6-8.65,0.94-12.98
				c0.39-4.32,0.8-8.64,1.26-12.96c1.86-17.26,4.33-34.46,7.42-51.57c3.19-17.1,6.9-34.11,11.37-50.98
				c0.13-0.48,0.68-0.78,1.24-0.67C797.32,50.84,797.66,51.3,797.56,51.76z"/>
		</g>
		<g>
			<g>
				<path class="st3" d="M745.14,369.29c3.51,3.73,9.69,2.66,11.81-2.01c11.66-25.75,38.05-101.52-5.53-188.82
					c-36.81-73.72-49.76-117.19-54.27-137.33c-0.95-4.26-6.79-4.82-8.55-0.83C669.15,84.35,617.83,234.21,745.14,369.29z"/>
				<path class="st2" d="M751.52,366.57c0.13,0.02,0.25,0.03,0.39,0.03c1.1-0.02,1.99-0.93,1.97-2.03
					c-0.02-1.25-2.46-126.4-49-231.21c-0.45-1.01-1.63-1.46-2.64-1.02c-1.01,0.45-1.46,1.63-1.02,2.64
					c46.21,104.05,48.64,228.41,48.66,229.65C749.89,365.61,750.6,366.41,751.52,366.57z"/>
			</g>
		</g>
		<g>
			<g>
				<linearGradient id="SVGID_2_" gradientUnits="userSpaceOnUse" x1="454.685" y1="488.1167" x2="222.6857" y2="1148.1166">
					<stop  offset="0" style="stop-color:#09005D"/>
					<stop  offset="1" style="stop-color:#1A0F91"/>
				</linearGradient>
				<polygon class="st4" points="314.48,571.28 298.34,716 485.55,716 461.17,571.28 				"/>
				<linearGradient id="SVGID_3_" gradientUnits="userSpaceOnUse" x1="794.4791" y1="-189.2281" x2="226.4779" y2="592.7737">
					<stop  offset="0" style="stop-color:#09005D"/>
					<stop  offset="1" style="stop-color:#1A0F91"/>
				</linearGradient>
				<path class="st5" d="M0,214.73v331.44c0,27.27,21.73,49.56,48.98,50.27c121.06,3.12,544.46,10.69,659.7,8.99
					c19.81-0.29,35.85-16.14,36.42-35.94c2.22-77,5.83-262.15-7.52-348.11c-2.81-18.1-18.09-31.64-36.4-32.22
					c-101.43-3.24-550.27-13.55-665.45-10.96C15.86,178.63,0,194.86,0,214.73z"/>
				<linearGradient id="SVGID_4_" gradientUnits="userSpaceOnUse" x1="20.7971" y1="377.8631" x2="721.9584" y2="377.8631">
					<stop  offset="0" style="stop-color:#FF928E"/>
					<stop  offset="1" style="stop-color:#FE7062"/>
				</linearGradient>
				<path class="st6" d="M20.8,213.11v314.89c0,15.92,12.78,28.89,28.7,29.13l642.61,7.94c15.78,0.24,28.72-12.46,28.78-28.24
					l1.08-312.08c0.04-11.28-8.95-20.53-20.23-20.81L43.81,190.66C31.19,190.35,20.8,200.49,20.8,213.11z"/>
				<path class="st3" d="M725.72,578.08c-0.01,0-0.01,0-0.02,0L20.78,566.06c-0.54-0.01-0.98-0.46-0.97-1
					c0.01-0.54,0.45-0.97,0.99-0.97c0.01,0,0.01,0,0.02,0l704.92,12.01c0.54,0.01,0.98,0.46,0.97,1
					C726.7,577.64,726.26,578.08,725.72,578.08z"/>
				<linearGradient id="SVGID_5_" gradientUnits="userSpaceOnUse" x1="518.0013" y1="412.8665" x2="378.0009" y2="760.8669">
					<stop  offset="0" style="stop-color:#09005D"/>
					<stop  offset="1" style="stop-color:#1A0F91"/>
				</linearGradient>
				<path class="st7" d="M525.88,745.61H251.88c-7.44,0-13.03-5.3-11.59-10.99l3.52-13.9c1.06-4.18,5.66-7.25,11.12-7.42
					l264.14-8.24c5.71-0.18,10.76,2.85,12.01,7.2l6.34,22.15C539.06,740.15,533.44,745.61,525.88,745.61z"/>
				<path class="st2" d="M399.38,717.15c-0.54,0-0.98-0.43-0.99-0.97c-0.01-0.55,0.43-0.99,0.97-1l11.32-0.16
					c0.54,0,0.99,0.43,1,0.97c0.01,0.55-0.43,0.99-0.97,1l-11.32,0.16C399.39,717.15,399.38,717.15,399.38,717.15z"/>
				<path class="st3" d="M250.43,738.04c-0.05,0-0.1,0-0.16-0.01c-0.54-0.09-0.9-0.59-0.82-1.13l1.61-10.11
					c0.87-5.48,5.54-9.52,11.08-9.6l120.05-1.75c0.5-0.02,0.99,0.43,1,0.97c0.01,0.55-0.43,0.99-0.97,1l-120.05,1.75
					c-4.59,0.07-8.44,3.4-9.17,7.93l-1.61,10.11C251.33,737.69,250.91,738.04,250.43,738.04z"/>
				<linearGradient id="SVGID_6_" gradientUnits="userSpaceOnUse" x1="485.493" y1="-198.6662" x2="401.4925" y2="117.3347">
					<stop  offset="0" style="stop-color:#FF928E"/>
					<stop  offset="1" style="stop-color:#FE7062"/>
				</linearGradient>
				<path class="st8" d="M721.87,250.48l0.09-25.72c0.04-11.28-8.95-20.53-20.23-20.81L43.94,190.66
					c-12.62-0.31-22.88,9.84-22.88,22.46v37.36H721.87z"/>
			</g>
			<g>
				<circle class="st9" cx="56.6" cy="230.35" r="9.79"/>
				<circle class="st9" cx="90.17" cy="230.35" r="9.79"/>
				<circle class="st9" cx="125.3" cy="230.35" r="9.79"/>
			</g>
		</g>
		<g>
			<g>
				<g>
					<path class="st1" d="M739.16,665.64l-295.89,0v-57.05l295.89,0C732.83,608.59,732.83,665.64,739.16,665.64z"/>
					<g>
						<path class="st10" d="M443.27,651.36v-26.11c0-9.2,5.85-16.66,13.06-16.66h281.58c5.67,0,10.27-4.43,10.27-9.89
							c0-1.66-1.4-3.01-3.12-3.01H437.32c-7.06,0-18.26,10.69-18.26,23.87v36.46c0,12.43,10.88,22.51,17.53,22.51h306.86
							c2.62,0,4.74-2.04,4.74-4.57c0-4.6-3.87-8.33-8.65-8.33H454.46C448.28,665.64,443.27,659.25,443.27,651.36z"/>
					</g>
				</g>
				<path class="st2" d="M728.92,621.3H451.48c-0.55,0-1-0.45-1-1c0-0.55,0.45-1,1-1h277.44c0.55,0,1,0.45,1,1
					C729.92,620.85,729.47,621.3,728.92,621.3z"/>
				<path class="st2" d="M728.92,629.76H451.48c-0.55,0-1-0.45-1-1c0-0.55,0.45-1,1-1h277.44c0.55,0,1,0.45,1,1
					C729.92,629.32,729.47,629.76,728.92,629.76z"/>
				<path class="st2" d="M728.92,638.23H451.48c-0.55,0-1-0.45-1-1c0-0.55,0.45-1,1-1h277.44c0.55,0,1,0.45,1,1
					C729.92,637.78,729.47,638.23,728.92,638.23z"/>
				<path class="st2" d="M728.92,646.7H451.48c-0.55,0-1-0.45-1-1c0-0.55,0.45-1,1-1h277.44c0.55,0,1,0.45,1,1
					C729.92,646.25,729.47,646.7,728.92,646.7z"/>
				<path class="st2" d="M728.92,655.17H451.48c-0.55,0-1-0.45-1-1c0-0.55,0.45-1,1-1h277.44c0.55,0,1,0.45,1,1
					C729.92,654.72,729.47,655.17,728.92,655.17z"/>
			</g>
			<g>
				<linearGradient id="SVGID_7_" gradientUnits="userSpaceOnUse" x1="696.3401" y1="208.4608" x2="560.3393" y2="800.4625">
					<stop  offset="0" style="stop-color:#4F52FF"/>
					<stop  offset="1" style="stop-color:#4042E2"/>
				</linearGradient>
				<path class="st11" d="M347.7,773.25h459.67c11.81,0,21.39-9.58,21.39-21.39v-52.54c0-11.81-9.58-21.39-21.39-21.39H347.7
					c-11.81,0-21.39,9.58-21.39,21.39v52.54C326.31,763.68,335.89,773.25,347.7,773.25z"/>
				<path class="st10" d="M744.98,762.3h31.91c4,0,7.24-3.24,7.24-7.24v-58.93c0-4-3.24-7.24-7.24-7.24h-31.91
					c-4,0-7.24,3.24-7.24,7.24v58.93C737.74,759.06,740.99,762.3,744.98,762.3z"/>
				<path class="st10" d="M719.4,762.3h5.63c3.25,0,5.89-2.64,5.89-5.89v-61.63c0-3.25-2.64-5.89-5.89-5.89h-5.63
					c-3.25,0-5.89,2.64-5.89,5.89v61.63C713.51,759.66,716.15,762.3,719.4,762.3z"/>
			</g>
		</g>
		<g>
			
				<linearGradient id="SVGID_8_" gradientUnits="userSpaceOnUse" x1="13987.2861" y1="570.2087" x2="13890.416" y2="625.501" gradientTransform="matrix(-1 0 0 1 14464.2646 0)">
				<stop  offset="0" style="stop-color:#FEBBBA"/>
				<stop  offset="1" style="stop-color:#FF928E"/>
			</linearGradient>
			<path class="st12" d="M491.71,660.35c0.11-0.04,61.56-107.65,69.86-117.77c1.4-1.7,3.56-2.57,5.75-2.31l17.15,2.04l20.15,43.59
				l-33.57-19.55c3.32,22.97-39.8,57.11-54.59,69.56c-1.5,1.26-1.62,3.53-0.27,4.95l5.9,6.18c-9.69,9.82-20.88,16.13-33.5,19.05
				L491.71,660.35z"/>
			
				<linearGradient id="SVGID_9_" gradientUnits="userSpaceOnUse" x1="-4746.3613" y1="-3727.4221" x2="-4753.7979" y2="-3613.3965" gradientTransform="matrix(0.8974 -0.4412 0.4412 0.8974 6393.5645 1876.3876)">
				<stop  offset="0" style="stop-color:#09005D"/>
				<stop  offset="1" style="stop-color:#1A0F91"/>
			</linearGradient>
			<path class="st13" d="M518.68,643.7c0,0,3.77,1.22,5.04,4.57c0.61,1.61-0.05,3.42-1.44,4.42c-6.2,4.45-26.67,18.8-36.11,21.61
				c-0.77,0.23-1.51-0.47-1.34-1.26c0.48-2.19,2.05-6.57,7.1-12.99l-0.45,0.92c-0.57,1.16,0.69,2.37,1.82,1.73
				C499.61,659.14,512.48,651.34,518.68,643.7z"/>
			
				<linearGradient id="SVGID_10_" gradientUnits="userSpaceOnUse" x1="13977.915" y1="583.998" x2="14309.3584" y2="376.5097" gradientTransform="matrix(-1 0 0 1 14464.2646 0)">
				<stop  offset="0" style="stop-color:#FEBBBA"/>
				<stop  offset="1" style="stop-color:#FF928E"/>
			</linearGradient>
			<path class="st14" d="M515.64,686.76c0.1-0.07,9.32-22.28,9.42-22.34c8.45-51.46,29.07-95.53,35.16-107.13
				c1.02-1.95,2.96-3.24,5.16-3.42l17.21-1.47L611.14,591l-36.83-12.35c7.9,21.82-27.42,63.98-39.38,79.17
				c-1.21,1.54-0.88,3.78,0.74,4.9l7.03,4.86c-7.5,11.58-17.18,20.02-28.95,25.44L515.64,686.76z"/>
			
				<linearGradient id="SVGID_11_" gradientUnits="userSpaceOnUse" x1="-3547.7651" y1="-5359.8711" x2="-3555.2009" y2="-5245.8545" gradientTransform="matrix(0.7895 -0.6137 0.6137 0.7895 6596.8774 2707.4006)">
				<stop  offset="0" style="stop-color:#09005D"/>
				<stop  offset="1" style="stop-color:#1A0F91"/>
			</linearGradient>
			<path class="st15" d="M538.69,665c0,0,3.94,0.43,5.86,3.46c0.92,1.45,0.65,3.36-0.52,4.63c-5.18,5.61-22.31,23.8-30.99,28.47
				c-0.71,0.38-1.57-0.15-1.56-0.96c0.03-2.25,0.68-6.85,4.33-14.16l-0.26,0.99c-0.33,1.25,1.15,2.18,2.13,1.33
				C523.14,683.98,534.16,673.73,538.69,665z"/>
			<g>
				
					<linearGradient id="SVGID_12_" gradientUnits="userSpaceOnUse" x1="5059.1982" y1="3470.4463" x2="5155.1982" y2="3178.4463" gradientTransform="matrix(-1 0 0 1 6632.564 0)">
					<stop  offset="0" style="stop-color:#4F52FF"/>
					<stop  offset="1" style="stop-color:#4042E2"/>
				</linearGradient>
				<path class="st16" d="M663.14,544.26c0,0,15.57,23.15,16.84,33.72c1.28,10.56-4.3,14.21-20.6,15.56
					c-48.49,4.01-72.39-10.52-72.39-10.52c-3.32-21.15-5.68-26.53-33.38-38.03c0,0,35.04,2.78,42.09,0.05
					C602.76,542.29,663.14,544.26,663.14,544.26z"/>
			</g>
			<g>
				
					<linearGradient id="SVGID_13_" gradientUnits="userSpaceOnUse" x1="-8160.6558" y1="-441.7439" x2="-8125.623" y2="-353.8648" gradientTransform="matrix(0.9446 -0.3283 0.3283 0.9446 8423.6748 -1883.9951)">
					<stop  offset="0" style="stop-color:#09005D"/>
					<stop  offset="1" style="stop-color:#1A0F91"/>
				</linearGradient>
				<path class="st17" d="M594.51,425.23c0,0,15.95-18.87,32.9,4.28c3.07,4.19,14.86,0.73,19.19,9.51c2.23,4.53,7.05,7.1,12.02,6.19
					c12.37-2.28,32.59-2.47,42.57,16.91c7.62,14.8,1.74,23.46-5.88,28.39c-5.59,3.63-7.59,10.99-4.21,16.73
					c3.24,5.51,3.86,12.97-4.52,21.95c-18.78,20.12-55.95-12.77-55.95-12.77l-29.51-69.74L594.51,425.23z"/>
				<linearGradient id="SVGID_14_" gradientUnits="userSpaceOnUse" x1="820.4583" y1="179.5068" x2="710.4582" y2="371.5071">
					<stop  offset="0" style="stop-color:#4F52FF"/>
					<stop  offset="1" style="stop-color:#4042E2"/>
				</linearGradient>
				<path class="st18" d="M621.04,541.19c0,0-18.13-17.26-27.05-28.7c-4.82-6.18-6.34-14.32-4.11-21.83
					c4.07-13.73,11.31-27.94,11.97-30.15c1.01-3.39,21.34-3.25,21.34-3.25s40,25.96,55.71,69.93l-17.65,5.49
					c0,0-10.44-17.52-20.76-28.66c0,0,17.86,23.59,18.48,33.24L621.04,541.19z"/>
				
					<linearGradient id="SVGID_15_" gradientUnits="userSpaceOnUse" x1="-6110.9224" y1="538.3377" x2="-6014.4248" y2="538.3377" gradientTransform="matrix(1 0 0 1 6757.5649 0)">
					<stop  offset="0" style="stop-color:#FEBBBA"/>
					<stop  offset="1" style="stop-color:#FF928E"/>
				</linearGradient>
				<path class="st19" d="M586.5,548l13.62-14.82l15.73,4.24c0,0,18.34,2.84,28.84,0c10.5-2.84,10.5-2.84,10.5-2.84l23.72-7.39
					l3.73,10.53c0.95,2.67,0,5.64-2.32,7.28c-2.05,1.46-4.46,3.06-5.99,3.73c-3.12,1.37-71.96,0.43-71.96,0.43L586.5,548z"/>
				
					<linearGradient id="SVGID_16_" gradientUnits="userSpaceOnUse" x1="-7917.4663" y1="-152.7838" x2="-7912.749" y2="-187.2935" gradientTransform="matrix(0.9974 -0.0717 0.0717 0.9974 8515.2031 76.9212)">
					<stop  offset="0" style="stop-color:#FEBBBA"/>
					<stop  offset="1" style="stop-color:#FF928E"/>
				</linearGradient>
				<path class="st20" d="M609.22,432.82l13.66,25.4c-0.9,5.55-14.87,5.7-17.03,2.39c-0.22-0.34-0.35-0.73-0.43-1.12l-8.17-16.97
					c-0.35-1.66,4.19-7.23,5.68-8.03l5.43-2.89C610.46,430.49,601.73,430.4,609.22,432.82z"/>
				<g>
					
						<linearGradient id="SVGID_17_" gradientUnits="userSpaceOnUse" x1="-9617.8623" y1="-2127.209" x2="-9573.4453" y2="-2206.2573" gradientTransform="matrix(0.9674 -0.253 0.253 0.9674 10435.6875 83.7234)">
						<stop  offset="0" style="stop-color:#FEBBBA"/>
						<stop  offset="1" style="stop-color:#FF928E"/>
					</linearGradient>
					<path class="st21" d="M595.84,413.02c0,0-6.91,5.32-9.26,17.93c-2.35,12.61,2.96,16.77,8.1,16.18
						c5.14-0.59,12.53-2.63,18.47-11.94C619.1,425.88,604.93,406.49,595.84,413.02z"/>
					
						<linearGradient id="SVGID_18_" gradientUnits="userSpaceOnUse" x1="-9608.3115" y1="-2196.0479" x2="-9586.1025" y2="-2140.3381" gradientTransform="matrix(0.9674 -0.253 0.253 0.9674 10435.6875 83.7234)">
						<stop  offset="0" style="stop-color:#09005D"/>
						<stop  offset="1" style="stop-color:#1A0F91"/>
					</linearGradient>
					<path class="st22" d="M606.31,430.57c0,0,1.57-17.96-13.05-14.35l-2.8,3.29c0,0-7.73-7.71-0.09-14.36
						c7.64-6.64,18.84-5.74,25.67,5.1c6.83,10.84,9.53,18.59,4.8,25.87c-4.73,7.28-8.97,1.54-8.97,1.54s2-6.17-0.12-8.64
						c-2.12-2.47-4.4,1.78-4.4,1.78L606.31,430.57z"/>
					
						<linearGradient id="SVGID_19_" gradientUnits="userSpaceOnUse" x1="-9608.4072" y1="-2121.8977" x2="-9563.9902" y2="-2200.9448" gradientTransform="matrix(0.9674 -0.253 0.253 0.9674 10435.6875 83.7234)">
						<stop  offset="0" style="stop-color:#FEBBBA"/>
						<stop  offset="1" style="stop-color:#FF928E"/>
					</linearGradient>
					<path class="st23" d="M608.42,431.98c0,0,0.75-9.24,5.59-6.9c4.84,2.34-1.17,8.66-3.6,10.83L608.42,431.98z"/>
				</g>
			</g>
			<g>
				
					<linearGradient id="SVGID_20_" gradientUnits="userSpaceOnUse" x1="-6159.8618" y1="306.9153" x2="-6210.3423" y2="320.7507" gradientTransform="matrix(0.9988 -0.0494 0.0494 0.9988 6779.5259 -73.6208)">
					<stop  offset="0" style="stop-color:#09005D"/>
					<stop  offset="1" style="stop-color:#1A0F91"/>
				</linearGradient>
				<path class="st24" d="M631.59,553.87c-0.05,0-0.1,0-0.14,0l-62.65-0.07c-1.55,0-2.8-1.26-2.8-2.81c0-1.55,1.26-2.83,2.81-2.8
					l62.65,0.07c1.55,0,2.8,1.26,2.8,2.81C634.25,552.57,633.07,553.8,631.59,553.87z"/>
				
					<linearGradient id="SVGID_21_" gradientUnits="userSpaceOnUse" x1="5304.7446" y1="529.0977" x2="5758.7651" y2="490.8989" gradientTransform="matrix(1 0 0 1 -4793.5444 0)">
					<stop  offset="0" style="stop-color:#09005D"/>
					<stop  offset="1" style="stop-color:#1A0F91"/>
				</linearGradient>
				<path class="st25" d="M512.47,496.98h52.18c3.85,0,7.35,2.22,8.99,5.7l24.12,51.15h-64.84c-2.48,0-4.71-1.52-5.62-3.82
					l-18.71-47.33C507.51,499.95,509.53,496.98,512.47,496.98z"/>
				
					<linearGradient id="SVGID_22_" gradientUnits="userSpaceOnUse" x1="-6205.3242" y1="514.0386" x2="-6221.5767" y2="538.5125" gradientTransform="matrix(1 0 0 1 6757.5649 0)">
					<stop  offset="0" style="stop-color:#4F52FF"/>
					<stop  offset="1" style="stop-color:#4042E2"/>
				</linearGradient>
				<path class="st26" d="M549.23,523.21c1.13,3.51,0.3,6.92-1.87,7.62c-2.16,0.7-4.83-1.59-5.96-5.1c-1.13-3.51-0.3-6.92,1.87-7.62
					C545.43,517.41,548.1,519.7,549.23,523.21z"/>
			</g>
		</g>
		<g>
			<g>
				<path class="st10" d="M134.58,61.06c0.01-0.42,0.03-0.81,0.04-1.15c0.03-0.95-0.35-1.86-1.06-2.49
					c-4.14-3.71-19.62-16.45-41.51-20.42c-1.18-0.21-2.2,0.32-2.78,1.16c1.82,0.22,4.27,0.69,7.56,1.55
					C107.66,42.57,123.38,50.13,134.58,61.06z"/>
				<linearGradient id="SVGID_23_" gradientUnits="userSpaceOnUse" x1="88.7824" y1="57.1541" x2="134.5793" y2="57.1541">
					<stop  offset="0" style="stop-color:#09005D"/>
					<stop  offset="1" style="stop-color:#1A0F91"/>
				</linearGradient>
				<path class="st27" d="M96.84,39.73c-3.29-0.87-5.74-1.33-7.56-1.55c-0.58,0.85-0.7,2.01-0.07,3.03c0.35,0.58,0.79,1.2,1.33,1.88
					c3.43,4.29,31.11,32.69,31.11,32.69s8.79,1.07,11.47-0.48c0.87-0.5,1.3-9.63,1.47-14.23C123.38,50.13,107.66,42.57,96.84,39.73z
					"/>
			</g>
			<linearGradient id="SVGID_24_" gradientUnits="userSpaceOnUse" x1="122.6503" y1="58.0927" x2="134.6089" y2="139.9151">
				<stop  offset="0" style="stop-color:#FEBBBA"/>
				<stop  offset="1" style="stop-color:#FF928E"/>
			</linearGradient>
			<path class="st28" d="M133.53,90.56V73.65c0-1.43-0.91-2.72-2.27-3.16c-2.1-0.67-5.33-1.3-8.26-0.2
				c-1.72,0.65-2.88,2.28-3.03,4.11l-1.26,15.8L133.53,90.56z"/>
			<g>
				<linearGradient id="SVGID_25_" gradientUnits="userSpaceOnUse" x1="15.0597" y1="86.8136" x2="69.0732" y2="86.8136">
					<stop  offset="0" style="stop-color:#09005D"/>
					<stop  offset="1" style="stop-color:#1A0F91"/>
				</linearGradient>
				<path class="st29" d="M66.44,75.58c-0.2-0.67-0.59-1.22-1.09-1.64c-3.55,0.7-10.95,2.66-26.1,8.01
					c-17.56,6.2-22.71,11.62-24.19,14.51c7.53,2.2,24.63,5.57,49.17,0.78l4.85-2.27C69.07,94.97,68.73,83.15,66.44,75.58z"/>
				<path class="st10" d="M39.25,81.95c15.15-5.35,22.55-7.31,26.1-8.01c-0.78-0.65-1.83-0.95-2.9-0.73
					c-8.72,1.82-35.08,8.02-48.85,19.19c-1.38,1.11-0.97,3.32,0.72,3.84c0.24,0.07,0.49,0.15,0.75,0.22
					C16.54,93.57,21.68,88.15,39.25,81.95z"/>
			</g>
			<linearGradient id="SVGID_26_" gradientUnits="userSpaceOnUse" x1="62.3983" y1="66.8984" x2="74.3571" y2="148.7219">
				<stop  offset="0" style="stop-color:#FEBBBA"/>
				<stop  offset="1" style="stop-color:#FF928E"/>
			</linearGradient>
			<path class="st30" d="M78.15,105.19L67.83,92.81c-1.01-1.2-2.64-1.68-4.13-1.19c-1.65,0.54-3.85,1.66-5.97,3.97
				c-0.99,1.08-1.19,2.67-0.51,3.97l7.51,14.55L78.15,105.19z"/>
			<linearGradient id="SVGID_27_" gradientUnits="userSpaceOnUse" x1="148.2217" y1="19.0387" x2="114.8632" y2="206.6024">
				<stop  offset="0" style="stop-color:#4F52FF"/>
				<stop  offset="1" style="stop-color:#4042E2"/>
			</linearGradient>
			<path class="st31" d="M116.44,84.67c0,0,12.6-2.42,19.59,0c0,0,9.21,55.29,7.63,73.07l-27.22,5.53
				C116.44,163.28,115.67,100.98,116.44,84.67z"/>
			<linearGradient id="SVGID_28_" gradientUnits="userSpaceOnUse" x1="200.8355" y1="78.3225" x2="76.8358" y2="230.3221">
				<stop  offset="0" style="stop-color:#4F52FF"/>
				<stop  offset="1" style="stop-color:#4042E2"/>
			</linearGradient>
			<path class="st32" d="M228.15,181.55c0,0-89.01,5-125.13,2.5c-3.54-0.24-6.68-2.34-8.26-5.51c-7.74-15.5-30.96-62.01-33-66.45
				c0,0,9.43-7.88,16.39-8.97c0,0,32.97,36.67,34.34,55.38c0,0,76.34-21.96,83.88-21.75c7.54,0.21,30.66,10.52,30.66,10.52
				L228.15,181.55z"/>
			<linearGradient id="SVGID_29_" gradientUnits="userSpaceOnUse" x1="345.2044" y1="96.6279" x2="364.7863" y2="96.6279">
				<stop  offset="0" style="stop-color:#FEBBBA"/>
				<stop  offset="1" style="stop-color:#FF928E"/>
			</linearGradient>
			<path class="st33" d="M346.79,112.18c0,0-3.27-6.79-0.43-10.37c2.83-3.58,13.04-14.67,13.04-14.67l1.19-7.66l4.2,12.48l-9,18.83
				C355.78,110.78,350.51,116.49,346.79,112.18z"/>
			<linearGradient id="SVGID_30_" gradientUnits="userSpaceOnUse" x1="346.7935" y1="127.9879" x2="369.6622" y2="127.9879">
				<stop  offset="0" style="stop-color:#FEBBBA"/>
				<stop  offset="1" style="stop-color:#FF928E"/>
			</linearGradient>
			<path class="st34" d="M369.66,143.76c-3.3-11.59-7.84-22.62-13.88-32.98l-8.99,1.39l4.44,31.16
				C354.62,144.36,363.88,146.7,369.66,143.76z"/>
			<path class="st10" d="M375.48,174.1c-1.15-10.47-3.05-20.6-5.82-30.34c-5.79,2.94-15.04,0.6-18.43-0.42l1.27,8.95l-3.41-12.05
				c-4.14-14.66-12.96-27.56-25.1-36.75l-8.46-6.4c-8.31-6.29-21.6-4.12-30.08,1.94c-18.83,13.46-46.77,36.02-56.32,43.78
				c-2.05,1.67-4.86,2.04-7.28,0.97l-1.59-0.71c-1.5-0.67-3.17,0.55-2.98,2.19l4.05,37.04l64.68-0.75c7.76,0,30.22-0.8,33.79-7.68
				l5.98-14.68c14.02,11.92,31.99,20.11,41.63,22.49C371.85,182.79,376.01,178.91,375.48,174.1z"/>
			<linearGradient id="SVGID_31_" gradientUnits="userSpaceOnUse" x1="309.0948" y1="94.9963" x2="340.8628" y2="94.9963">
				<stop  offset="0" style="stop-color:#FEBBBA"/>
				<stop  offset="1" style="stop-color:#FF928E"/>
			</linearGradient>
			<path class="st35" d="M330.06,77.22l-19.88,19.31c-1.33,1.29-1.45,3.39-0.26,4.81c6.13,7.31,11.4,11.14,15.77,11.43
				c1.86,0.12,3.61-0.86,4.61-2.43l10.57-16.66L330.06,77.22z"/>
			<linearGradient id="SVGID_32_" gradientUnits="userSpaceOnUse" x1="410.9962" y1="158.4287" x2="325.7901" y2="229.237">
				<stop  offset="0" style="stop-color:#FEBBBA"/>
				<stop  offset="1" style="stop-color:#FF928E"/>
			</linearGradient>
			<polygon class="st36" points="370.19,172.39 387.29,165.73 407.18,181.55 371.57,181.69 			"/>
			<g>
				<linearGradient id="SVGID_33_" gradientUnits="userSpaceOnUse" x1="349.4837" y1="93.0157" x2="338.1474" y2="55.6261">
					<stop  offset="0" style="stop-color:#FEBBBA"/>
					<stop  offset="1" style="stop-color:#FF928E"/>
				</linearGradient>
				<path class="st37" d="M363.4,72.75c0,0-2.71,19.08-10.04,24.95c-7.33,5.87-21.61,1.45-26.43-12.93l9.61-24.59L363.4,72.75z"/>
				<linearGradient id="SVGID_34_" gradientUnits="userSpaceOnUse" x1="339.2539" y1="24.3622" x2="349.7936" y2="84.4772">
					<stop  offset="0" style="stop-color:#09005D"/>
					<stop  offset="1" style="stop-color:#1A0F91"/>
				</linearGradient>
				<path class="st38" d="M335.45,76.09c0.56,0.18,1.14-0.18,1.23-0.76c0.26-1.76,0.92-5.25,2.26-7.62c0,0-0.7-2.5,6.33,1.28
					c7.03,3.78,17.58,9.34,23.79,6.03c6.06-3.22,12.19-19.45-3.82-16.45c-0.61,0.11-1.17-0.37-1.12-0.99
					c0.2-2.67-0.07-8.8-6.28-10.77c-5.82-1.84-9,0.78-10.31,2.37c-0.39,0.47-1.1,0.46-1.47-0.02c-1.74-2.27-6.47-7.12-13.44-4.05
					c-5.74,2.53-6.63,6.06-6.53,8.26c0.03,0.71-0.69,1.2-1.34,0.9c-1.76-0.81-4.58-1.23-7.29,2.16c-3.74,4.69,1.61,8.75,3.21,9.82
					c0.26,0.17,0.43,0.46,0.43,0.78c0.02,2.44,0.39,13.08,5.73,19.08c0.46,0.52,1.31,0.37,1.58-0.27l4.1-9.78
					c0.19-0.45,0.7-0.69,1.17-0.54L335.45,76.09z"/>
				<linearGradient id="SVGID_35_" gradientUnits="userSpaceOnUse" x1="337.7416" y1="96.5755" x2="326.4055" y2="59.1862">
					<stop  offset="0" style="stop-color:#FEBBBA"/>
					<stop  offset="1" style="stop-color:#FF928E"/>
				</linearGradient>
				<path class="st39" d="M335.54,78.07c0,0-2.51-10.21-6.31-6.89c-3.81,3.31,0.99,10.61,5.35,12L335.54,78.07z"/>
			</g>
			<path class="st3" d="M306.9,121.14c0,0,0.77-23.62-8.94-24.09c-12.05-0.59-31.42,8.14-19.89,42.76
				c6.37,19.12,15.97,33.32,42.32,39.33c1.28-9.69,5.68-16.45,8.92-20.25C318.59,151.31,309.49,139.52,306.9,121.14z"/>
			<path class="st1" d="M328.11,158.94c-0.19,0-0.38-0.06-0.54-0.17c-12.36-8.71-19.23-20.63-21.6-37.5
				c-0.01-0.05-0.01-0.11-0.01-0.16c0.2-6.31-0.85-22.77-8.04-23.12c-3.48-0.17-7.13,0.49-10.27,1.85
				c-0.48,0.21-1.03-0.01-1.24-0.49c-0.21-0.48,0.01-1.03,0.49-1.24c3.41-1.48,7.36-2.18,11.12-2c10.31,0.5,9.89,23.17,9.84,24.99
				c2.31,16.28,8.92,27.77,20.81,36.14c0.43,0.3,0.53,0.89,0.23,1.32C328.7,158.8,328.41,158.94,328.11,158.94z"/>
			<path class="st1" d="M312.01,177.7c-0.1,0-0.21-0.02-0.31-0.05c-21.86-7.54-29.51-22.51-34.52-37.55
				c-1.13-3.41-2.01-6.69-2.6-9.76c-0.1-0.51,0.24-1.01,0.75-1.11c0.51-0.1,1.01,0.24,1.11,0.75c0.58,2.99,1.43,6.19,2.54,9.52
				c4.86,14.58,12.26,29.08,33.35,36.36c0.49,0.17,0.75,0.71,0.58,1.2C312.77,177.45,312.41,177.7,312.01,177.7z"/>
			<linearGradient id="SVGID_36_" gradientUnits="userSpaceOnUse" x1="392.7618" y1="136.4868" x2="307.5557" y2="207.2951">
				<stop  offset="0" style="stop-color:#FEBBBA"/>
				<stop  offset="1" style="stop-color:#FF928E"/>
			</linearGradient>
			<path class="st40" d="M375.03,181.55l-0.04-9.16c0,0-25.68,0.57-45.66-13.52c-3.25,3.81-7.64,10.56-8.92,20.25
				C333.74,182.17,351.36,183.12,375.03,181.55z"/>
			<g>
				
					<linearGradient id="SVGID_37_" gradientUnits="userSpaceOnUse" x1="-6862.9429" y1="-102.4822" x2="-6928.7466" y2="-84.4471" gradientTransform="matrix(-0.9988 -0.0494 -0.0494 0.9988 -6531.5137 -73.6208)">
					<stop  offset="0" style="stop-color:#09005D"/>
					<stop  offset="1" style="stop-color:#1A0F91"/>
				</linearGradient>
				<path class="st41" d="M342.11,184.75c0.06,0,0.12,0,0.19,0l81.67-0.09c2.02,0,3.65-1.64,3.65-3.66c0-2.02-1.65-3.69-3.66-3.65
					l-81.67,0.09c-2.02,0-3.65,1.64-3.65,3.66C338.64,183.06,340.18,184.65,342.11,184.75z"/>
				
					<linearGradient id="SVGID_38_" gradientUnits="userSpaceOnUse" x1="-6926.8711" y1="120.5396" x2="-6973.5615" y2="169.8889" gradientTransform="matrix(-1 0 0 1 -6509.5527 0)">
					<stop  offset="0" style="stop-color:#09005D"/>
					<stop  offset="1" style="stop-color:#1A0F91"/>
				</linearGradient>
				<path class="st42" d="M497.39,110.6h-68.02c-5.02,0-9.58,2.9-11.72,7.43l-31.44,66.68h84.53c3.23,0,6.14-1.98,7.33-4.98
					l24.38-61.7C503.85,114.46,501.23,110.6,497.39,110.6z"/>
				<path class="st3" d="M449.47,144.78c-1.47,4.58-0.39,9.03,2.43,9.93c2.82,0.91,6.3-2.07,7.77-6.65
					c1.47-4.58,0.38-9.03-2.43-9.93C454.43,137.23,450.95,140.2,449.47,144.78z"/>
			</g>
		</g>
		<g>
			<g>
				<g class="st43">
					<path class="st44" d="M247.94,612.74c0.97,0.15,1.7,1.02,1.65,2.03c-0.11,2.2-0.32,4.43-0.62,6.63
						c-0.15,1.07-1.13,1.82-2.2,1.67c-0.01,0-0.03,0-0.04-0.01c-1.05-0.16-1.78-1.14-1.63-2.19c0.28-2.09,0.48-4.2,0.59-6.29
						c0.05-1.08,0.97-1.91,2.05-1.85C247.8,612.73,247.87,612.73,247.94,612.74z M245.2,629.52c0.08,0.01,0.15,0.03,0.23,0.05
						c1.04,0.29,1.64,1.37,1.36,2.4c-0.6,2.13-1.29,4.26-2.06,6.32c-0.38,1.01-1.5,1.52-2.51,1.15c-1.01-0.38-1.52-1.5-1.15-2.51
						c0.73-1.96,1.39-3.98,1.96-6.01C243.29,629.96,244.23,629.37,245.2,629.52z M238.83,645.28c0.21,0.03,0.43,0.1,0.63,0.21
						c0.95,0.51,1.3,1.7,0.79,2.65c-1.05,1.94-2.2,3.86-3.42,5.71c-0.59,0.9-1.8,1.15-2.7,0.56c-0.9-0.59-1.15-1.8-0.56-2.7
						c1.15-1.75,2.25-3.58,3.25-5.42C237.22,645.53,238.04,645.15,238.83,645.28z M229.1,659.22c0.35,0.06,0.7,0.21,0.99,0.46
						c0.81,0.71,0.89,1.95,0.17,2.75c-1.46,1.66-3.01,3.27-4.61,4.8c-0.78,0.74-2.01,0.72-2.76-0.06c-0.74-0.78-0.72-2.01,0.06-2.76
						c1.52-1.45,2.99-2.98,4.38-4.56C227.79,659.33,228.46,659.12,229.1,659.22z M216.51,670.64c0.5,0.08,0.96,0.35,1.28,0.79
						c0.63,0.87,0.43,2.09-0.44,2.72c-1.79,1.29-3.66,2.52-5.55,3.66c-0.92,0.56-2.12,0.26-2.68-0.67
						c-0.55-0.92-0.25-2.12,0.67-2.68c1.8-1.08,3.58-2.25,5.28-3.48C215.5,670.67,216.02,670.56,216.51,670.64z M201.7,678.98
						c0.64,0.1,1.22,0.52,1.5,1.17c0.42,0.99-0.04,2.14-1.03,2.56c-2.03,0.86-4.13,1.65-6.23,2.34c-1.02,0.34-2.13-0.22-2.46-1.25
						c-0.34-1.02,0.22-2.13,1.25-2.46c1.99-0.65,3.99-1.4,5.92-2.22C200.99,678.97,201.35,678.93,201.7,678.98z M130.34,672.57
						c0.27,0.04,0.53,0.14,0.77,0.3c1.75,1.15,3.58,2.24,5.43,3.24c0.95,0.51,1.3,1.7,0.79,2.64c-0.51,0.95-1.7,1.3-2.64,0.79
						c-1.95-1.05-3.87-2.2-5.72-3.41c-0.9-0.59-1.15-1.8-0.56-2.7C128.84,672.77,129.6,672.46,130.34,672.57z M185.42,683.84
						c0.8,0.12,1.47,0.74,1.62,1.58c0.19,1.06-0.52,2.07-1.58,2.27c-2.17,0.39-4.39,0.69-6.59,0.89c-1.07,0.09-2.02-0.69-2.12-1.76
						c-0.1-1.07,0.69-2.02,1.76-2.12c2.09-0.19,4.19-0.48,6.26-0.85C185,683.81,185.21,683.81,185.42,683.84z M145.51,680.24
						c0.13,0.02,0.25,0.05,0.38,0.1c1.97,0.73,3.99,1.38,6.02,1.95c1.04,0.29,1.65,1.36,1.36,2.4c-0.29,1.04-1.36,1.65-2.4,1.36
						c-2.13-0.59-4.26-1.28-6.33-2.05c-1.01-0.37-1.53-1.5-1.15-2.51C143.71,680.61,144.61,680.1,145.51,680.24z M168.47,684.94
						c0.97,0.15,1.69,1.02,1.65,2.02c-0.05,1.08-0.97,1.91-2.04,1.86c-2.2-0.11-4.43-0.31-6.62-0.6c-0.01,0-0.03,0-0.04-0.01
						c-1.05-0.16-1.77-1.13-1.63-2.19c0.14-1.07,1.13-1.82,2.19-1.67c2.08,0.28,4.2,0.47,6.29,0.57
						C168.33,684.92,168.4,684.93,168.47,684.94z"/>
					<path class="st44" d="M119.61,664.05c0.38,0.06,0.75,0.23,1.05,0.52c0.73,0.69,1.48,1.39,2.24,2.05
						c0.81,0.71,0.89,1.94,0.18,2.75c-0.71,0.81-1.95,0.89-2.75,0.18c-0.8-0.7-1.59-1.43-2.36-2.16c-0.78-0.74-0.81-1.98-0.06-2.76
						C118.35,664.15,119,663.95,119.61,664.05z"/>
				</g>
				<g class="st43">
					<path class="st44" d="M96.03,609.43c0.93,0.14,1.64,0.95,1.65,1.92c0,1.01,0.03,2.03,0.08,3.04c0.05,1.08-0.78,1.99-1.86,2.04
						c-1.08,0.05-1.99-0.78-2.04-1.86c-0.05-1.06-0.08-2.14-0.08-3.2c0-1.08,0.87-1.95,1.94-1.96
						C95.83,609.41,95.93,609.41,96.03,609.43z"/>
					<path class="st44" d="M183.65,533.94c0.89,0.14,1.78,0.29,2.66,0.46c1.06,0.2,1.75,1.22,1.55,2.28
						c-0.2,1.06-1.23,1.76-2.28,1.55c-2.05-0.39-4.11-0.7-6.15-0.91c-1.07-0.12-1.85-1.07-1.74-2.15c0.11-1.07,1.07-1.85,2.15-1.74
						C181.1,533.57,182.38,533.74,183.65,533.94z M196.27,537.01c0.11,0.02,0.22,0.04,0.32,0.08c2.06,0.69,4.12,1.48,6.12,2.34
						c0.99,0.43,1.44,1.58,1.02,2.56c-0.43,0.99-1.58,1.45-2.57,1.02c-1.89-0.82-3.85-1.57-5.81-2.22
						c-1.02-0.34-1.57-1.45-1.23-2.47C194.43,537.4,195.35,536.87,196.27,537.01z M169.58,533.07c0.91,0.14,1.62,0.91,1.65,1.87
						c0.03,1.08-0.81,1.98-1.89,2.01c-2.06,0.06-4.15,0.22-6.2,0.46c-1.07,0.12-2.04-0.64-2.16-1.71c-0.12-1.07,0.64-2.04,1.71-2.16
						c2.16-0.25,4.36-0.41,6.53-0.48C169.34,533.04,169.46,533.05,169.58,533.07z M211.45,544.05c0.24,0.04,0.49,0.12,0.71,0.26
						c1.86,1.13,3.69,2.35,5.45,3.63c0.87,0.63,1.06,1.85,0.43,2.73c-0.63,0.87-1.85,1.06-2.73,0.43c-1.67-1.22-3.41-2.38-5.18-3.45
						c-0.92-0.56-1.22-1.76-0.66-2.68C209.91,544.27,210.7,543.93,211.45,544.05z M153.03,535.44c0.75,0.12,1.39,0.66,1.59,1.44
						c0.27,1.04-0.36,2.11-1.4,2.38c-1.99,0.52-4,1.13-5.95,1.81c-1.02,0.36-2.13-0.18-2.49-1.2c-0.36-1.02,0.18-2.13,1.19-2.49
						c2.05-0.72,4.16-1.36,6.26-1.91C152.5,535.41,152.77,535.4,153.03,535.44z M137.4,541.39c0.6,0.09,1.14,0.46,1.44,1.04
						c0.49,0.96,0.11,2.14-0.85,2.63c-1.84,0.94-3.66,1.97-5.41,3.07c-0.91,0.57-2.12,0.29-2.69-0.62
						c-0.57-0.91-0.29-2.12,0.62-2.69c1.84-1.15,3.76-2.23,5.69-3.23C136.59,541.39,137.01,541.33,137.4,541.39z M123.44,550.61
						c0.45,0.07,0.88,0.3,1.2,0.68c0.69,0.83,0.57,2.06-0.25,2.75c-1.59,1.32-3.14,2.72-4.61,4.17c-0.77,0.76-2,0.75-2.76-0.02
						c-0.76-0.77-0.74-2,0.02-2.76c1.55-1.52,3.18-3,4.86-4.39C122.34,550.66,122.91,550.52,123.44,550.61z M111.83,562.64
						c0.31,0.05,0.62,0.18,0.89,0.38c0.85,0.66,1.01,1.88,0.35,2.74c-1.26,1.64-2.47,3.35-3.59,5.08c-0.58,0.91-1.79,1.17-2.7,0.58
						c-0.91-0.58-1.17-1.79-0.58-2.7c1.18-1.83,2.45-3.63,3.78-5.35C110.43,562.8,111.15,562.54,111.83,562.64z M103.13,576.94
						c0.18,0.03,0.35,0.08,0.52,0.16c0.98,0.45,1.4,1.61,0.95,2.59c-0.87,1.87-1.67,3.8-2.38,5.74c-0.37,1.01-1.49,1.53-2.5,1.16
						c-1.01-0.37-1.53-1.49-1.16-2.5c0.75-2.04,1.59-4.08,2.5-6.05C101.44,577.24,102.3,576.81,103.13,576.94z M97.8,592.79
						c0.04,0.01,0.08,0.01,0.12,0.02c1.05,0.23,1.72,1.27,1.49,2.32c-0.33,1.49-0.61,3-0.84,4.5c-0.08,0.54-0.16,1.09-0.24,1.63
						c-0.14,1.07-1.12,1.82-2.19,1.68c-1.08-0.12-1.82-1.12-1.68-2.19c0.08-0.57,0.16-1.14,0.25-1.71c0.25-1.58,0.54-3.17,0.89-4.73
						C95.82,593.29,96.79,592.64,97.8,592.79z"/>
					<path class="st44" d="M224.75,554.29c0.38,0.06,0.75,0.23,1.05,0.52c0.76,0.73,1.52,1.5,2.26,2.27
						c0.74,0.78,0.72,2.01-0.06,2.76c-0.78,0.74-2.01,0.72-2.76-0.06c-0.7-0.73-1.42-1.46-2.14-2.15c-0.78-0.75-0.8-1.98-0.05-2.76
						C223.5,554.39,224.14,554.19,224.75,554.29z"/>
				</g>
				<g>
					<path class="st44" d="M218.66,576.25c-0.2-0.34-0.58-0.51-0.97-0.43L206.81,578c-3.57-3.76-7.77-6.97-12.49-9.46l-0.85-11.06
						c-0.03-0.39-0.3-0.71-0.68-0.81l-12.88-3.36c-0.38-0.1-0.77,0.05-0.99,0.38l-6.15,9.23c-5.33-0.14-10.56,0.62-15.52,2.15
						l-8.43-7.22c-0.3-0.25-0.72-0.29-1.05-0.09l-11.49,6.73c-0.34,0.2-0.51,0.58-0.43,0.97l2.18,10.88
						c-3.76,3.57-6.97,7.77-9.46,12.49l-11.06,0.85c-0.39,0.03-0.71,0.3-0.81,0.68l-3.36,12.88c-0.1,0.38,0.05,0.77,0.38,0.99
						l9.23,6.15c-0.14,5.33,0.62,10.56,2.15,15.52l-7.22,8.43c-0.25,0.3-0.29,0.72-0.09,1.05l6.73,11.49
						c0.2,0.34,0.58,0.51,0.97,0.43l10.88-2.18c3.57,3.76,7.77,6.97,12.49,9.46l0.85,11.06c0.03,0.39,0.3,0.71,0.68,0.81l12.88,3.36
						c0.38,0.1,0.77-0.05,0.99-0.38l6.15-9.23c5.33,0.14,10.56-0.62,15.52-2.15l8.43,7.22c0.3,0.25,0.72,0.29,1.05,0.09l11.49-6.73
						c0.34-0.2,0.51-0.58,0.43-0.97l-2.18-10.88c3.76-3.57,6.97-7.77,9.46-12.49l11.06-0.85c0.39-0.03,0.71-0.3,0.81-0.68
						l3.36-12.88c0.1-0.38-0.05-0.77-0.38-0.99l-9.23-6.15c0.14-5.33-0.62-10.56-2.15-15.52l7.22-8.43c0.25-0.3,0.29-0.72,0.09-1.05
						L218.66,576.25z"/>
					<path class="st44" d="M173.66,598.32c6.45,1,11.37,6.62,11.31,13.33c-0.06,7.38-6.11,13.33-13.49,13.27
						c-3.58-0.03-6.92-1.45-9.43-4c-2.51-2.55-3.87-5.92-3.84-9.49c0.06-7.38,6.11-13.33,13.49-13.27
						C172.36,598.16,173.02,598.22,173.66,598.32z M169.99,621.68c0.5,0.08,1,0.12,1.52,0.12c5.66,0.05,10.3-4.52,10.34-10.18
						c0.05-5.66-4.52-10.3-10.18-10.34c-5.66-0.05-10.3,4.52-10.34,10.18c-0.02,2.74,1.02,5.33,2.95,7.28
						C165.84,620.32,167.83,621.34,169.99,621.68z"/>
					<path class="st44" d="M176.36,579.18c1.11,0.17,2.21,0.4,3.31,0.69l0,0c0.35,0.09,0.69,0.19,1.03,0.29
						c1.69,0.5,3.34,1.13,4.92,1.89c0.02,0.01,0.04,0.02,0.06,0.03c0.06,0.03,0.12,0.06,0.18,0.09c0.12,0.06,0.24,0.12,0.35,0.18
						c0.31,0.16,0.47,0.49,0.42,0.82c-0.01,0.08-0.04,0.16-0.08,0.23c-0.19,0.38-0.66,0.54-1.05,0.34c-1.98-1-4.08-1.79-6.24-2.36
						c-10.75-2.81-21.67,0.34-29.27,7.39c-4.23,3.92-7.42,9.04-8.98,15.02c-0.27,1.05-0.49,2.1-0.66,3.16
						c-1.11,7.11,0.25,14.32,3.94,20.61c4.23,7.22,11.02,12.37,19.13,14.48c16.73,4.37,33.88-5.69,38.25-22.41
						c0.27-1.03,0.49-2.07,0.65-3.12c0.71-4.53,0.41-9.17-0.88-13.58c-0.03-0.11-0.04-0.23-0.02-0.34c0.04-0.29,0.25-0.54,0.55-0.63
						c0.41-0.12,0.85,0.12,0.97,0.53c1.35,4.63,1.66,9.5,0.92,14.25c-0.17,1.1-0.4,2.19-0.68,3.27
						c-4.58,17.56-22.6,28.11-40.15,23.52c-8.5-2.22-15.63-7.62-20.08-15.2c-3.87-6.6-5.3-14.17-4.14-21.63
						c0.17-1.11,0.4-2.22,0.69-3.32c2.22-8.5,7.62-15.64,15.2-20.08C161.33,579.44,168.9,578.01,176.36,579.18z"/>
				</g>
			</g>
			<g>
				<g class="st43">
					<path class="st44" d="M321.64,572.18c0.52,0.08,0.94,0.49,1.01,1.03c0.13,1.01,0.24,2.05,0.31,3.07
						c0.05,0.66-0.45,1.24-1.12,1.29c-0.66,0.05-1.24-0.45-1.29-1.12c-0.07-0.97-0.17-1.96-0.3-2.93c-0.09-0.66,0.38-1.26,1.04-1.35
						C321.42,572.16,321.53,572.16,321.64,572.18z"/>
					<path class="st44" d="M322.01,581.44c0.6,0.09,1.05,0.63,1.02,1.25c-0.09,1.76-0.28,3.53-0.55,5.27
						c-0.06,0.37-0.12,0.73-0.18,1.1c-0.12,0.66-0.77,1.06-1.4,0.98c-0.66-0.12-1.09-0.74-0.98-1.4c0.06-0.35,0.12-0.7,0.18-1.05
						c0.26-1.66,0.43-3.35,0.52-5.03c0.04-0.67,0.6-1.17,1.27-1.14C321.93,581.43,321.97,581.44,322.01,581.44z M319.82,593.76
						c0.06,0.01,0.11,0.02,0.17,0.04c0.64,0.2,0.99,0.87,0.8,1.51c-0.63,2.04-1.38,4.06-2.25,6.01c-0.27,0.61-0.99,0.88-1.59,0.61
						c-0.61-0.27-0.88-0.98-0.61-1.59c0.83-1.85,1.55-3.78,2.15-5.73C318.66,594.02,319.24,593.67,319.82,593.76z M314.71,605.19
						c0.15,0.02,0.3,0.08,0.44,0.16c0.57,0.34,0.75,1.09,0.41,1.66c-1.11,1.82-2.34,3.6-3.66,5.27c-0.41,0.52-1.17,0.61-1.69,0.2
						c-0.52-0.41-0.61-1.17-0.2-1.69c1.26-1.6,2.44-3.29,3.49-5.03C313.76,605.32,314.24,605.11,314.71,605.19z M306.95,615
						c0.25,0.04,0.48,0.15,0.67,0.34c0.47,0.47,0.46,1.24-0.01,1.7c-1.52,1.5-3.15,2.92-4.84,4.21c-0.53,0.4-1.28,0.3-1.69-0.22
						c-0.41-0.53-0.31-1.28,0.22-1.69c1.61-1.24,3.16-2.59,4.61-4.02C306.2,615.06,306.58,614.95,306.95,615z M297.03,622.63
						c0.34,0.05,0.66,0.26,0.85,0.58c0.34,0.57,0.15,1.31-0.43,1.65c-1.84,1.08-3.76,2.06-5.71,2.91c-0.61,0.27-1.32-0.01-1.59-0.62
						c-0.27-0.61,0.01-1.32,0.62-1.59c1.86-0.81,3.7-1.74,5.45-2.78C296.48,622.63,296.76,622.59,297.03,622.63z M285.55,627.61
						c0.45,0.07,0.83,0.39,0.97,0.85c0.19,0.64-0.18,1.31-0.82,1.5c-2.05,0.6-4.15,1.08-6.25,1.43c-0.66,0.11-1.28-0.34-1.38-0.99
						c-0.11-0.66,0.34-1.28,0.99-1.38c2-0.33,4.01-0.79,5.96-1.36C285.21,627.59,285.38,627.59,285.55,627.61z M273.22,629.64
						c0.56,0.09,1,0.56,1.02,1.14c0.03,0.67-0.49,1.23-1.16,1.25c-2.12,0.08-4.28,0.03-6.41-0.15c-0.66-0.07-1.16-0.64-1.1-1.3
						c0.06-0.66,0.64-1.15,1.3-1.1c2.03,0.17,4.09,0.22,6.12,0.14C273.06,629.62,273.14,629.63,273.22,629.64z M254.7,626.91
						c0.07,0.01,0.14,0.03,0.21,0.05c1.66,0.57,3.38,1.06,5.12,1.45c0.26,0.06,0.52,0.12,0.78,0.17c0.65,0.14,1.07,0.78,0.93,1.43
						c-0.14,0.65-0.78,1.09-1.43,0.93c-0.28-0.06-0.55-0.12-0.83-0.18c-1.81-0.41-3.62-0.92-5.36-1.52
						c-0.63-0.22-0.97-0.9-0.75-1.53C253.57,627.15,254.14,626.82,254.7,626.91z"/>
				</g>
				<g class="st43">
					<path class="st44" d="M278.34,528.47c0.65,0.1,1.1,0.71,1.01,1.36c-0.09,0.66-0.7,1.12-1.36,1.02c-1.98-0.28-4-0.45-6-0.49
						c-0.66-0.02-1.19-0.56-1.18-1.23c0.01-0.67,0.56-1.19,1.23-1.18c2.09,0.04,4.21,0.21,6.29,0.51
						C278.33,528.47,278.34,528.47,278.34,528.47z M284.38,529.71c0.04,0.01,0.09,0.02,0.13,0.03c2.03,0.54,4.04,1.21,5.99,1.99
						c0.62,0.25,0.92,0.95,0.67,1.57c-0.25,0.62-0.95,0.92-1.57,0.67c-1.86-0.75-3.78-1.39-5.71-1.9c-0.64-0.17-1.02-0.83-0.85-1.48
						C283.2,529.99,283.78,529.62,284.38,529.71z M266.04,528.23c0.53,0.08,0.96,0.51,1.01,1.07c0.07,0.66-0.41,1.25-1.08,1.32
						c-1.99,0.21-3.99,0.53-5.94,0.98c-0.65,0.15-1.29-0.26-1.44-0.91c-0.15-0.65,0.26-1.29,0.91-1.44
						c2.04-0.46,4.14-0.81,6.23-1.02C265.84,528.21,265.94,528.21,266.04,528.23z M295.81,534.3c0.14,0.02,0.27,0.07,0.4,0.14
						c1.84,1.01,3.63,2.15,5.33,3.38c0.54,0.39,0.66,1.14,0.27,1.68c-0.39,0.54-1.14,0.66-1.68,0.27c-1.62-1.17-3.33-2.26-5.08-3.22
						c-0.58-0.32-0.79-1.06-0.47-1.64C294.82,534.45,295.32,534.23,295.81,534.3z M254.04,530.96c0.42,0.07,0.8,0.35,0.95,0.78
						c0.23,0.63-0.1,1.32-0.73,1.54c-1.88,0.68-3.74,1.48-5.53,2.38c-0.6,0.3-1.32,0.06-1.62-0.53c-0.3-0.59-0.06-1.32,0.53-1.62
						c1.87-0.94,3.82-1.78,5.8-2.49C253.65,530.94,253.85,530.93,254.04,530.96z M243.05,536.49c0.32,0.05,0.62,0.23,0.82,0.52
						c0.37,0.55,0.22,1.3-0.34,1.67c-1.67,1.11-3.29,2.33-4.8,3.63c-0.51,0.43-1.27,0.37-1.7-0.13c-0.43-0.51-0.37-1.27,0.13-1.7
						c1.59-1.36,3.29-2.64,5.03-3.81C242.46,536.5,242.76,536.45,243.05,536.49z M233.7,544.5c0.23,0.04,0.45,0.13,0.63,0.3
						c0.49,0.45,0.52,1.21,0.07,1.7c-1.35,1.48-2.63,3.05-3.79,4.68c-0.39,0.54-1.14,0.67-1.68,0.28c-0.54-0.39-0.67-1.14-0.28-1.68
						c1.22-1.7,2.55-3.36,3.98-4.91C232.91,544.56,233.32,544.44,233.7,544.5z"/>
					<path class="st44" d="M305.82,541.56c0.23,0.04,0.45,0.14,0.63,0.31c0.76,0.7,1.49,1.43,2.19,2.16
						c0.46,0.48,0.44,1.24-0.04,1.7c-0.48,0.46-1.24,0.44-1.7-0.04c-0.67-0.7-1.37-1.39-2.09-2.06c-0.49-0.45-0.51-1.22-0.06-1.7
						C305.04,541.62,305.44,541.5,305.82,541.56z"/>
				</g>
				<g>
					<path class="st44" d="M302.44,556.79c-0.13-0.22-0.39-0.34-0.65-0.29l-7.28,1.46c-2.39-2.51-5.2-4.67-8.35-6.33l-0.57-7.4
						c-0.02-0.26-0.2-0.48-0.45-0.54l-8.62-2.25c-0.25-0.07-0.52,0.04-0.66,0.25l-4.11,6.18c-3.57-0.09-7.07,0.41-10.38,1.44
						l-5.64-4.83c-0.2-0.17-0.48-0.19-0.71-0.06l-7.69,4.5c-0.22,0.13-0.34,0.39-0.29,0.65l1.46,7.28c-2.51,2.39-4.67,5.2-6.33,8.35
						l-7.4,0.57c-0.26,0.02-0.48,0.2-0.54,0.45l-2.25,8.62c-0.07,0.25,0.04,0.52,0.25,0.66l6.18,4.11
						c-0.09,3.57,0.41,7.07,1.44,10.38l-4.83,5.64c-0.17,0.2-0.19,0.48-0.06,0.71l4.5,7.69c0.13,0.22,0.39,0.34,0.65,0.29l7.28-1.46
						c2.39,2.51,5.2,4.67,8.35,6.33l0.57,7.4c0.02,0.26,0.2,0.48,0.45,0.54l8.62,2.25c0.25,0.07,0.52-0.04,0.66-0.25l4.11-6.18
						c3.57,0.09,7.07-0.41,10.38-1.44l5.64,4.83c0.2,0.17,0.48,0.2,0.71,0.06l7.69-4.5c0.22-0.13,0.34-0.39,0.29-0.65l-1.46-7.28
						c2.51-2.39,4.67-5.2,6.33-8.35l7.4-0.57c0.26-0.02,0.48-0.2,0.54-0.45l2.25-8.62c0.07-0.25-0.04-0.52-0.25-0.66l-6.18-4.11
						c0.09-3.57-0.41-7.07-1.44-10.38l4.83-5.64c0.17-0.2,0.19-0.48,0.06-0.71L302.44,556.79z"/>
					<path class="st44" d="M272.36,571.4c1.92,0.3,3.69,1.2,5.08,2.61c1.71,1.74,2.64,4.03,2.62,6.47
						c-0.04,5.02-4.16,9.08-9.19,9.04c-5.03-0.05-9.08-4.16-9.04-9.19c0.02-2.44,0.99-4.72,2.72-6.42c1.74-1.71,4.03-2.64,6.47-2.62
						C271.47,571.29,271.92,571.33,272.36,571.4z M269.9,587.03c0.32,0.05,0.65,0.08,0.98,0.08c3.7,0.03,6.73-2.95,6.76-6.65
						c0.01-1.79-0.67-3.48-1.92-4.76c-1.26-1.28-2.93-1.99-4.73-2l0,0c-1.79-0.01-3.48,0.67-4.76,1.92c-1.28,1.26-1.99,2.93-2,4.73
						C264.21,583.71,266.67,586.52,269.9,587.03z"/>
					<path class="st44" d="M274.26,558.08c0.75,0.12,1.51,0.27,2.26,0.47c1.5,0.39,2.95,0.93,4.33,1.61
						c0.06,0.03,0.12,0.06,0.19,0.09c0.48,0.24,0.73,0.76,0.65,1.26c-0.02,0.12-0.06,0.24-0.12,0.36c-0.3,0.59-1.02,0.83-1.62,0.53
						c-1.28-0.65-2.64-1.16-4.04-1.53l0,0c-0.08-0.02-0.15-0.04-0.23-0.06c-3.32-0.83-6.71-0.81-9.94,0.03
						c-1.75,0.45-3.45,1.14-5.06,2.07c-0.01,0.01-0.03,0.02-0.04,0.02c-0.04,0.02-0.08,0.05-0.12,0.07
						c-4.68,2.74-8.01,7.14-9.38,12.38c-0.18,0.68-0.32,1.36-0.43,2.04c-0.72,4.6,0.17,9.27,2.55,13.34
						c2.74,4.68,7.14,8.01,12.38,9.37c5.24,1.37,10.71,0.61,15.39-2.12c4.68-2.74,8.01-7.14,9.38-12.38
						c0.17-0.67,0.31-1.34,0.42-2.02c0.46-2.94,0.27-5.94-0.57-8.79c-0.05-0.18-0.06-0.35-0.03-0.52c0.07-0.45,0.39-0.84,0.85-0.97
						c0.64-0.19,1.31,0.18,1.5,0.82c0.93,3.19,1.15,6.55,0.64,9.83c-0.12,0.76-0.27,1.51-0.47,2.26
						c-1.53,5.87-5.26,10.79-10.49,13.85c-5.23,3.06-11.34,3.91-17.21,2.38c-5.87-1.53-10.79-5.26-13.85-10.49
						c-2.67-4.55-3.65-9.78-2.85-14.92c0.12-0.76,0.28-1.53,0.48-2.29C251.79,563.42,262.9,556.31,274.26,558.08z"/>
				</g>
			</g>
		</g>
	</g>
</g>
<g id="Layer_4">
	<rect x="187.9" y="308.11" class="st45" width="365.72" height="168.74"/>
	<polygon class="st46" points="437.57,391.72 326.31,348.42 326.31,435.02 	"/>
</g>
</svg>
