<?xml version="1.0" encoding="utf-8"?>
<!-- Generator: Adobe Illustrator 24.1.2, SVG Export Plug-In . SVG Version: 6.00 Build 0)  -->
<svg version="1.1" xmlns="http://www.w3.org/2000/svg" xmlns:xlink="http://www.w3.org/1999/xlink" x="0px" y="0px"
	 viewBox="0 0 815.83 828.57" style="enable-background:new 0 0 815.83 828.57;" xml:space="preserve">
<style type="text/css">
	.st0{display:none;}
	.st1{display:inline;fill:#FFFFFF;}
	.st2{display:inline;fill:url(#SVGID_1_);}
	.st3{display:inline;}
	.st4{fill:#91B3FA;}
	.st5{fill:#BDD0FB;}
	.st6{opacity:0.5;}
	.st7{opacity:0.57;fill:#FFFFFF;}
	.st8{fill:#FFFFFF;}
	.st9{opacity:0.5;fill:#FFFFFF;}
	.st10{fill:url(#SVGID_2_);}
	.st11{fill:url(#SVGID_3_);}
	.st12{fill:url(#SVGID_4_);}
	.st13{opacity:0.6;fill:#FFFFFF;}
	.st14{fill:url(#SVGID_5_);}
	.st15{fill:url(#SVGID_6_);}
	.st16{fill:url(#SVGID_7_);}
	.st17{fill:url(#SVGID_8_);}
	.st18{fill:url(#SVGID_9_);}
	.st19{fill:url(#SVGID_10_);}
	.st20{fill:url(#SVGID_11_);}
	.st21{fill:url(#SVGID_12_);}
	.st22{fill:url(#SVGID_13_);}
	.st23{fill:url(#SVGID_14_);}
	.st24{fill:url(#SVGID_15_);}
	.st25{fill:none;stroke:#FFFFFF;stroke-width:2;stroke-linecap:round;stroke-miterlimit:10;}
	.st26{fill:url(#SVGID_16_);}
	.st27{fill:url(#SVGID_17_);}
	.st28{fill:url(#SVGID_18_);}
	.st29{fill:url(#SVGID_19_);}
	.st30{fill:url(#SVGID_20_);}
	.st31{fill:url(#SVGID_21_);}
	.st32{opacity:0.47;fill:#FFFFFF;}
	.st33{fill:url(#SVGID_22_);}
	.st34{fill:url(#SVGID_23_);}
	.st35{fill:url(#SVGID_24_);}
	.st36{fill:url(#SVGID_25_);}
	.st37{opacity:0.63;fill:#FFFFFF;}
	.st38{opacity:0.3;}
	.st39{opacity:0.85;fill:#FFFFFF;}
	.st40{fill:url(#SVGID_26_);}
	.st41{fill:url(#SVGID_27_);}
	.st42{fill:url(#SVGID_28_);}
	.st43{fill:url(#SVGID_29_);}
	.st44{fill:url(#SVGID_30_);}
	.st45{fill:url(#SVGID_31_);}
	.st46{fill:url(#SVGID_32_);}
	.st47{fill:url(#SVGID_33_);}
	.st48{fill:url(#SVGID_34_);}
	.st49{fill:url(#SVGID_35_);}
	.st50{fill:url(#SVGID_36_);}
	.st51{fill:url(#SVGID_37_);}
	.st52{fill:url(#SVGID_38_);}
	.st53{fill:url(#SVGID_39_);}
	.st54{fill:url(#SVGID_40_);}
	.st55{fill:url(#SVGID_41_);}
	.st56{fill:url(#SVGID_42_);}
	.st57{fill:url(#SVGID_43_);}
	.st58{fill:url(#SVGID_44_);}
	.st59{fill:url(#SVGID_45_);}
	.st60{fill:url(#SVGID_46_);}
	.st61{fill:url(#SVGID_47_);}
	.st62{display:inline;fill:url(#SVGID_48_);}
	.st63{fill:url(#SVGID_49_);}
	.st64{fill:url(#SVGID_50_);}
	.st65{fill:url(#SVGID_51_);}
	.st66{fill:url(#SVGID_52_);}
	.st67{fill:url(#SVGID_53_);}
	.st68{fill:url(#SVGID_54_);}
	.st69{fill:url(#SVGID_55_);}
	.st70{fill:url(#SVGID_56_);}
	.st71{fill:url(#SVGID_57_);}
	.st72{fill:url(#SVGID_58_);}
	.st73{fill:url(#SVGID_59_);}
	.st74{fill:url(#SVGID_60_);}
	.st75{fill:url(#SVGID_61_);}
	.st76{fill:url(#SVGID_62_);}
	.st77{fill:url(#SVGID_63_);}
	.st78{fill:url(#SVGID_64_);}
	.st79{fill:url(#SVGID_65_);}
	.st80{fill:url(#SVGID_66_);}
	.st81{fill:url(#SVGID_67_);}
	.st82{fill:url(#SVGID_68_);}
	.st83{fill:url(#SVGID_69_);}
	.st84{opacity:0.85;fill:none;stroke:#FFFFFF;stroke-miterlimit:10;}
	.st85{opacity:0.94;fill:#FFFFFF;}
</style>
<g id="Background" class="st0">
	<rect x="-1336.38" y="-185.92" class="st1" width="3500" height="1500"/>
</g>
<g id="Metaphor_illustration">
	<g>
		<g>
			<text transform="matrix(1 0 0 1 -849.6202 1082.868)" style="fill:#898989; font-family:'Lato-Light'; font-size:100px;">Guides</text>
		</g>
	</g>
	<g>
		<text transform="matrix(1 0 0 1 1306.5464 1082.868)" style="fill:#898989; font-family:'Lato-Light'; font-size:100px;">Suppo</text>
		<text transform="matrix(1 0 0 1 1630.5903 1082.868)" style="fill:#898989; font-family:'Lato-Light'; font-size:100px;">r</text>
		<text transform="matrix(1 0 0 1 1691.4409 1082.868)" style="fill:#898989; font-family:'Lato-Light'; font-size:100px;">t</text>
	</g>
	<g>
		<g>
			<text transform="matrix(1 0 0 1 316.9072 1082.868)" style="fill:#898989; font-family:'Lato-Light'; font-size:100px;">F</text>
			<text transform="matrix(1 0 0 1 368.3564 1082.868)" style="fill:#898989; font-family:'Lato-Light'; font-size:100px;">A</text>
			<text transform="matrix(1 0 0 1 431.3051 1082.868)" style="fill:#898989; font-family:'Lato-Light'; font-size:100px;">Q</text>
		</g>
	</g>
	<g class="st0">
		<linearGradient id="SVGID_1_" gradientUnits="userSpaceOnUse" x1="-166.4922" y1="1050.2955" x2="-875.4557" y2="169.8075">
			<stop  offset="0" style="stop-color:#DAE3FE"/>
			<stop  offset="1" style="stop-color:#E9EFFD"/>
		</linearGradient>
		<path class="st2" d="M-361.53,703.06c-16.28,17.14-31.69,28.2-43.87,36.93c-143.1,102.68-312.43,72.75-348.41,65.44
			c-53.14-10.79-155.86-31.66-230.13-118.99c-112.36-132.13-94.86-340.3-7.71-477.71c15.94-25.14,100.15-164.64,271.3-187.01
			c103.58-13.54,224.32,13.77,311.75,87.02C-225.06,262.51-238.13,573.15-361.53,703.06z"/>
		<g class="st3">
			<path class="st4" d="M-775.76,500.02c-14.89-45.92-43.35-82.45-76.93-103.86c-30.02-19.14-51.75-49.04-59.95-83.65
				c-0.86-3.64-1.88-7.29-3.06-10.93c-17.9-55.22-66.26-89.02-108-75.49c-41.74,13.53-61.06,69.27-43.16,124.49
				c3.66,11.29,8.6,21.69,14.49,30.96c18.8,29.6,26.31,65.16,19.69,99.61c-5.92,30.79-4.04,65.42,7.12,99.84
				c16.65,51.34,50.27,90.95,89.04,110.81c14.66,7.51,27.91,17.63,38.9,29.89c18.27,20.36,43.89,29.87,67.32,22.27
				c25.28-8.2,40.94-34,41.89-64.04c0.54-17,4.41-33.67,10.8-49.45C-762.53,593.24-760.7,546.45-775.76,500.02z"/>
			<path class="st5" d="M-990.03,280.11c17.29,34.73,33.44,69.99,49.23,105.41c3.95,8.85,7.76,17.77,11.6,26.68l5.75,13.36
				l5.64,13.41c3.73,8.95,7.58,17.85,11.2,26.85l10.88,26.98c7.02,18.08,14.2,36.1,20.88,54.31c3.35,9.1,6.89,18.13,10.06,27.3
				l9.64,27.46c12.48,36.73,24.04,73.8,33.7,111.38l-1.62,0.43l-8.3-27.84l-2.06-6.96l-2.23-6.91l-4.49-13.81l-4.46-13.82
				c-1.48-4.61-3.13-9.16-4.69-13.75c-3.18-9.15-6.28-18.32-9.51-27.44c-13.17-36.42-26.83-72.66-41.24-108.62
				c-7.34-17.92-14.52-35.91-21.99-53.78l-5.56-13.42l-5.67-13.37c-3.78-8.92-7.55-17.84-11.42-26.72
				c-7.58-17.83-15.29-35.6-23.15-53.31c-7.76-17.75-15.7-35.43-23.68-53.08L-990.03,280.11z"/>
			<g class="st6">
				<path class="st5" d="M-1028.39,389.92c-0.41-0.03-0.79-0.24-1.05-0.6c-30.06-43-29.68-77.8-24.06-99.42
					c6.1-23.49,19.16-36.58,19.72-37.13c0.55-0.55,1.44-0.54,1.99,0.01c0.55,0.55,0.54,1.44-0.01,1.99
					c-0.13,0.13-13.13,13.18-19.01,35.97c-5.42,21.02-5.71,54.91,23.68,96.96c0.45,0.64,0.29,1.52-0.35,1.96
					C-1027.76,389.87-1028.08,389.95-1028.39,389.92z"/>
			</g>
		</g>
		<g class="st3">
			<path class="st5" d="M-910.02,590.17c-12.72-23.96-32.03-41.41-52.67-50c-18.46-7.68-33.39-22.11-41.31-40.47
				c-0.83-1.93-1.75-3.85-2.76-5.75c-15.3-28.82-45.32-42.83-67.05-31.29c-21.73,11.54-26.94,44.25-11.64,73.07
				c3.13,5.89,6.87,11.16,11.04,15.73c13.29,14.55,20.92,33.5,20.64,53.21c-0.25,17.61,4.18,36.59,13.72,54.55
				c14.23,26.79,36.68,45.45,60.04,52.67c8.84,2.73,17.14,7.05,24.41,12.76c12.09,9.49,27.17,12.27,39.37,5.79
				c13.16-6.99,19.28-22.78,16.86-39.5c-1.37-9.46-0.86-19.06,1.12-28.41C-893.58,640.47-897.16,614.4-910.02,590.17z"/>
			<path class="st7" d="M-1049.93,489.28c12.95,17.54,25.33,35.48,37.52,53.55c3.05,4.52,6.03,9.08,9.02,13.63l4.49,6.83l4.43,6.87
				c2.94,4.59,5.93,9.14,8.82,13.77l8.65,13.87c5.65,9.32,11.38,18.6,16.86,28.02c2.74,4.71,5.58,9.36,8.23,14.13l8.01,14.26
				c10.49,19.11,20.51,38.5,29.53,58.36l-0.85,0.4l-7.31-14.6l-1.82-3.65l-1.91-3.61l-3.83-7.21l-3.82-7.21
				c-1.27-2.41-2.63-4.77-3.94-7.15c-2.65-4.75-5.26-9.53-7.94-14.26c-10.85-18.87-21.94-37.6-33.42-56.1
				c-5.81-9.21-11.54-18.46-17.42-27.63l-4.39-6.89l-4.44-6.85c-2.96-4.57-5.92-9.14-8.93-13.67c-5.94-9.13-11.94-18.21-18.01-27.25
				c-6.03-9.07-12.14-18.08-18.28-27.07L-1049.93,489.28z"/>
			<g class="st6">
				<path class="st8" d="M-1054.2,552.36c-0.24,0.04-0.5-0.03-0.69-0.21c-23.35-21.04-27.83-41.4-27.47-54.78
					c0.39-14.54,6.25-23.94,6.5-24.33c0.25-0.39,0.77-0.51,1.16-0.26c0.39,0.25,0.51,0.77,0.26,1.16
					c-0.06,0.09-5.88,9.47-6.24,23.56c-0.33,13,4.08,32.82,26.91,53.39c0.35,0.31,0.37,0.85,0.06,1.19
					C-1053.84,552.24-1054.02,552.33-1054.2,552.36z"/>
			</g>
		</g>
		<g class="st3">
			<path class="st4" d="M-578.31,433.79c9.93-47.28,34.38-86.67,65.52-111.55c27.84-22.24,46.29-54.31,50.76-89.63
				c0.47-3.71,1.1-7.45,1.89-11.2c11.95-56.87,56.47-95.65,99.45-86.62c42.98,9.03,68.14,62.45,56.19,119.31
				c-2.44,11.63-6.25,22.5-11.13,32.35c-15.56,31.46-19.26,67.65-9,101.23c9.17,30.01,10.98,64.68,3.53,100.13
				c-11.11,52.87-40.36,95.87-76.83,119.75c-13.8,9.03-25.9,20.52-35.54,33.88c-16.01,22.21-40.5,34.39-64.63,29.32
				c-26.03-5.47-44.36-29.48-48.5-59.28c-2.34-16.86-7.97-33.04-16.01-48.07C-581.57,527.98-588.36,481.6-578.31,433.79z"/>
			<path class="st5" d="M-388.44,192.13c-13.51,36.4-25.84,73.21-37.78,110.15c-2.99,9.23-5.83,18.51-8.7,27.78l-4.3,13.91
				l-4.19,13.94c-2.76,9.31-5.64,18.57-8.29,27.91l-7.96,28.01c-5.06,18.74-10.29,37.44-15,56.27c-2.37,9.41-4.93,18.78-7.11,28.24
				l-6.67,28.35c-8.51,37.89-16.07,76.01-21.69,114.43l1.65,0.26l5.3-28.59l1.31-7.15l1.49-7.12l3-14.22l2.97-14.23
				c0.98-4.74,2.14-9.45,3.2-14.18c2.19-9.44,4.3-18.9,6.55-28.32c9.24-37.65,18.98-75.17,29.49-112.49
				c5.4-18.62,10.64-37.28,16.16-55.87l4.11-13.95l4.22-13.91c2.81-9.28,5.62-18.56,8.53-27.8c5.65-18.55,11.44-37.06,17.37-55.52
				c5.84-18.49,11.85-36.93,17.92-55.35L-388.44,192.13z"/>
			<path class="st5" d="M-338.58,297.34c0.4-0.07,0.76-0.32,0.98-0.71c25.35-45.99,21.26-80.59,13.38-101.51
				c-8.57-22.73-22.96-34.37-23.57-34.85c-0.61-0.49-1.49-0.38-1.98,0.23c-0.48,0.61-0.38,1.5,0.22,1.98
				c0.14,0.11,14.47,11.72,22.74,33.78c7.63,20.35,11.53,54.04-13.26,99.01c-0.38,0.68-0.13,1.54,0.55,1.92
				C-339.22,297.36-338.89,297.4-338.58,297.34z"/>
		</g>
		<g class="st3">
			<path class="st5" d="M-467.86,588.79c14.66-25.55,36.23-43.8,58.94-52.38c20.3-7.67,37.02-22.81,46.27-42.44
				c0.97-2.06,2.04-4.11,3.2-6.14c17.63-30.73,50.7-44.86,73.87-31.57c23.17,13.29,27.65,48.98,10.02,79.7
				c-3.61,6.28-7.86,11.87-12.54,16.67c-14.94,15.32-23.89,35.61-24.29,57c-0.35,19.12-5.84,39.55-16.83,58.71
				c-16.39,28.57-41.42,48.01-67.03,55.01c-9.68,2.65-18.85,7.04-26.95,12.98c-13.45,9.87-29.92,12.34-42.92,4.88
				c-14.03-8.05-20.11-25.41-16.89-43.46c1.82-10.21,1.62-20.65-0.2-30.86C-487.49,642.78-482.68,614.62-467.86,588.79z"/>
			<path class="st7" d="M-312.45,484.3c-14.68,18.57-28.75,37.6-42.62,56.77c-3.47,4.79-6.86,9.64-10.27,14.47l-5.11,7.25l-5.05,7.3
				c-3.35,4.88-6.76,9.71-10.06,14.63l-9.88,14.75c-6.46,9.91-13.01,19.77-19.29,29.81c-3.15,5.01-6.39,9.96-9.43,15.04l-9.2,15.18
				c-12.07,20.37-23.63,41.05-34.12,62.27l0.91,0.46l8.45-15.58l2.1-3.9l2.2-3.85l4.42-7.68l4.4-7.69c1.46-2.57,3.02-5.08,4.53-7.62
				c3.05-5.06,6.05-10.15,9.13-15.19c12.44-20.09,25.15-40.02,38.27-59.68c6.63-9.78,13.18-19.62,19.88-29.36l5.01-7.32l5.07-7.27
				c3.37-4.85,6.75-9.7,10.17-14.52c6.77-9.69,13.6-19.34,20.52-28.93c6.86-9.63,13.82-19.19,20.8-28.73L-312.45,484.3z"/>
			<path class="st9" d="M-310.06,552.89c0.26,0.05,0.54-0.02,0.76-0.2c26.09-22,31.67-43.94,31.76-58.47
				c0.1-15.79-5.93-26.2-6.18-26.63c-0.26-0.44-0.82-0.58-1.25-0.32c-0.44,0.26-0.58,0.82-0.33,1.25c0.06,0.1,6.05,10.48,5.93,25.79
				c-0.11,14.12-5.6,35.47-31.11,56.98c-0.39,0.33-0.44,0.9-0.11,1.29C-310.45,552.75-310.26,552.86-310.06,552.89z"/>
		</g>
		<g class="st3">
			<path class="st4" d="M-911.44,697.46c0,0-9.07-62.86,61.65-67.69c70.71-4.84,415.82,7.25,415.82,7.25s-14.51,70.11,0,100.33
				c-66.48-0.6-450.88,0-450.88,0S-913.69,723.5-911.44,697.46z"/>
			<linearGradient id="SVGID_2_" gradientUnits="userSpaceOnUse" x1="-685.7251" y1="465.3652" x2="-659.5018" y2="838.0103">
				<stop  offset="0" style="stop-color:#09005D"/>
				<stop  offset="1" style="stop-color:#1A0F91"/>
			</linearGradient>
			<path class="st10" d="M-427.32,729.87c-56.71,0-426.98,0-435.16,0c-8.86,0-42.71,2.21-41.9-35.67
				c0.39-18.2,10.08-29.42,20.05-36.53c9.24-6.59,20.31-9.8,31.66-9.8c58.07,0,355.65,0,396.34,0c37.13,0,29.99-49.51,29.99-49.51
				l-422.44,10.39c0,0-62.86,37.21-69.56,75.16c-1.58,8.97-1.32,17.23,0,24.3c3.84,20.56,21.82,35.65,42.74,35.65h448.29
				c4.01,0,7.25-2.99,7.25-7C-420.07,732.86-423.31,729.87-427.32,729.87z"/>
			<linearGradient id="SVGID_3_" gradientUnits="userSpaceOnUse" x1="-696.0092" y1="-385.6707" x2="-603.9422" y2="922.6461">
				<stop  offset="0" style="stop-color:#09005D"/>
				<stop  offset="1" style="stop-color:#1A0F91"/>
			</linearGradient>
			<path class="st11" d="M-452.92,88.87h-405.42v550h405.42c15.47,0,26.58-14.39,26.58-29.86V116.25
				C-426.34,100.78-437.45,88.87-452.92,88.87z"/>
			<linearGradient id="SVGID_4_" gradientUnits="userSpaceOnUse" x1="-918.3429" y1="386.0359" x2="-857.6475" y2="386.0359">
				<stop  offset="0" style="stop-color:#09005D"/>
				<stop  offset="1" style="stop-color:#1A0F91"/>
			</linearGradient>
			<path class="st12" d="M-857.65,88.23c0,0-65.27,13-60.44,63.31c4.84,50.31-0.26,532.29-0.26,532.29s19.6-46.82,60.7-46.82
				C-857.65,533.07-857.65,88.23-857.65,88.23z"/>
			<path class="st13" d="M-477.34,656.96c0,0.5-0.41,0.91-0.91,0.91h-316.19c-0.5,0-0.91-0.41-0.91-0.91v-1.19
				c0-0.5,0.41-0.91,0.91-0.91h316.19c0.5,0,0.91,0.41,0.91,0.91V656.96z"/>
			<path class="st13" d="M-470.34,688.11c0,0.5-0.86,1.75-1.44,1.75h-367.93c-0.58,0-2.63-1.25-2.63-1.75v-1.34
				c0-0.5,2.05,0.09,2.63,0.09h367.93c0.58,0,1.44-0.59,1.44-0.09V688.11z"/>
			<path class="st13" d="M-462.34,716.06c0,1-0.81,1.81-1.81,1.81h-231.37c-1,0-1.81-0.81-1.81-1.81v-0.37c0-1,0.81-1.81,1.81-1.81
				h231.37c1,0,1.81,0.81,1.81,1.81V716.06z"/>
			<g>
				<g>
					<path class="st4" d="M-843.34,578.36c-0.79,0-1-0.64-1-1.43V374.86c0-0.79,0.21-1.43,1-1.43c0.79,0,1,0.64,1,1.43v202.07
						C-842.34,577.72-842.55,578.36-843.34,578.36z"/>
				</g>
				<g>
					<path class="st4" d="M-843.34,344.76c-0.79,0-1-0.64-1-1.43v-97.45c0-0.79,0.21-1.43,1-1.43c0.79,0,1,0.64,1,1.43v97.45
						C-842.34,344.12-842.55,344.76-843.34,344.76z"/>
				</g>
				<g>
					<path class="st4" d="M-843.34,161.32c-0.79,0-1-0.64-1-1.43v-54.46c0-0.79,0.21-1.43,1-1.43c0.79,0,1,0.64,1,1.43v54.46
						C-842.34,160.68-842.55,161.32-843.34,161.32z"/>
				</g>
			</g>
			<g>
				<path class="st8" d="M-657.92,265.95c-18.95-0.49-32.31-5.5-40.24-14.99c-7.89-9.45-11.82-21.01-11.82-34.74
					c0-13.71,4.28-25.01,12.88-33.91c8.63-8.94,21.84-13.43,39.73-13.43c18.05,0,31.88,4.13,41.42,12.4
					c9.57,8.32,14.38,20.18,14.38,35.54s-4.63,27.54-13.83,36.51C-624.57,262.26-638.78,266.45-657.92,265.95z"/>
				<rect x="-705.52" y="300.25" class="st8" width="98.96" height="245.83"/>
				<path class="st8" d="M-593.66,546.08h-149.57c-1.01,0-1.83-0.82-1.83-1.83v-7.08c0-1.4,1.14-2.54,2.54-2.54H-594
					c1.06,0,1.92,0.86,1.92,1.92v7.95C-592.08,545.38-592.79,546.08-593.66,546.08z"/>
				<path class="st8" d="M-606.57,311.7h-150.88c-1.16,0-2.1-0.94-2.1-2.1v-7.63c0-0.95,0.77-1.71,1.71-1.71h149.51
					c0.98,0,1.77,0.79,1.77,1.77V311.7z"/>
			</g>
		</g>
		<g class="st3">
			<g>
				
					<linearGradient id="SVGID_5_" gradientUnits="userSpaceOnUse" x1="-734.3193" y1="-117.4505" x2="-792.2475" y2="1.9525" gradientTransform="matrix(0.987 0.1608 -0.1608 0.987 -99.3336 572.2373)">
					<stop  offset="0" style="stop-color:#4F52FF"/>
					<stop  offset="1" style="stop-color:#4042E2"/>
				</linearGradient>
				<path class="st14" d="M-916.5,438.71c-0.3,0.56-18.92,14.27-18.92,14.27s4.11,29.43,20.82,41.05
					c18.37,12.78,44.31-10.52,44.31-10.52s20.64,4.91,31.62-38.06c2.52-9.86-12.02-10.69-29.57-8.88
					C-890.87,438.91-916.5,438.71-916.5,438.71z"/>
				<linearGradient id="SVGID_6_" gradientUnits="userSpaceOnUse" x1="-962.7325" y1="703.53" x2="-802.7329" y2="548.5305">
					<stop  offset="0" style="stop-color:#FF928E"/>
					<stop  offset="1" style="stop-color:#FE7062"/>
				</linearGradient>
				<path class="st15" d="M-951.32,539.12c7.29-5.01,15.35-8.79,23.89-11.11c3.21-0.87,20.53,4.16,31.24,3.92
					c14.7-0.34,29.67-7.03,41.78-4.01c12.04,3,21.89,6.92,27.58,10.96c17.03,12.11,27.02,34.69,33.12,57.06
					c-11.54,11.84-26.05,17.1-26.05,17.1l-2.68,108.72l-64.29,32.89l-73.38-36.84l2.63-106.25c0,0-23.3-10.85-25.01-14.8
					C-984.2,592.83-971.87,553.26-951.32,539.12z"/>
				<linearGradient id="SVGID_7_" gradientUnits="userSpaceOnUse" x1="-997.3624" y1="573.0231" x2="-875.1965" y2="868.1252">
					<stop  offset="0" style="stop-color:#FEBBBA"/>
					<stop  offset="1" style="stop-color:#FF928E"/>
				</linearGradient>
				<path class="st16" d="M-981.41,596.3c0,0-31.22,86.57,39.98,122.15c14.78-1.96,9.1-26.52,9.1-26.52s-30.94-6.85-21.65-79.06
					C-962.53,605.83-981.41,596.3-981.41,596.3z"/>
				
					<linearGradient id="SVGID_8_" gradientUnits="userSpaceOnUse" x1="-6269.0498" y1="572.3889" x2="-6146.8843" y2="867.491" gradientTransform="matrix(-1 0 0 1 -7049.8413 0)">
					<stop  offset="0" style="stop-color:#FEBBBA"/>
					<stop  offset="1" style="stop-color:#FF928E"/>
				</linearGradient>
				<path class="st17" d="M-795.21,596.3c0,0,21.49,90.36-39.98,122.15c-14.79-1.96-9.1-26.52-9.1-26.52s24.93-12.28,21.65-79.06
					C-814.09,605.83-795.21,596.3-795.21,596.3z"/>
				<linearGradient id="SVGID_9_" gradientUnits="userSpaceOnUse" x1="-888.8495" y1="611.3006" x2="-895.1864" y2="867.9518">
					<stop  offset="0" style="stop-color:#09005D"/>
					<stop  offset="1" style="stop-color:#1A0F91"/>
				</linearGradient>
				<path class="st18" d="M-828.32,724.52h-124.31c-4.58,0-8.33-3.75-8.33-8.33v-78.54c0-4.58,3.75-8.33,8.33-8.33h124.31
					c4.58,0,8.33,3.75,8.33,8.33v78.54C-819.98,720.77-823.73,724.52-828.32,724.52z"/>
				<g>
					
						<linearGradient id="SVGID_10_" gradientUnits="userSpaceOnUse" x1="-809.3775" y1="744.2361" x2="-742.618" y2="744.2361" gradientTransform="matrix(1 7.700000e-03 -7.700000e-03 1 -0.4154 27.9124)">
						<stop  offset="0" style="stop-color:#09005D"/>
						<stop  offset="1" style="stop-color:#1A0F91"/>
					</linearGradient>
					<path class="st19" d="M-758.15,752.75c-16.13-3.7-53.42-1.71-53.42-1.71l-1.52,4.11l-2.51,20.42c0,0,35.51,6.4,53.01,6.39
						c1.79,0,3.42-0.27,4.91-0.73c0.53-0.48,1.06-0.98,1.55-1.51C-748.7,771.59-750.84,759.67-758.15,752.75z"/>
					<linearGradient id="SVGID_11_" gradientUnits="userSpaceOnUse" x1="-771.4601" y1="645.5464" x2="-841.929" y2="836.4193">
						<stop  offset="0" style="stop-color:#FEBBBA"/>
						<stop  offset="1" style="stop-color:#FF928E"/>
					</linearGradient>
					<path class="st20" d="M-822.28,749.89l6.31,0.27c3.39,0.14,6.59,1.8,8.87,4.59c2.28,2.79,3.45,6.48,3.25,10.24
						c-0.16,3-1.39,5.8-3.42,7.79c-2.03,1.99-4.69,3-7.39,2.81l-9.66-0.69L-822.28,749.89z"/>
				</g>
				<g>
					
						<linearGradient id="SVGID_12_" gradientUnits="userSpaceOnUse" x1="-6760.3101" y1="710.448" x2="-6693.522" y2="710.448" gradientTransform="matrix(-0.9998 -0.02 -0.02 0.9998 -7722.293 -79.9255)">
						<stop  offset="0" style="stop-color:#09005D"/>
						<stop  offset="1" style="stop-color:#1A0F91"/>
					</linearGradient>
					<path class="st21" d="M-1034.6,750.79c16.22-3.21,53.44-0.07,53.44-0.07l1.41,4.15l2,20.48c0,0-35.66,5.31-53.15,4.76
						c-1.79-0.06-3.41-0.37-4.89-0.88c-0.52-0.5-1.03-1.01-1.51-1.56C-1044.52,769.33-1042.08,757.48-1034.6,750.79z"/>
					<linearGradient id="SVGID_13_" gradientUnits="userSpaceOnUse" x1="-912.6461" y1="588.0264" x2="-983.1523" y2="779.0002">
						<stop  offset="0" style="stop-color:#FEBBBA"/>
						<stop  offset="1" style="stop-color:#FF928E"/>
					</linearGradient>
					<path class="st22" d="M-970.42,749.89l-6.32,0.08c-3.39,0.04-6.63,1.59-8.98,4.31c-2.35,2.72-3.61,6.37-3.51,10.13
						c0.08,3,1.24,5.84,3.22,7.89c1.98,2.05,4.61,3.14,7.32,3.03l9.67-0.39L-970.42,749.89z"/>
				</g>
				<linearGradient id="SVGID_14_" gradientUnits="userSpaceOnUse" x1="-639.7094" y1="565.3288" x2="-822.9033" y2="702.9432">
					<stop  offset="0" style="stop-color:#4F52FF"/>
					<stop  offset="1" style="stop-color:#4042E2"/>
				</linearGradient>
				<path class="st23" d="M-753.64,688.75c-7.32-16.84-25.21-19.57-40.44-11.7c-0.27,0.35-96.72,49.78-181.79,71.45
					c2.44,7.81,3.69,16.11,3.96,24.28c0.05,1.82,0.02,3.61-0.09,5.38c65.23-3.35,136.03-25.11,196.87-44.22
					C-756.26,727.86-745.53,707.41-753.64,688.75z"/>
				<linearGradient id="SVGID_15_" gradientUnits="userSpaceOnUse" x1="-907.2545" y1="765.2889" x2="-955.2672" y2="642.8567">
					<stop  offset="0" style="stop-color:#4F52FF"/>
					<stop  offset="1" style="stop-color:#4042E2"/>
				</linearGradient>
				<path class="st24" d="M-821.82,774.06c-0.25-9.41,1.57-18.17,5.49-26.28c0.11-0.37,0.25-0.73,0.36-1.09
					c-4.86-1.5-11.13-3.54-19.38-6.34c-60.4-20.67-106.49-41.55-150.47-65.57c-17.09-9.33-36.51-3.08-41.98,17.14
					c-4.88,18.05,5.84,33.46,22.11,38.87c48.68,16.2,23.34,11.7,39.24,16.82c42.7,13.2,95.84,25.23,144.72,28.52
					C-821.76,775.43-821.8,774.74-821.82,774.06z"/>
				<path class="st25" d="M-895.37,765.77"/>
				<path class="st25" d="M-965.39,747.91"/>
				<linearGradient id="SVGID_16_" gradientUnits="userSpaceOnUse" x1="-890.1182" y1="597.3889" x2="-891.7437" y2="455.9614">
					<stop  offset="0" style="stop-color:#FEBBBA"/>
					<stop  offset="1" style="stop-color:#FF928E"/>
				</linearGradient>
				<path class="st26" d="M-927.43,528.01c0,0,6.5,28.15,38.04,27.57c32.12-0.58,34.99-27.66,34.99-27.66l-20.98-4.49l-1.75-23.38
					l-31.57,2.34l-0.58,22.21L-927.43,528.01z"/>
				
					<linearGradient id="SVGID_17_" gradientUnits="userSpaceOnUse" x1="-793.7153" y1="75.2531" x2="-788.6517" y2="-47.8137" gradientTransform="matrix(0.987 0.1608 -0.1608 0.987 -99.3336 572.2373)">
					<stop  offset="0" style="stop-color:#FEBBBA"/>
					<stop  offset="1" style="stop-color:#FF928E"/>
				</linearGradient>
				<path class="st27" d="M-904.28,433.8c0,0-36.17,70.07,6.74,87.07c30.27,11.99,49.24-46.53,43.58-62.38
					c-8.75-24.51-14.52-21.6-14.52-21.6L-904.28,433.8z"/>
				<linearGradient id="SVGID_18_" gradientUnits="userSpaceOnUse" x1="-801.0057" y1="379.0758" x2="-955.4981" y2="488.5703">
					<stop  offset="0" style="stop-color:#4F52FF"/>
					<stop  offset="1" style="stop-color:#4042E2"/>
				</linearGradient>
				<path class="st28" d="M-845.25,427.42c17.87,4.91,2.6,43.67-24.31,34.5c-26.91-9.17-37.48-9.03-41.67-1.64
					c-4.19,7.39-5.09,33.62-14.19,20.66c-9.97-14.22-15.53-42.75-3.31-51.95c10.93-8.22,13.48-20.97,26.59-20.53
					c17.4,0.59,30.85-7.13,38.71-1.56C-854.41,413.28-858.4,423.81-845.25,427.42z"/>
				
					<linearGradient id="SVGID_19_" gradientUnits="userSpaceOnUse" x1="-1161.5594" y1="807.0297" x2="-1153.6244" y2="614.1734" gradientTransform="matrix(0.9911 -0.1329 0.1329 0.9911 132.709 -419.3111)">
					<stop  offset="0" style="stop-color:#FEBBBA"/>
					<stop  offset="1" style="stop-color:#FF928E"/>
				</linearGradient>
				<path class="st29" d="M-912.88,466.31c0,0-7.71-8.3-8.95,1.7c-1.23,10.01,2.73,22.89,7.37,15.83
					C-909.81,476.78-912.88,466.31-912.88,466.31z"/>
			</g>
			<linearGradient id="SVGID_20_" gradientUnits="userSpaceOnUse" x1="-889.5621" y1="591.4833" x2="-893.6675" y2="787.9504">
				<stop  offset="0" style="stop-color:#53D8FF"/>
				<stop  offset="1" style="stop-color:#3840F7"/>
			</linearGradient>
			<path class="st30" d="M-882.15,655.1c0.75,5.05-1.96,9.64-7.01,10.38c-5.05,0.75-9.75-2.74-10.5-7.79
				c-0.75-5.05,1.56-10.07,6.62-10.82C-888,646.13-882.9,650.05-882.15,655.1z"/>
		</g>
	</g>
	<g>
		<linearGradient id="SVGID_21_" gradientUnits="userSpaceOnUse" x1="921.9117" y1="1070.4827" x2="192.5782" y2="164.6962">
			<stop  offset="0" style="stop-color:#DAE3FE"/>
			<stop  offset="1" style="stop-color:#E9EFFD"/>
		</linearGradient>
		<path class="st31" d="M721.27,713.27c-16.75,17.64-32.6,29.01-45.13,38c-147.21,105.63-321.4,74.84-358.42,67.32
			c-54.67-11.1-160.34-32.57-236.74-122.41C-34.61,560.25-16.61,346.1,73.05,204.74c16.4-25.86,103.03-169.37,279.09-192.39
			C458.69-1.57,582.9,26.52,672.85,101.88C861.66,260.06,848.22,579.62,721.27,713.27z"/>
		<g>
			<path class="st4" d="M557.72,800.87c-1.42-0.19-2.69-0.94-3.54-2.09c-12.43-16.75-102.77-147.79,17.47-267.58
				C685.8,417.49,737.54,394.14,744.42,327.33c0.8-7.8,11.35-9.68,14.82-2.64c25.94,52.57,66.35,175.24-67.38,255.75
				c-147.52,88.82-135.43,186.18-128.29,213.85C564.51,797.94,561.47,801.38,557.72,800.87L557.72,800.87z"/>
			<path class="st4" d="M576.02,803.36c-3.36-0.46-6.02-3.05-6.53-6.39c-3.52-22.79-12.17-107.94,50.56-130.52
				c69.06-24.86,124.81,39.46,175.58-10.88c2.67-2.65,7.16-0.34,6.52,3.37c-4.52,26.3-24.64,87.2-114.18,99.46
				c-95.84,13.12-106.62,24.11-104.69,37.75C583.88,800.35,580.23,803.93,576.02,803.36L576.02,803.36z"/>
			<path class="st32" d="M741.08,395.45c-1.17,4.96-2.73,9.61-4.58,14.23c-1.82,4.61-3.92,9.11-6.21,13.51
				c-4.53,8.83-9.97,17.18-15.93,25.14c-11.99,15.88-26.51,29.82-42.5,41.65c-7.98,5.88-16.51,11.28-24.94,16.17
				c-8.21,4.76-16.11,10.09-23.67,15.86c-15.14,11.53-28.87,24.92-40.99,39.6c-24.15,29.37-41.29,64.82-46.93,102.56
				c-2.88,18.83-2.91,38.11-0.32,57.09c2.56,19.01,7.98,37.62,15.13,55.57c0.39,0.96-0.08,2.05-1.03,2.43
				c-0.92,0.37-1.97-0.05-2.39-0.94c-8.35-17.74-14.6-36.59-18.05-56.06c-1.77-9.72-2.81-19.6-3.11-29.52
				c-0.24-9.91,0.18-19.87,1.43-29.73c2.4-19.75,7.97-39.09,15.99-57.3c8.05-18.22,18.68-35.24,31.09-50.76
				c12.41-15.55,26.81-29.45,42.56-41.6c7.89-6.06,16.14-11.67,24.75-16.71c8.43-4.84,16.43-9.75,24.18-15.34
				c15.47-11.05,29.77-23.81,42.06-38.36c6.23-7.22,11.86-14.94,17.02-22.99c5.05-8.07,9.77-16.58,13.16-25.38l0.04-0.11
				c0.34-0.88,1.33-1.32,2.2-0.98C740.84,393.77,741.28,394.63,741.08,395.45z"/>
			<path class="st32" d="M572.04,787.91c0.29-0.82,0.2-1.59,0.17-2.38l-0.07-2.35l-0.05-4.69c0.01-3.13,0.07-6.26,0.21-9.38
				c0.28-6.25,0.81-12.5,1.65-18.71c1.71-12.41,4.52-24.78,9.53-36.43c4.95-11.57,12.45-22.63,23.34-29.85
				c5.42-3.55,11.54-6.07,17.88-7.36c6.33-1.33,12.84-1.53,19.21-0.97c24.95,2.89,49.4,7.68,73.92,11.56
				c12.21,1.82,24.6,3.45,36.59,1.81c2.98-0.44,5.92-1.09,8.77-2c2.82-0.98,5.59-2.14,8.18-3.66c5.21-2.98,9.8-7.05,13.89-11.56
				l0.01-0.01c0.56-0.62,1.53-0.67,2.15-0.1c0.61,0.56,0.67,1.5,0.13,2.12c-4.15,4.78-8.9,9.2-14.44,12.53
				c-2.75,1.69-5.72,3.01-8.75,4.13c-3.06,1.06-6.2,1.82-9.37,2.36c-12.77,1.87-25.43,0.28-37.78-1.41
				c-12.39-1.76-24.62-4.06-36.89-6.05c-12.24-1.99-24.62-3.92-36.8-5.35c-6.02-0.58-12.1-0.44-17.96,0.74
				c-5.87,1.13-11.49,3.4-16.51,6.62c-10.13,6.45-17.48,16.71-22.47,27.82c-5.05,11.17-8.05,23.25-9.95,35.45
				c-0.94,6.11-1.58,12.27-1.97,18.45c-0.19,3.09-0.32,6.18-0.38,9.28l-0.03,4.64l0.03,2.32c0.02,0.77-0.01,1.56,0.36,2.29
				c0.36,0.69,0.09,1.54-0.6,1.9c-0.69,0.36-1.54,0.09-1.9-0.6c-0.19-0.36-0.2-0.76-0.08-1.12L572.04,787.91z"/>
		</g>
		<g>
			<g>
				<linearGradient id="SVGID_22_" gradientUnits="userSpaceOnUse" x1="1447.8914" y1="-561.7289" x2="-76.2609" y2="737.4">
					<stop  offset="0" style="stop-color:#E1473D"/>
					<stop  offset="1" style="stop-color:#E9605A"/>
				</linearGradient>
				<path class="st33" d="M441.69,9.41c-37.59-0.3-75.5,5.66-109.04,19.58c-78.08,32.4-144.35,118.12-118.42,205.68
					c8.42,28.44,4,59.83,32.34,72.19c15.33,6.69,57.08,10.67,72.96,5.4c42.19-14.01,69.93-52.35,46.98-94.87
					c-7.35-13.62-16.86-26.05-23.21-40.17c-6.35-14.11-9.24-30.86-2.77-44.92c12.7-27.59,54.89-36.36,82.25-35.53
					c32.29,0.98,61.55,16.95,78.93,44.35c21.66,34.15,27.14,75.68,23.97,115.32c-3.39,42.41-21.28,74.8-48.08,107.34
					c-23.07,28.01-48.48,54.9-63.82,87.8c-14.08,30.2-18.68,63.66-19.32,96.69c-0.12,6.4-31.97,66.75-31.83,85.18
					c0.02,2.6,36.12,11.23,38.72,11.26c13.59,0.15,52.08,0.58,66.25,0.74c2.91,0.03,5.32-2.3,5.35-5.21
					c1.01-89.69,28.6-175.2,98.43-235.44c25.41-21.92,52.78-39.77,72.54-67.43c28.16-39.43,42.06-78.24,38.05-126.9
					c-3.66-44.45-18.3-88.91-47.27-123.4C603.58,50.02,558,26.87,510.64,16.88C488.55,12.22,465.18,9.59,441.69,9.41z"/>
				<linearGradient id="SVGID_23_" gradientUnits="userSpaceOnUse" x1="1670.1925" y1="-300.9231" x2="146.0381" y2="998.2076">
					<stop  offset="0" style="stop-color:#E1473D"/>
					<stop  offset="1" style="stop-color:#E9605A"/>
				</linearGradient>
				<path class="st34" d="M511.01,746c0,41.24-22.86,77.73-64.1,77.73c-8.91,0-39.21,0.08-47.13-2.78
					c-28.75-10.39-28.85-32.48-28.85-64.81c0-41.24,13.93-81.81,55.17-81.81S511.01,704.76,511.01,746z"/>
			</g>
			<g>
				<g>
					<linearGradient id="SVGID_24_" gradientUnits="userSpaceOnUse" x1="25.0289" y1="674.886" x2="1348.1609" y2="-726.2548">
						<stop  offset="0" style="stop-color:#FF928E"/>
						<stop  offset="1" style="stop-color:#FE7062"/>
					</linearGradient>
					<path class="st35" d="M405.98,0.01c-37.59-0.3-75.5,5.66-109.04,19.58c-78.08,32.4-144.35,118.12-118.42,205.68
						c8.42,28.44,27.9,64.25,56.24,76.61c15.33,6.69,33.18,6.25,49.06,0.97c42.19-14.01,69.93-52.35,46.98-94.87
						c-7.35-13.62-16.86-26.05-23.21-40.17c-6.35-14.11-9.24-30.86-2.77-44.92c12.7-27.59,54.89-36.36,82.25-35.53
						c32.29,0.98,61.55,16.95,78.93,44.35c21.66,34.15,27.14,75.68,23.97,115.32c-3.39,42.41-21.27,74.8-48.08,107.34
						c-23.07,28.01-48.49,54.9-63.82,87.8c-14.08,30.2-18.68,63.66-19.32,96.69c-0.12,6.4,2.03,73.27,2.17,91.71
						c0.02,2.6,2.12,4.71,4.72,4.74c13.59,0.15,52.08,0.58,66.25,0.74c2.91,0.03,5.32-2.3,5.35-5.21
						c1.01-89.69,28.6-175.2,98.43-235.44c25.41-21.92,52.78-39.77,72.54-67.43c28.16-39.43,42.06-78.24,38.05-126.9
						c-3.66-44.45-18.3-88.92-47.27-123.4c-31.14-37.06-76.71-60.21-124.08-70.2C452.83,2.82,429.47,0.2,405.98,0.01z"/>
					<linearGradient id="SVGID_25_" gradientUnits="userSpaceOnUse" x1="563.0735" y1="577.4631" x2="263.0881" y2="908.9467">
						<stop  offset="0" style="stop-color:#FF928E"/>
						<stop  offset="1" style="stop-color:#FE7062"/>
					</linearGradient>
					<circle class="st36" cx="409.88" cy="746.75" r="74.68"/>
				</g>
			</g>
			<path class="st37" d="M203.24,216.7c-0.44,0-0.84-0.3-0.93-0.75c-5.23-23.63-6-60.63,20.06-102.73
				c25.43-41.09,61.11-68.58,106.04-81.71c48.03-14.04,105.05-11.03,169.49,8.93c0.51,0.16,0.79,0.69,0.63,1.2
				c-0.16,0.51-0.7,0.79-1.2,0.63c-123.8-38.36-220.87-12.8-273.34,71.96c-25.72,41.55-24.97,78.02-19.82,101.31
				c0.11,0.52-0.21,1.03-0.73,1.14C203.38,216.69,203.31,216.7,203.24,216.7z"/>
			<path class="st37" d="M218.95,254.72c-0.3,0-0.59-0.14-0.77-0.39c-0.23-0.31-5.61-7.75-10.61-20.84
				c-0.19-0.49,0.06-1.05,0.55-1.24c0.49-0.19,1.05,0.06,1.24,0.55c4.91,12.84,10.32,20.32,10.37,20.4
				c0.31,0.43,0.22,1.03-0.21,1.34C219.34,254.66,219.15,254.72,218.95,254.72z"/>
			<path class="st37" d="M434.86,698.34c-0.15,0-0.29-0.03-0.43-0.1c-7.65-3.88-15.91-5.85-24.56-5.85c-0.53,0-0.96-0.43-0.96-0.96
				s0.43-0.96,0.96-0.96c8.95,0,17.5,2.04,25.42,6.06c0.47,0.24,0.66,0.82,0.42,1.29C435.55,698.15,435.21,698.34,434.86,698.34z"/>
			<path class="st37" d="M378.95,793.57c-0.18,0-0.37-0.05-0.54-0.16c-15.54-10.5-24.81-27.94-24.81-46.66
				c0-20.76,11.37-39.76,29.67-49.6c0.47-0.25,1.05-0.08,1.3,0.39c0.25,0.47,0.08,1.05-0.39,1.3c-17.68,9.5-28.66,27.86-28.66,47.91
				c0,18.08,8.96,34.93,23.97,45.07c0.44,0.3,0.55,0.89,0.26,1.33C379.56,793.42,379.26,793.57,378.95,793.57z"/>
		</g>
		<g>
			<g>
				<g class="st38">
					<path class="st4" d="M161.46,139.71c-0.79,0.97-2.21,1.12-3.18,0.33c-1.88-1.53-3.86-2.99-5.88-4.36
						c-1.02-0.69-1.3-2.07-0.63-3.1c0.01-0.01,0.02-0.02,0.02-0.04c0.7-1.03,2.11-1.3,3.14-0.6c2.12,1.44,4.21,2.98,6.19,4.59
						c0.91,0.73,1.1,2.03,0.47,2.99C161.56,139.59,161.51,139.65,161.46,139.71z M142.12,129.71c-2.18-1.08-4.44-2.07-6.69-2.96
						c-1.16-0.46-1.73-1.77-1.28-2.93c0.46-1.16,1.77-1.73,2.93-1.28c2.38,0.93,4.75,1.98,7.04,3.11c1.12,0.55,1.58,1.91,1.03,3.03
						c-0.04,0.08-0.08,0.16-0.13,0.23C144.4,129.86,143.16,130.22,142.12,129.71z M124.08,123.19c-2.36-0.56-4.78-1.03-7.18-1.39
						c-1.23-0.18-2.09-1.33-1.9-2.57c0.19-1.23,1.33-2.09,2.57-1.9c2.53,0.38,5.08,0.87,7.57,1.46c1.21,0.29,1.96,1.51,1.67,2.72
						c-0.06,0.26-0.17,0.5-0.3,0.71C126,123,125.04,123.42,124.08,123.19z M105.04,120.87c-2.43-0.02-4.89,0.06-7.32,0.25
						c-1.24,0.1-2.33-0.84-2.43-2.08c-0.09-1.24,0.84-2.33,2.08-2.43c2.55-0.2,5.14-0.29,7.7-0.26c1.25,0.01,2.25,1.03,2.24,2.28
						c0,0.45-0.14,0.86-0.36,1.21C106.55,120.47,105.84,120.88,105.04,120.87z M85.96,122.85c-2.37,0.52-4.75,1.15-7.08,1.87
						c-1.19,0.37-2.46-0.3-2.83-1.49c-0.37-1.19,0.3-2.46,1.49-2.83c2.45-0.76,4.96-1.42,7.45-1.96c1.22-0.27,2.42,0.51,2.69,1.72
						c0.13,0.61,0.01,1.23-0.31,1.71C87.06,122.36,86.56,122.72,85.96,122.85z M67.79,129.01c-2.2,1.03-4.38,2.17-6.49,3.38
						c-1.08,0.62-2.46,0.25-3.09-0.83c-0.62-1.08-0.25-2.46,0.83-3.09c2.22-1.28,4.52-2.48,6.83-3.56c1.13-0.53,2.48-0.04,3.01,1.09
						c0.34,0.73,0.26,1.56-0.15,2.19C68.5,128.54,68.19,128.82,67.79,129.01z M16.86,195.7c-1.23-0.19-2.08-1.34-1.9-2.57
						c0.38-2.53,0.88-5.07,1.48-7.57c0.29-1.21,1.51-1.96,2.73-1.67c1.21,0.29,1.96,1.51,1.67,2.73c-0.57,2.37-1.04,4.78-1.4,7.18
						c-0.05,0.33-0.17,0.63-0.34,0.89C18.62,195.42,17.76,195.84,16.86,195.7z M51.45,139.03c-1.92,1.49-3.79,3.09-5.57,4.74
						c-0.92,0.85-2.35,0.8-3.19-0.12c-0.85-0.91-0.79-2.34,0.12-3.19c1.87-1.74,3.85-3.42,5.86-4.99c0.98-0.77,2.4-0.59,3.17,0.39
						c0.61,0.78,0.62,1.84,0.11,2.62C51.82,138.68,51.65,138.87,51.45,139.03z M21.48,176.56c-1.16-0.46-1.73-1.77-1.27-2.93
						c0.94-2.38,1.99-4.75,3.13-7.04c0.55-1.12,1.91-1.57,3.03-1.02c1.12,0.55,1.57,1.91,1.02,3.03c-1.08,2.18-2.08,4.43-2.97,6.69
						c-0.06,0.14-0.13,0.28-0.21,0.4C23.63,176.57,22.5,176.96,21.48,176.56z M37.76,152.45c-1.53,1.88-3,3.86-4.37,5.87
						c-0.7,1.03-2.11,1.3-3.14,0.6c-1.02-0.69-1.29-2.07-0.62-3.1c0.01-0.01,0.02-0.03,0.03-0.04c1.44-2.12,2.99-4.2,4.6-6.18
						c0.79-0.97,2.21-1.12,3.18-0.33c0.9,0.74,1.09,2.03,0.47,2.98C37.86,152.32,37.81,152.39,37.76,152.45z"/>
					<path class="st4" d="M18.15,210.54c0.24-0.37,0.38-0.82,0.36-1.3c-0.04-1.16-0.05-2.35-0.04-3.52
						c0.01-1.25-0.99-2.27-2.24-2.28c-1.25-0.01-2.27,0.99-2.28,2.24c-0.01,1.23,0,2.48,0.04,3.7c0.04,1.25,1.08,2.23,2.33,2.19
						C17.09,211.55,17.76,211.14,18.15,210.54z"/>
				</g>
				<g class="st38">
					<path class="st4" d="M47.03,273.1c0.59-0.91,0.45-2.15-0.38-2.91c-0.86-0.78-1.73-1.59-2.56-2.42
						c-0.89-0.87-2.32-0.86-3.2,0.03c-0.88,0.89-0.86,2.32,0.03,3.2c0.88,0.86,1.79,1.72,2.7,2.54c0.93,0.84,2.35,0.76,3.19-0.16
						C46.9,273.29,46.97,273.2,47.03,273.1z"/>
					<path class="st4" d="M177.36,259.56c-0.73,1.01-2.14,1.24-3.16,0.51c-1.01-0.73-1.24-2.14-0.51-3.16
						c1.39-1.93,2.72-3.94,3.97-6.01c0.64-1.07,2.03-1.41,3.1-0.77s1.41,2.03,0.77,3.1c-0.54,0.9-1.1,1.78-1.66,2.65
						C179.06,257.13,178.22,258.37,177.36,259.56z M184.19,243.46c-1.15-0.49-1.67-1.82-1.18-2.97c0.95-2.2,1.81-4.46,2.57-6.73
						c0.39-1.18,1.68-1.82,2.86-1.43c1.18,0.4,1.82,1.68,1.43,2.86c-0.8,2.39-1.71,4.77-2.71,7.08c-0.05,0.12-0.11,0.23-0.18,0.34
						C186.39,243.53,185.22,243.9,184.19,243.46z M169.48,269.03c-1.74,1.82-3.57,3.59-5.46,5.26c-0.94,0.83-2.36,0.74-3.19-0.2
						c-0.83-0.93-0.74-2.36,0.2-3.19c1.79-1.59,3.54-3.27,5.19-4.99c0.86-0.9,2.29-0.94,3.2-0.07c0.8,0.76,0.92,1.97,0.34,2.86
						C169.67,268.81,169.58,268.92,169.48,269.03z M190.33,225.08c-1.23-0.23-2.03-1.41-1.8-2.64c0.44-2.35,0.79-4.75,1.03-7.13
						c0.13-1.24,1.23-2.15,2.48-2.02c1.24,0.13,2.15,1.23,2.02,2.48c-0.25,2.5-0.62,5.03-1.08,7.51c-0.06,0.3-0.17,0.57-0.32,0.81
						C192.16,224.83,191.26,225.25,190.33,225.08z M154.26,281.78c-2.09,1.39-4.27,2.71-6.48,3.93c-1.09,0.6-2.47,0.2-3.07-0.89
						c-0.6-1.09-0.2-2.47,0.89-3.07c2.1-1.15,4.17-2.41,6.16-3.73c1.04-0.69,2.44-0.41,3.13,0.63c0.51,0.77,0.49,1.75,0.01,2.48
						C154.74,281.38,154.52,281.61,154.26,281.78z M136.61,290.89c-2.35,0.9-4.77,1.72-7.18,2.42c-1.2,0.35-2.45-0.34-2.8-1.54
						c-0.35-1.2,0.34-2.45,1.54-2.8c2.29-0.67,4.59-1.44,6.83-2.3c1.17-0.45,2.47,0.14,2.92,1.3c0.27,0.7,0.16,1.46-0.22,2.04
						C137.44,290.4,137.07,290.71,136.61,290.89z M117.39,295.93c-2.49,0.37-5.03,0.64-7.54,0.8c-1.25,0.08-2.32-0.87-2.4-2.11
						c-0.08-1.25,0.87-2.32,2.11-2.4c2.38-0.15,4.79-0.41,7.16-0.76c1.23-0.18,2.38,0.67,2.57,1.9c0.08,0.57-0.05,1.12-0.34,1.56
						C118.61,295.45,118.06,295.83,117.39,295.93z M97.53,296.66c-2.51-0.19-5.05-0.48-7.53-0.88c-1.23-0.2-2.07-1.36-1.88-2.59
						c0.2-1.23,1.36-2.07,2.59-1.88c2.36,0.38,4.77,0.66,7.15,0.83c1.24,0.09,2.18,1.17,2.09,2.42c-0.03,0.39-0.16,0.76-0.36,1.06
						C99.16,296.31,98.38,296.73,97.53,296.66z M77.99,293.01c-2.41-0.73-4.81-1.58-7.15-2.51c-1.16-0.46-1.72-1.78-1.26-2.94
						c0.46-1.16,1.78-1.72,2.94-1.26c2.22,0.89,4.51,1.69,6.79,2.39c1.19,0.36,1.87,1.63,1.5,2.82c-0.06,0.21-0.15,0.4-0.27,0.57
						C80.01,292.91,78.97,293.31,77.99,293.01z M59.74,285.17c-1.61-0.91-3.22-1.89-4.77-2.89c-0.56-0.36-1.12-0.73-1.67-1.11
						c-1.03-0.7-1.33-2.11-0.59-3.14c0.7-1.03,2.11-1.3,3.14-0.6c0.52,0.36,1.05,0.71,1.59,1.06c1.47,0.96,3,1.88,4.53,2.75
						c1.09,0.61,1.47,1.99,0.85,3.08c-0.02,0.04-0.05,0.08-0.07,0.12C62.1,285.43,60.78,285.76,59.74,285.17z"/>
					<path class="st4" d="M194.09,204.71c0.24-0.38,0.38-0.83,0.36-1.31c-0.04-1.22-0.12-2.47-0.21-3.7
						c-0.1-1.24-1.18-2.17-2.43-2.08c-1.24,0.1-2.18,1.18-2.08,2.43c0.09,1.17,0.16,2.35,0.2,3.51c0.04,1.25,1.09,2.22,2.34,2.18
						C193.04,205.71,193.7,205.3,194.09,204.71z"/>
				</g>
				<g>
					<path class="st4" d="M165.74,178.3c-0.14-0.43-0.53-0.72-0.98-0.73l-12.85-0.28c-3.09-5.15-7.02-9.84-11.72-13.85l1.83-12.72
						c0.06-0.45-0.16-0.88-0.56-1.09l-13.71-7.06c-0.4-0.21-0.89-0.14-1.21,0.18l-9.28,8.88c-5.99-1.5-12.1-1.97-18.08-1.49
						l-7.7-10.29c-0.27-0.36-0.74-0.51-1.17-0.37l-14.68,4.71c-0.43,0.14-0.72,0.53-0.73,0.98l-0.28,12.85
						c-5.15,3.09-9.84,7.02-13.85,11.72l-12.72-1.83c-0.45-0.06-0.88,0.16-1.09,0.56l-7.06,13.71c-0.21,0.4-0.14,0.89,0.18,1.21
						l8.88,9.28c-1.5,5.99-1.97,12.1-1.49,18.08l-10.29,7.7c-0.36,0.27-0.51,0.74-0.37,1.17l4.71,14.68
						c0.14,0.43,0.53,0.72,0.98,0.73l12.85,0.28c3.09,5.15,7.02,9.84,11.72,13.85l-1.83,12.72c-0.06,0.45,0.16,0.88,0.56,1.09
						l13.71,7.06c0.4,0.21,0.89,0.14,1.21-0.18l9.28-8.88c5.99,1.5,12.1,1.97,18.08,1.49l7.7,10.29c0.27,0.36,0.74,0.51,1.17,0.37
						l14.68-4.71c0.43-0.14,0.72-0.53,0.73-0.98l0.28-12.85c5.15-3.09,9.84-7.02,13.85-11.72l12.72,1.83
						c0.45,0.06,0.88-0.16,1.09-0.56l7.06-13.71c0.21-0.4,0.14-0.89-0.18-1.21l-8.88-9.28c1.5-5.99,1.97-12.1,1.49-18.08l10.29-7.7
						c0.36-0.27,0.51-0.74,0.37-1.17L165.74,178.3z"/>
					<path class="st5" d="M115.24,216.55c-5.65,6.41-15.47,7.03-21.88,1.38c-3.11-2.74-4.96-6.52-5.22-10.65
						c-0.26-4.13,1.1-8.12,3.84-11.22c5.65-6.41,15.47-7.03,21.88-1.38c5.83,5.14,6.87,13.73,2.75,20.06
						C116.21,215.37,115.75,215.97,115.24,216.55z M91.76,207.05c0.2,3.17,1.62,6.07,4,8.17c4.91,4.33,12.44,3.86,16.77-1.06
						c4.34-4.92,3.86-12.44-1.06-16.77c-4.91-4.33-12.44-3.86-16.77,1.06c-0.39,0.45-0.75,0.91-1.07,1.4
						C92.26,201.97,91.59,204.47,91.76,207.05z"/>
					<path class="st5" d="M135.22,227.2c0.71-1.09,1.36-2.22,1.97-3.39l0,0c0.19-0.37,0.37-0.74,0.55-1.11
						c0.88-1.84,1.6-3.76,2.17-5.7c0.01-0.03,0.02-0.05,0.02-0.08c0.02-0.08,0.04-0.15,0.06-0.23c0.04-0.15,0.08-0.29,0.12-0.44
						c0.1-0.39-0.06-0.78-0.38-0.99c-0.08-0.05-0.16-0.09-0.26-0.12c-0.48-0.13-0.98,0.16-1.11,0.64c-0.67,2.48-1.61,4.91-2.79,7.21
						c-5.89,11.44-17.05,18.43-29,19.53c-6.65,0.62-13.54-0.59-19.9-3.87c-1.12-0.57-2.19-1.2-3.23-1.87
						c-6.98-4.54-12.15-11.29-14.73-19.33c-2.96-9.23-2.15-19.07,2.29-27.69c9.17-17.81,31.09-24.83,48.89-15.67
						c1.1,0.56,2.16,1.18,3.19,1.85c4.45,2.9,8.23,6.73,11.03,11.25c0.07,0.12,0.17,0.21,0.28,0.28c0.28,0.18,0.66,0.2,0.97,0.01
						c0.42-0.26,0.56-0.82,0.29-1.25c-2.94-4.74-6.9-8.77-11.58-11.82c-1.08-0.7-2.2-1.35-3.35-1.94
						c-18.69-9.62-41.71-2.23-51.33,16.45C64.75,197.98,63.9,208.31,67,218c2.7,8.44,8.13,15.52,15.46,20.29
						c1.09,0.71,2.22,1.37,3.39,1.97c9.05,4.66,19.38,5.51,29.07,2.41C123.37,239.96,130.45,234.54,135.22,227.2z"/>
				</g>
			</g>
			<g>
				<g class="st38">
					<path class="st4" d="M253.56,107.31c0.33-0.51,0.3-1.19-0.11-1.67c-0.77-0.9-1.58-1.79-2.41-2.64
						c-0.54-0.55-1.42-0.57-1.97-0.03c-0.56,0.53-0.57,1.42-0.03,1.97c0.79,0.81,1.56,1.66,2.29,2.52c0.5,0.58,1.38,0.65,1.97,0.15
						C253.4,107.52,253.49,107.41,253.56,107.31z"/>
					<path class="st4" d="M245.77,99.95c-0.48,0.6-1.36,0.69-1.96,0.21c-1.52-1.22-3.11-2.38-4.74-3.44
						c-0.34-0.22-0.69-0.44-1.04-0.66c-0.65-0.41-0.86-1.27-0.45-1.92c0.41-0.6,1.27-0.86,1.92-0.45c0.37,0.23,0.73,0.46,1.09,0.69
						c1.71,1.11,3.38,2.32,4.97,3.6c0.56,0.45,0.68,1.25,0.3,1.85C245.82,99.87,245.8,99.91,245.77,99.95z M231.78,92.7
						c-2.14-0.99-4.36-1.86-6.6-2.58c-0.73-0.24-1.14-1.02-0.9-1.76c0.24-0.73,1.02-1.14,1.76-0.9c2.35,0.75,4.68,1.66,6.92,2.7
						c0.7,0.32,1,1.15,0.68,1.85c-0.03,0.06-0.06,0.12-0.1,0.18C233.16,92.77,232.41,92.99,231.78,92.7z M218.3,88.38
						c-2.31-0.44-4.68-0.73-7.03-0.87c-0.77-0.05-1.35-0.71-1.31-1.48c0.05-0.77,0.71-1.36,1.48-1.31c2.47,0.15,4.95,0.46,7.38,0.92
						c0.76,0.14,1.26,0.87,1.11,1.63c-0.04,0.18-0.1,0.35-0.2,0.5C219.43,88.23,218.88,88.49,218.3,88.38z M204.18,87.51
						c-2.35,0.15-4.72,0.44-7.03,0.87c-0.76,0.14-1.49-0.36-1.63-1.11c-0.14-0.76,0.36-1.49,1.11-1.63
						c2.43-0.45,4.91-0.76,7.38-0.92c0.77-0.05,1.43,0.54,1.48,1.31c0.02,0.31-0.07,0.6-0.22,0.85
						C205.03,87.23,204.64,87.48,204.18,87.51z M190.27,90.11c-2.25,0.71-4.47,1.57-6.61,2.55c-0.7,0.32-1.53,0.01-1.85-0.69
						c-0.32-0.7-0.02-1.53,0.69-1.85c2.24-1.03,4.57-1.93,6.93-2.68c0.73-0.23,1.52,0.17,1.75,0.91c0.13,0.42,0.06,0.85-0.16,1.18
						C190.85,89.8,190.59,90.01,190.27,90.11z M177.42,96.01c-2,1.24-3.95,2.61-5.78,4.09c-0.6,0.48-1.48,0.39-1.96-0.21
						c-0.48-0.6-0.39-1.48,0.21-1.96c1.92-1.55,3.96-2.99,6.06-4.29c0.66-0.4,1.52-0.2,1.92,0.45c0.29,0.47,0.27,1.06-0.02,1.5
						C177.74,95.75,177.6,95.9,177.42,96.01z M166.4,104.87c-1.63,1.69-3.18,3.5-4.61,5.39c-0.46,0.61-1.34,0.74-1.95,0.27
						c-0.62-0.46-0.73-1.33-0.28-1.96c1.49-1.98,3.12-3.88,4.83-5.65c0.54-0.55,1.42-0.57,1.97-0.03c0.49,0.47,0.56,1.21,0.2,1.76
						C166.52,104.73,166.46,104.8,166.4,104.87z M152.9,123.26c-0.71-0.3-1.04-1.12-0.74-1.83c0.83-1.97,1.79-3.92,2.83-5.8
						c0.16-0.29,0.32-0.57,0.48-0.85c0.36-0.68,1.24-0.9,1.91-0.51c0.67,0.39,0.9,1.24,0.51,1.91c-0.15,0.26-0.3,0.53-0.45,0.81
						c-1,1.8-1.91,3.66-2.71,5.54c-0.03,0.08-0.07,0.15-0.12,0.22C154.25,123.29,153.53,123.52,152.9,123.26z"/>
				</g>
				<g class="st38">
					<path class="st4" d="M257.77,178.45c-1.35,2.02-2.84,3.98-4.42,5.82c-0.5,0.58-1.38,0.65-1.97,0.15
						c-0.59-0.5-0.64-1.38-0.15-1.97c1.51-1.75,2.93-3.62,4.22-5.55c0.43-0.64,1.3-0.81,1.94-0.38c0.64,0.43,0.81,1.28,0.4,1.92
						C257.78,178.44,257.78,178.45,257.77,178.45z M259.59,172.75c-0.69-0.35-0.96-1.19-0.61-1.88c1.05-2.07,1.98-4.22,2.77-6.4
						c0.26-0.72,1.06-1.1,1.79-0.83c0.72,0.26,1.1,1.06,0.83,1.79c-0.83,2.28-1.81,4.54-2.91,6.71c-0.02,0.05-0.05,0.09-0.08,0.13
						C261,172.86,260.23,173.08,259.59,172.75z M248.25,189.51c-1.8,1.64-3.72,3.18-5.7,4.58c-0.63,0.45-1.5,0.3-1.95-0.33
						c-0.45-0.63-0.3-1.5,0.33-1.95c1.89-1.34,3.72-2.81,5.44-4.37c0.57-0.52,1.45-0.48,1.97,0.09c0.44,0.48,0.48,1.18,0.14,1.7
						C248.42,189.34,248.35,189.43,248.25,189.51z M264.77,159.47c-0.75-0.17-1.22-0.92-1.05-1.67c0.52-2.26,0.91-4.57,1.15-6.88
						c0.08-0.77,0.77-1.32,1.53-1.24c0.77,0.08,1.32,0.77,1.24,1.53c-0.25,2.42-0.66,4.84-1.2,7.21c-0.04,0.16-0.1,0.31-0.19,0.45
						C265.95,159.35,265.36,159.6,264.77,159.47z M236.35,197.94c-2.14,1.15-4.37,2.19-6.63,3.07c-0.72,0.28-1.53-0.07-1.81-0.79
						c-0.28-0.72,0.07-1.53,0.79-1.81c2.16-0.84,4.29-1.83,6.32-2.93c0.68-0.37,1.52-0.11,1.89,0.57c0.25,0.46,0.21,1.01-0.06,1.42
						C236.73,197.66,236.56,197.83,236.35,197.94z M222.77,203.27c-2.36,0.61-4.77,1.08-7.17,1.4c-0.76,0.1-1.47-0.43-1.57-1.2
						c-0.1-0.76,0.43-1.47,1.2-1.57c2.29-0.31,4.6-0.76,6.84-1.34c0.75-0.19,1.51,0.26,1.7,1c0.1,0.39,0.02,0.79-0.18,1.11
						C223.4,202.96,223.12,203.18,222.77,203.27z M208.3,205.19c-2.43,0.03-4.89-0.1-7.3-0.36c-0.77-0.09-1.32-0.78-1.23-1.54
						c0.08-0.77,0.78-1.32,1.54-1.23c2.3,0.26,4.64,0.37,6.96,0.35c0.77-0.01,1.4,0.61,1.41,1.38c0,0.29-0.08,0.55-0.22,0.78
						C209.21,204.93,208.79,205.19,208.3,205.19z"/>
					<path class="st4" d="M267.74,144.62c0.15-0.23,0.23-0.5,0.22-0.79c-0.02-1.19-0.08-2.39-0.17-3.56
						c-0.06-0.77-0.73-1.34-1.5-1.28c-0.77,0.06-1.34,0.73-1.28,1.5c0.09,1.12,0.14,2.26,0.16,3.4c0.01,0.77,0.65,1.38,1.42,1.37
						C267.08,145.25,267.5,145,267.74,144.62z"/>
				</g>
				<g>
					<path class="st4" d="M248.84,125.94c-0.09-0.29-0.36-0.48-0.66-0.49l-8.6-0.19c-2.07-3.45-4.7-6.59-7.84-9.27l1.23-8.51
						c0.04-0.3-0.11-0.59-0.38-0.73l-9.17-4.72c-0.27-0.14-0.59-0.09-0.81,0.12l-6.21,5.94c-4.01-1-8.1-1.32-12.1-1l-5.15-6.89
						c-0.18-0.24-0.49-0.34-0.78-0.25l-9.83,3.15c-0.29,0.09-0.48,0.36-0.49,0.66l-0.19,8.6c-3.45,2.07-6.59,4.7-9.27,7.84
						l-8.51-1.23c-0.3-0.04-0.59,0.11-0.73,0.38l-4.72,9.17c-0.14,0.27-0.09,0.59,0.12,0.81l5.94,6.21c-1,4.01-1.32,8.1-1,12.1
						l-6.89,5.15c-0.24,0.18-0.34,0.49-0.25,0.78l3.15,9.83c0.09,0.29,0.36,0.48,0.66,0.49l8.6,0.19c2.07,3.45,4.7,6.59,7.84,9.27
						l-1.23,8.51c-0.04,0.3,0.11,0.59,0.38,0.73l9.17,4.72c0.27,0.14,0.59,0.09,0.81-0.12l6.21-5.94c4.01,1,8.1,1.32,12.1,1
						l5.15,6.89c0.18,0.24,0.49,0.34,0.78,0.25l9.83-3.15c0.29-0.09,0.48-0.36,0.49-0.66l0.19-8.6c3.45-2.07,6.59-4.7,9.27-7.84
						l8.51,1.23c0.3,0.04,0.59-0.11,0.73-0.38l4.72-9.17c0.14-0.27,0.09-0.59-0.12-0.81l-5.94-6.21c1-4.01,1.32-8.1,1-12.1
						l6.89-5.15c0.24-0.18,0.34-0.49,0.25-0.78L248.84,125.94z"/>
					<path class="st5" d="M215.19,151.66c-1.86,2.12-4.44,3.38-7.26,3.56c-2.81,0.18-5.53-0.75-7.64-2.62
						c-4.37-3.85-4.78-10.52-0.94-14.9c3.85-4.37,10.54-4.79,14.9-0.94c2.12,1.86,3.38,4.44,3.56,7.26c0.14,2.29-0.44,4.51-1.67,6.4
						C215.86,150.85,215.54,151.27,215.19,151.66z M202.14,150.51c1.56,1.37,3.55,2.06,5.62,1.93c2.07-0.13,3.97-1.06,5.34-2.62l0,0
						c1.37-1.56,2.06-3.55,1.93-5.62c-0.13-2.07-1.06-3.97-2.61-5.34c-3.21-2.83-8.13-2.52-10.96,0.69
						c-0.26,0.29-0.49,0.59-0.69,0.91C198.69,143.63,199.21,147.93,202.14,150.51z"/>
					<path class="st5" d="M229.1,159.08c0.48-0.74,0.93-1.51,1.34-2.31c0.82-1.59,1.48-3.27,1.96-4.99
						c0.02-0.08,0.04-0.15,0.06-0.23c0.16-0.6-0.09-1.21-0.59-1.53c-0.12-0.08-0.25-0.14-0.4-0.18c-0.74-0.2-1.51,0.24-1.71,0.99
						c-0.43,1.61-1.04,3.18-1.81,4.67l0,0c-0.04,0.08-0.09,0.16-0.13,0.24c-1.85,3.5-4.49,6.41-7.7,8.55
						c-1.74,1.16-3.65,2.09-5.69,2.77c-0.02,0.01-0.03,0.01-0.05,0.02c-0.05,0.02-0.1,0.03-0.15,0.05
						c-5.98,1.92-12.34,1.39-17.93-1.48c-0.72-0.37-1.42-0.78-2.09-1.21c-4.52-2.94-7.87-7.31-9.53-12.51
						c-1.92-5.98-1.39-12.34,1.49-17.93c2.87-5.58,7.75-9.71,13.73-11.63c5.98-1.92,12.34-1.39,17.93,1.48
						c0.71,0.36,1.4,0.77,2.06,1.2c2.88,1.88,5.33,4.36,7.14,7.29c0.11,0.18,0.26,0.33,0.43,0.43c0.44,0.29,1.02,0.31,1.5,0.02
						c0.65-0.41,0.86-1.27,0.45-1.92c-2.03-3.27-4.76-6.05-7.99-8.15c-0.75-0.48-1.52-0.93-2.31-1.34
						c-6.25-3.21-13.37-3.8-20.06-1.66c-6.69,2.14-12.14,6.76-15.35,13.01c-3.21,6.24-3.8,13.37-1.66,20.06
						c1.87,5.82,5.61,10.71,10.67,14c0.75,0.49,1.53,0.94,2.34,1.36C207.12,174.33,221.84,170.24,229.1,159.08z"/>
				</g>
			</g>
		</g>
		<g>
			<polygon class="st4" points="536.25,253.83 495.66,295.35 544.35,282.35 			"/>
			<path class="st4" d="M777.78,271.02l-230.64,11.19c-5.92,0.29-10.88-4.44-10.88-10.37v-94.89c0-10.31,8.19-18.76,18.5-19.08
				l207.87-6.43c15.48,0,28.03,12.55,28.03,28.03v78.04C790.65,264.72,784.98,270.67,777.78,271.02z"/>
			<path class="st39" d="M554.03,278.4c-3.68,0-7.14-1.39-9.82-3.94c-2.85-2.72-4.42-6.38-4.42-10.32v-85.52
				c0-10.08,8.08-18.22,18.4-18.53l201.26-6.08c15.25,0,27.65,12.1,27.65,26.98v73.73c0,7.1-5.68,12.92-12.94,13.27l-219.44,10.39
				C554.5,278.39,554.26,278.4,554.03,278.4z M759.47,155.01l-201.25,6.08c-9.77,0.29-17.43,7.99-17.43,17.53v85.52
				c0,3.66,1.46,7.07,4.11,9.6c2.65,2.53,6.12,3.83,9.78,3.65l219.44-10.39c6.72-0.32,11.99-5.71,11.99-12.27v-73.73
				C786.11,166.67,774.16,155.01,759.47,155.01z"/>
			<linearGradient id="SVGID_26_" gradientUnits="userSpaceOnUse" x1="571.1917" y1="179.1074" x2="762.2224" y2="179.1074">
				<stop  offset="0" style="stop-color:#DAE3FE"/>
				<stop  offset="1" style="stop-color:#E9EFFD"/>
			</linearGradient>
			<path class="st40" d="M758.8,172.31l-184.43,6.9c-1.81,0.07-3.24,1.27-3.18,2.67l0.07,1.62c0.06,1.39,1.55,2.46,3.34,2.4
				l184.43-6.73c1.81-0.07,3.24-1.27,3.18-2.67l-0.08-1.79C762.08,173.31,760.59,172.24,758.8,172.31z"/>
			<linearGradient id="SVGID_27_" gradientUnits="userSpaceOnUse" x1="554.6901" y1="225.8997" x2="745.7252" y2="225.8997">
				<stop  offset="0" style="stop-color:#DAE3FE"/>
				<stop  offset="1" style="stop-color:#E9EFFD"/>
			</linearGradient>
			<path class="st41" d="M742.29,219l-184.43,6.87c-1.81,0.07-3.23,1.31-3.17,2.77l0.07,1.68c0.06,1.44,1.56,2.55,3.35,2.49
				l184.43-6.69c1.81-0.07,3.24-1.31,3.18-2.77l-0.08-1.85C745.58,220.04,744.09,218.93,742.29,219z"/>
			<linearGradient id="SVGID_28_" gradientUnits="userSpaceOnUse" x1="554.6913" y1="245.913" x2="767.6451" y2="245.913">
				<stop  offset="0" style="stop-color:#DAE3FE"/>
				<stop  offset="1" style="stop-color:#E9EFFD"/>
			</linearGradient>
			<path class="st42" d="M763.84,238.53l-205.6,7.76c-2.02,0.08-3.61,1.34-3.55,2.81l0.07,1.7c0.06,1.46,1.72,2.57,3.72,2.5
				l205.6-7.59c2.02-0.07,3.62-1.34,3.55-2.81l-0.08-1.87C767.5,239.57,765.84,238.46,763.84,238.53z"/>
			<linearGradient id="SVGID_29_" gradientUnits="userSpaceOnUse" x1="555.51" y1="205.1918" x2="659.6999" y2="205.1918">
				<stop  offset="0" style="stop-color:#DAE3FE"/>
				<stop  offset="1" style="stop-color:#E9EFFD"/>
			</linearGradient>
			<path class="st43" d="M657.68,199.84l-100.52,2.93c-0.99,0.03-1.73,1.38-1.64,3.02l0.09,1.88c0.08,1.62,0.93,2.9,1.91,2.87
				l100.53-2.74c0.99-0.03,1.73-1.38,1.65-3.02l-0.1-2.08C659.51,201.09,658.66,199.81,657.68,199.84z"/>
			<linearGradient id="SVGID_30_" gradientUnits="userSpaceOnUse" x1="671.8769" y1="201.6142" x2="770.3644" y2="201.6142">
				<stop  offset="0" style="stop-color:#DAE3FE"/>
				<stop  offset="1" style="stop-color:#E9EFFD"/>
			</linearGradient>
			<path class="st44" d="M768.44,196.36l-95.01,2.72c-0.93,0.03-1.63,1.38-1.55,3.01l0.09,1.88c0.08,1.62,0.89,2.9,1.81,2.88
				l95.02-2.53c0.93-0.02,1.63-1.38,1.55-3.01l-0.1-2.08C770.17,197.62,769.36,196.34,768.44,196.36z"/>
		</g>
		<g>
			
				<linearGradient id="SVGID_31_" gradientUnits="userSpaceOnUse" x1="6728.4233" y1="779.4983" x2="6544.8511" y2="979.1736" gradientTransform="matrix(1 0 0 1 -6484.3511 0)">
				<stop  offset="0" style="stop-color:#09005D"/>
				<stop  offset="1" style="stop-color:#1A0F91"/>
			</linearGradient>
			<path class="st45" d="M186.04,794.37c0,0-1.9,10.76-2.83,21.42c-0.36,4.16,2.85,7.78,7.02,7.95c14.19,0.59,44.54,1.74,55.43,1.25
				c1.64-0.07,2.71-1.75,2.1-3.27l0,0c-0.51-1.28-1.49-2.31-2.73-2.88L194.9,795.8L186.04,794.37z"/>
			
				<linearGradient id="SVGID_32_" gradientUnits="userSpaceOnUse" x1="6668.8384" y1="794.3284" x2="6685.144" y2="794.3284" gradientTransform="matrix(1 0 0 1 -6484.3511 0)">
				<stop  offset="0" style="stop-color:#FEBBBA"/>
				<stop  offset="1" style="stop-color:#FF928E"/>
			</linearGradient>
			<path class="st46" d="M184.49,788.05l1.53,12.87c0,0,8.78,4.09,14.78-0.52l-3.64-14.35L184.49,788.05z"/>
			
				<linearGradient id="SVGID_33_" gradientUnits="userSpaceOnUse" x1="6742.8779" y1="553.6867" x2="6586.6753" y2="765.3992" gradientTransform="matrix(1 0 0 1 -6484.3511 0)">
				<stop  offset="0" style="stop-color:#09005D"/>
				<stop  offset="1" style="stop-color:#1A0F91"/>
			</linearGradient>
			<path class="st47" d="M185.64,546.02c-0.66,3.36-3.54,167.76,14.03,241.44c0.29,1.2-0.32,2.44-1.47,2.91
				c-2.7,1.1-7.98,2.7-14.31,2.91c-1.96,0.07-3.72-1.21-4.27-3.09c-5.02-17.09-29.09-102.74-32.23-184.55c-3.51-91.42,0-3.11,0-3.11
				l2.06-56.51L185.64,546.02z"/>
			
				<linearGradient id="SVGID_34_" gradientUnits="userSpaceOnUse" x1="6687.2417" y1="741.6379" x2="6503.6694" y2="941.3132" gradientTransform="matrix(1 0 0 1 -6484.3511 0)">
				<stop  offset="0" style="stop-color:#09005D"/>
				<stop  offset="1" style="stop-color:#1A0F91"/>
			</linearGradient>
			<path class="st48" d="M128.38,799.99c0,0-3.03,5.43-5.96,19.87c-0.53,2.61,1.29,5.1,3.94,5.36c4.68,0.46,11.9,1.05,17.67,1.01
				c2.66-0.02,4.74-2.34,4.42-4.98c-0.64-5.27-2.63-13.92-8.79-20.65L128.38,799.99z"/>
			
				<linearGradient id="SVGID_35_" gradientUnits="userSpaceOnUse" x1="6610.0723" y1="793.4923" x2="6624.1509" y2="793.4923" gradientTransform="matrix(1 0 0 1 -6484.3511 0)">
				<stop  offset="0" style="stop-color:#FEBBBA"/>
				<stop  offset="1" style="stop-color:#FF928E"/>
			</linearGradient>
			<path class="st49" d="M125.72,783.43l3.57,19.47c0,0,3.53,2.63,10.51,0.72l-1.7-20.95L125.72,783.43z"/>
			
				<linearGradient id="SVGID_36_" gradientUnits="userSpaceOnUse" x1="6715.0386" y1="533.1469" x2="6558.8364" y2="744.8593" gradientTransform="matrix(1 0 0 1 -6484.3511 0)">
				<stop  offset="0" style="stop-color:#09005D"/>
				<stop  offset="1" style="stop-color:#1A0F91"/>
			</linearGradient>
			<path class="st50" d="M116.08,551.07c-14.37,86.74,3.12,214.38,9.02,239.37c0.36,1.53,1.6,2.7,3.15,2.96
				c2.63,0.44,6.97,0.79,11.24-0.45c1.47-0.43,2.51-1.76,2.57-3.29c0.79-20.2-0.63-144.19,12.76-193.2c0.68-2.48,2.2-4.65,4.29-6.14
				l25.99-18.48l1.99-29.87L116.08,551.07z"/>
			<g>
				<linearGradient id="SVGID_37_" gradientUnits="userSpaceOnUse" x1="175.4557" y1="438.9447" x2="424.4804" y2="9.9017">
					<stop  offset="0" style="stop-color:#4F52FF"/>
					<stop  offset="1" style="stop-color:#4042E2"/>
				</linearGradient>
				<path class="st51" d="M207.66,386.71c-43.07-0.71-90.6,11.31-90.6,11.31c-12.84,74.91-2.25,161.32-2.25,161.32
					c33.35,8.74,70.96-5.35,70.96-5.35c5.54-31.31,31.4-119.44,31.4-119.44c21.04-2.61,38.38-8.68,52.66-16.71
					c-10.89-12.62-16.02-28.68-18.25-38.18C236.36,384.41,220.95,386.93,207.66,386.71z"/>
				
					<linearGradient id="SVGID_38_" gradientUnits="userSpaceOnUse" x1="-4713.8789" y1="271.873" x2="-4685.1099" y2="354.0716" gradientTransform="matrix(-1 0 0 1 -4391.8354 0)">
					<stop  offset="0" style="stop-color:#FEBBBA"/>
					<stop  offset="1" style="stop-color:#FF928E"/>
				</linearGradient>
				<path class="st52" d="M334.89,323.27c-4.23-5.11-9.59-2.69-9.59-2.69c-6.34,26.77-39.57,48.48-73.72,59.09
					c2.23,9.49,7.36,25.56,18.25,38.18C326.5,385.99,334.89,323.27,334.89,323.27z"/>
			</g>
			<g>
				
					<linearGradient id="SVGID_39_" gradientUnits="userSpaceOnUse" x1="-4738.4688" y1="280.4793" x2="-4709.6992" y2="362.6776" gradientTransform="matrix(-1 0 0 1 -4391.8354 0)">
					<stop  offset="0" style="stop-color:#FEBBBA"/>
					<stop  offset="1" style="stop-color:#FF928E"/>
				</linearGradient>
				<path class="st53" d="M333.86,324.57c0.44,1.41-4.68,3.55-7.7-2.21c-0.11-2.76-1.78-14.58-0.13-16.83
					c8.78-11.97,25.8-26.98,25.8-26.98c2.88,2.84,0.51,5.63,0.51,5.63l-8.26,8.6c1.73,3.12,3.83,5.76,4.82,9.53
					c0.75,2.86,0.29,5.91-1.15,8.52c-1.45,2.61-3.43,6.01-5.3,8.66C338.91,324.53,333.86,324.57,333.86,324.57z"/>
				
					<linearGradient id="SVGID_40_" gradientUnits="userSpaceOnUse" x1="-4716.3677" y1="332.9957" x2="-4738.0381" y2="289.2807" gradientTransform="matrix(-1 0 0 1 -4391.8354 0)">
					<stop  offset="0" style="stop-color:#FEBBBA"/>
					<stop  offset="1" style="stop-color:#FF928E"/>
				</linearGradient>
				<path class="st54" d="M340.46,298.38l-7.53,6.38l-2.36,6.35l6.71,7.44c0,0,2.26-12.6,3.93-15.33
					C342.89,300.49,342.03,299.17,340.46,298.38z"/>
			</g>
			<linearGradient id="SVGID_41_" gradientUnits="userSpaceOnUse" x1="123.6577" y1="408.8802" x2="372.6823" y2="-20.1626">
				<stop  offset="0" style="stop-color:#4F52FF"/>
				<stop  offset="1" style="stop-color:#4042E2"/>
			</linearGradient>
			<path class="st55" d="M133.59,439.73l-16.52-41.71c0,0-40.23,27.34-46.85,61.99c7.6,0.56,21.43,2.54,34.97,9.37
				C108.17,453.03,133.59,439.73,133.59,439.73z"/>
			
				<linearGradient id="SVGID_42_" gradientUnits="userSpaceOnUse" x1="6553.6519" y1="486.9274" x2="6659.0728" y2="486.9274" gradientTransform="matrix(1 0 0 1 -6484.3511 0)">
				<stop  offset="0" style="stop-color:#FEBBBA"/>
				<stop  offset="1" style="stop-color:#FF928E"/>
			</linearGradient>
			<path class="st56" d="M168.74,478.97c0,0-45.17,25.53-60.41,3.73c-3.16-4.53-3.92-9.02-3.14-13.31
				c-13.54-6.84-27.37-8.81-34.97-9.37c-1.99,10.45-0.94,21.56,5.2,32.79c26.7,48.84,99.3-2.7,99.3-2.7L168.74,478.97z"/>
			<g>
				<path class="st4" d="M163.32,511.27l24.65-86.09c0.28-0.98,1.11-1.69,2.12-1.81c4.47-0.52,17.41-1.98,32.35-3.25
					c18-1.52,38.9-2.76,51.39-1.71c1.78,0.15,2.85,2.03,2.06,3.62c-7.1,14.37-36.32,72.83-50.95,91.97c-0.49,0.63-1.23,1.01-2.03,1
					l-57.2-0.53C164.05,514.47,162.86,512.87,163.32,511.27z"/>
				<path class="st5" d="M225,412.66l17.87-2.98c0.95-0.16,1.73,0.75,1.43,1.67l-1.77,5.36c-0.15,0.47-0.56,0.8-1.05,0.87l-17.2,2.3
					c-0.89,0.12-1.62-0.69-1.42-1.56l1.1-4.68C224.08,413.13,224.49,412.74,225,412.66z"/>
				<path class="st5" d="M211.62,427.79l1.47-7.67c0.15-0.77,0.78-1.35,1.56-1.43l36.1-3.66c1.22-0.12,2.19,0.99,1.9,2.18l-2.3,9.56
					c-0.18,0.76-0.85,1.32-1.63,1.36l-35.28,1.78C212.3,429.95,211.4,428.92,211.62,427.79z"/>
				
					<linearGradient id="SVGID_43_" gradientUnits="userSpaceOnUse" x1="6651.2456" y1="475.8741" x2="6684.0889" y2="475.8741" gradientTransform="matrix(1 0 0 1 -6484.3511 0)">
					<stop  offset="0" style="stop-color:#FEBBBA"/>
					<stop  offset="1" style="stop-color:#FF928E"/>
				</linearGradient>
				<path class="st57" d="M169.27,490.47c0,0-3.43-14.12-2.05-19.13c1.39-5.01,4.07-11.45,13.02-10.02c8.95,1.43,19.5,5.2,19.5,5.2
					s-0.53,6.53-7.33,4.42l4.22,3.26c0,0-0.6,5.22-6.35,2.43l3.92,4.33c0,0-2.47,4.29-6.69,1.54
					C183.28,479.75,181.26,492.17,169.27,490.47z"/>
			</g>
			
				<linearGradient id="SVGID_44_" gradientUnits="userSpaceOnUse" x1="6634.6006" y1="374.2257" x2="6676.2803" y2="374.2257" gradientTransform="matrix(1 0 0 1 -6484.3511 0)">
				<stop  offset="0" style="stop-color:#FEBBBA"/>
				<stop  offset="1" style="stop-color:#FF928E"/>
			</linearGradient>
			<path class="st58" d="M164.03,351.75l-13.7,39.63c-0.23,0.66,0.04,1.38,0.65,1.72c3.74,2.07,17.2,8.04,33.41-2.25
				c1.69-1.07,2.84-2.82,3.1-4.8l4.44-34.3H164.03z"/>
			<g>
				
					<linearGradient id="SVGID_45_" gradientUnits="userSpaceOnUse" x1="-828.4131" y1="2529.426" x2="-843.9885" y2="2478.0547" gradientTransform="matrix(0.746 -0.6659 0.6659 0.746 -864.5062 -2090.8826)">
					<stop  offset="0" style="stop-color:#FEBBBA"/>
					<stop  offset="1" style="stop-color:#FF928E"/>
				</linearGradient>
				<path class="st59" d="M193.85,315.05c0,0,15.05,28.33,13.12,39.77c-1.93,11.44-20.58,10.62-36.87,1.33l-11.38-30.59
					L193.85,315.05z"/>
				
					<linearGradient id="SVGID_46_" gradientUnits="userSpaceOnUse" x1="-842.4652" y1="2439.9192" x2="-829.4365" y2="2514.2312" gradientTransform="matrix(0.746 -0.6659 0.6659 0.746 -864.5062 -2090.8826)">
					<stop  offset="0" style="stop-color:#09005D"/>
					<stop  offset="1" style="stop-color:#1A0F91"/>
				</linearGradient>
				<path class="st60" d="M170.83,341.12c0.66-0.29,0.91-1.1,0.51-1.71c-1.21-1.84-3.47-5.6-4.19-8.89c0,0-2.71-1.73,6.89-4.03
					c9.59-2.3,23.89-5.86,26.9-14.02c2.93-7.96-4.77-27.98-17.06-12.03c-0.47,0.61-1.38,0.62-1.85,0.01
					c-2.01-2.62-7.31-8.06-14.66-4.76c-6.88,3.09-7.65,8.13-7.56,10.67c0.03,0.75-0.64,1.33-1.38,1.19
					c-3.48-0.66-11.83-1.23-15.72,7.33c-3.21,7.05-1.12,11.05,0.78,13c0.62,0.63,0.35,1.67-0.5,1.93c-2.29,0.7-5.24,2.64-4.94,7.99
					c0.41,7.4,8.69,6.75,11.04,6.41c0.39-0.06,0.78,0.08,1.04,0.37c2.02,2.24,11.13,11.73,20.98,12.88c0.85,0.1,1.51-0.74,1.24-1.56
					l-4.27-12.4c-0.2-0.58,0.08-1.21,0.63-1.45L170.83,341.12z"/>
				
					<linearGradient id="SVGID_47_" gradientUnits="userSpaceOnUse" x1="-844.3348" y1="2529.1868" x2="-858.3483" y2="2482.967" gradientTransform="matrix(0.746 -0.6659 0.6659 0.746 -864.5062 -2090.8826)">
					<stop  offset="0" style="stop-color:#FEBBBA"/>
					<stop  offset="1" style="stop-color:#FF928E"/>
				</linearGradient>
				<path class="st61" d="M172.54,342.88c0,0-10.72-7.35-11.5-1.16c-0.78,6.19,9.65,8.97,14.82,6.66L172.54,342.88z"/>
			</g>
		</g>
	</g>
	<g class="st0">
		<linearGradient id="SVGID_48_" gradientUnits="userSpaceOnUse" x1="1990.3353" y1="1030.9167" x2="1282.5793" y2="151.9282">
			<stop  offset="0" style="stop-color:#DAE3FE"/>
			<stop  offset="1" style="stop-color:#E9EFFD"/>
		</linearGradient>
		<path class="st62" d="M1795.63,684.28c-16.26,17.11-31.64,28.15-43.79,36.87c-142.86,102.5-311.9,72.62-347.82,65.33
			c-53.05-10.77-155.6-31.6-229.73-118.79c-112.17-131.9-94.7-339.72-7.7-476.89c15.91-25.09,99.98-164.36,270.84-186.7
			c103.4-13.52,223.94,13.74,311.22,86.87C1931.87,244.47,1918.82,554.58,1795.63,684.28z"/>
		<g class="st3">
			<path class="st5" d="M1109.56,10.29c-1.2-5.1,5.97-8.48,10.36-4.92c44.58,36.15,151.68,144.39,124.99,333.56
				c-33.49,237.34,23.77,323.94,95.03,376.77c0,0-76.59-43.31-138.17-131.19C1050.59,368.75,1130.85,100.9,1109.56,10.29z"/>
			<path class="st8" d="M1143.49,84.45c5.87,26.36,11.13,52.81,15.26,79.38c4.29,26.55,7.65,53.21,10.05,79.92
				c2.27,26.72,3.97,53.47,4.34,80.25c0.51,26.77-0.31,53.54-1.24,80.42c-0.76,26.86-1.7,53.92,0.57,81.13
				c2.23,27.16,8.25,54.51,19.89,80.09c2.91,6.37,5.96,12.73,9.42,18.86c3.33,6.19,6.97,12.26,10.75,18.26
				c7.61,11.98,16.16,23.54,25.67,34.5c19.08,21.88,42.01,41.23,67.22,57.53c2.65,1.72,6.42,1.25,8.42-1.05
				c1.96-2.26,1.48-5.43-1.05-7.17l-0.02-0.01c-6-4.12-11.94-8.29-17.64-12.67c-2.89-2.15-5.67-4.41-8.49-6.63
				c-2.72-2.3-5.55-4.52-8.19-6.89c-10.73-9.34-20.69-19.32-29.73-29.9c-18.2-21.04-32.84-44.55-44.01-68.97
				c-5.42-12.27-9.79-24.86-13.02-37.7c-3.22-12.85-5.3-25.93-6.51-39.13c-2.43-26.41-1.76-53.2-1.23-80.06
				c0.49-26.87,0.77-53.87-0.23-80.84c-0.46-13.48-1.2-26.96-2.22-40.41c-0.47-6.73-1.08-13.45-1.68-20.17
				c-0.68-6.72-1.4-13.43-2.18-20.13c-3.19-26.81-7.32-53.53-12.43-80.09c-5.25-26.54-11.32-52.95-18.56-79.11
				c-0.21-0.75-1.08-1.21-1.94-1.03C1143.86,83.01,1143.33,83.73,1143.49,84.45z"/>
		</g>
		<g class="st3">
			<g>
				<path class="st4" d="M1221.08,512.77c-5.47,5.8-15.08,4.13-18.37-3.13c-18.14-40.05-59.2-157.94,8.61-293.74
					c57.26-114.68,77.41-182.31,84.43-213.64c1.48-6.63,10.56-7.51,13.31-1.29C1339.29,69.51,1419.14,302.64,1221.08,512.77z"/>
				<path class="st8" d="M1211.15,508.55c-0.19,0.03-0.39,0.05-0.6,0.05c-1.72-0.03-3.09-1.44-3.06-3.16
					c0.03-1.95,3.82-196.63,76.23-359.69c0.7-1.57,2.54-2.28,4.11-1.58c1.57,0.7,2.28,2.54,1.58,4.11
					c-71.88,161.87-75.67,355.32-75.7,357.26C1213.69,507.05,1212.59,508.29,1211.15,508.55z"/>
			</g>
		</g>
		<g class="st3">
			<g>
				<g>
					<linearGradient id="SVGID_49_" gradientUnits="userSpaceOnUse" x1="1688.2836" y1="-37.7023" x2="1511.2925" y2="392.7759">
						<stop  offset="0" style="stop-color:#09005D"/>
						<stop  offset="1" style="stop-color:#1A0F91"/>
					</linearGradient>
					<path class="st63" d="M1796.45,597.63l-21.64-25.85c-5.85-6.99-7.81-16.39-5.44-25.2c5.97-22.15,9.28-44.68,10.06-67.15
						c0.32-9.13,4.95-17.55,12.61-22.52l28.31-18.37c11.93-7.74,17.64-22.2,14.21-36.01l-10.24-41.21
						c-3.43-13.8-15.24-23.91-29.41-25.17l-33.61-2.98c-9.09-0.81-17.13-6.08-21.68-14c-11.21-19.49-24.69-37.85-40.33-54.63
						c-6.22-6.67-8.89-15.89-6.99-24.81l7.02-32.98c2.96-13.91-3.23-28.17-15.42-35.5l-36.38-21.9c-12.19-7.33-27.68-6.13-38.59,3
						L1583.06,174c-6.99,5.85-16.39,7.81-25.2,5.44c-22.15-5.97-44.68-9.28-67.15-10.06c-9.13-0.32-17.55-4.95-22.52-12.6
						l-18.37-28.31c-7.74-11.93-22.2-17.64-36.01-14.21l-41.21,10.24c-13.8,3.43-23.91,15.24-25.17,29.41l-2.98,33.61
						c-0.81,9.1-6.09,17.13-14,21.68c-19.49,11.21-37.85,24.68-54.63,40.33c-6.67,6.22-15.89,8.89-24.81,6.99l-32.98-7.02
						c-13.91-2.96-28.17,3.23-35.5,15.42l-21.9,36.38c-7.33,12.19-6.13,27.68,3,38.59l21.64,25.85c5.85,6.99,7.81,16.39,5.44,25.19
						c-5.97,22.15-9.28,44.68-10.06,67.15c-0.32,9.13-4.94,17.55-12.6,22.52l-28.31,18.37c-11.93,7.74-17.64,22.21-14.2,36.01
						l10.24,41.21c3.43,13.8,15.24,23.91,29.41,25.17l33.61,2.98c9.1,0.81,17.13,6.08,21.68,14c11.21,19.49,24.68,37.85,40.33,54.63
						c6.22,6.67,8.89,15.89,6.99,24.81l-7.02,32.97c-2.96,13.91,3.23,28.17,15.42,35.51l36.38,21.9c12.19,7.33,27.68,6.13,38.59-3
						l25.85-21.64c6.99-5.85,16.39-7.81,25.2-5.44c22.15,5.97,44.68,9.28,67.15,10.06c9.13,0.32,17.55,4.95,22.52,12.6l18.37,28.31
						c7.74,11.93,22.21,17.64,36.01,14.21l41.21-10.24c13.8-3.43,23.91-15.24,25.17-29.41l2.98-33.61c0.81-9.1,6.08-17.13,14-21.68
						c19.49-11.21,37.85-24.68,54.63-40.33c6.67-6.22,15.89-8.89,24.81-6.99l32.97,7.02c13.91,2.96,28.17-3.23,35.51-15.42
						l21.9-36.38C1806.79,624.04,1805.58,608.54,1796.45,597.63z M1374.61,692.25c-123.43-58.23-176.28-205.5-118.05-328.93
						c58.23-123.43,205.5-176.28,328.93-118.04c123.43,58.23,176.28,205.5,118.04,328.93
						C1645.3,697.64,1498.04,750.49,1374.61,692.25z"/>
					<linearGradient id="SVGID_50_" gradientUnits="userSpaceOnUse" x1="1776.0071" y1="231.887" x2="2557.4683" y2="-393.5815">
						<stop  offset="0" style="stop-color:#09005D"/>
						<stop  offset="1" style="stop-color:#1A0F91"/>
					</linearGradient>
					<path class="st64" d="M1538.24,827.56c-12.21,0-23.88-6.13-30.74-16.7l-18.37-28.31c-4.33-6.67-11.76-10.82-19.87-11.1
						c-22.95-0.79-45.79-4.22-67.89-10.17c-7.82-2.11-16.13-0.32-22.22,4.78l-25.85,21.64c-11.98,10.03-29.03,11.35-42.41,3.3
						l-36.38-21.9c-13.39-8.06-20.19-23.74-16.94-39.02l7.02-32.97c1.66-7.77-0.65-15.95-6.18-21.87
						c-15.61-16.74-29.33-35.33-40.77-55.23c-4.05-7.04-11.19-11.66-19.11-12.36l-33.61-2.98c-15.56-1.38-28.55-12.49-32.32-27.66
						l-10.24-41.21c-3.77-15.16,2.5-31.07,15.61-39.57l28.31-18.37c6.67-4.33,10.82-11.76,11.1-19.87
						c0.79-22.95,4.22-45.79,10.17-67.9c2.11-7.82,0.32-16.12-4.78-22.22l-21.64-25.85c-10.03-11.98-11.35-29.02-3.3-42.41
						l21.9-36.38c8.06-13.39,23.74-20.19,39.02-16.94l32.98,7.02c7.77,1.65,15.95-0.65,21.87-6.18
						c16.74-15.61,35.33-29.33,55.23-40.77c7.04-4.05,11.66-11.19,12.36-19.11l2.98-33.62c1.38-15.56,12.5-28.55,27.66-32.32
						l41.21-10.24c15.16-3.76,31.07,2.5,39.57,15.61l18.37,28.31c4.33,6.67,11.76,10.82,19.87,11.1
						c22.95,0.79,45.79,4.22,67.89,10.17c7.82,2.11,16.13,0.32,22.22-4.78l25.85-21.64c11.98-10.03,29.02-11.35,42.41-3.3
						l36.38,21.9c13.39,8.06,20.2,23.74,16.94,39.02l-7.02,32.98c-1.65,7.77,0.65,15.95,6.18,21.87
						c15.61,16.74,29.33,35.32,40.77,55.23c4.05,7.04,11.19,11.66,19.11,12.36l33.61,2.98c15.56,1.38,28.55,12.49,32.32,27.66
						l10.24,41.21c3.77,15.16-2.5,31.06-15.61,39.57l-28.31,18.37c-6.67,4.33-10.82,11.76-11.1,19.87
						c-0.79,22.95-4.22,45.79-10.17,67.89c-2.11,7.82-0.32,16.13,4.78,22.22l21.64,25.85c10.03,11.98,11.35,29.02,3.3,42.41
						l-21.9,36.38c-8.06,13.39-23.73,20.21-39.02,16.94l-32.97-7.02c-7.77-1.66-15.95,0.66-21.87,6.18
						c-16.74,15.61-35.33,29.33-55.23,40.78c-7.04,4.04-11.66,11.19-12.36,19.11l-2.98,33.61c-1.38,15.56-12.5,28.55-27.66,32.32
						l-41.21,10.24C1544.14,827.2,1541.18,827.56,1538.24,827.56z M1394.84,753.81c2.75,0,5.52,0.36,8.24,1.09
						c21.62,5.82,43.96,9.17,66.4,9.95c10.27,0.36,19.68,5.63,25.18,14.11l18.37,28.31c6.97,10.74,20.01,15.9,32.44,12.8
						l41.21-10.24c12.43-3.09,21.54-13.74,22.68-26.5l2.98-33.61c0.89-10.07,6.74-19.13,15.64-24.25
						c19.47-11.2,37.65-24.61,54.02-39.88c7.5-6.99,17.87-9.91,27.75-7.8l32.97,7.02c12.53,2.66,25.39-2.92,31.99-13.89l21.9-36.38
						c6.6-10.98,5.52-24.95-2.7-34.77l-21.64-25.85c-6.48-7.74-8.76-18.28-6.09-28.17c5.82-21.62,9.17-43.96,9.95-66.4
						c0.35-10.26,5.63-19.67,14.11-25.18l28.31-18.37c10.75-6.98,15.89-20.01,12.8-32.44l-10.24-41.21
						c-3.09-12.43-13.74-21.54-26.5-22.68l-33.61-2.98c-10.07-0.89-19.13-6.74-24.25-15.64c-11.2-19.47-24.61-37.65-39.88-54.02
						c-6.99-7.5-9.91-17.87-7.8-27.75l7.02-32.98c2.67-12.53-2.91-25.38-13.89-31.99l-36.38-21.9c-10.98-6.6-24.95-5.52-34.77,2.7
						l-25.85,21.64c-7.74,6.48-18.27,8.76-28.17,6.09c-21.62-5.82-43.96-9.17-66.41-9.95c-10.26-0.35-19.67-5.63-25.18-14.11
						l-18.37-28.31c-6.97-10.75-20.01-15.9-32.45-12.8l-41.21,10.24c-12.43,3.09-21.54,13.74-22.68,26.5l-2.98,33.62
						c-0.89,10.06-6.74,19.13-15.64,24.25c-19.47,11.19-37.65,24.61-54.02,39.88c-7.5,6.99-17.87,9.91-27.75,7.8l-32.97-7.02
						c-12.53-2.66-25.38,2.92-31.99,13.89l-21.9,36.38c-6.61,10.98-5.52,24.95,2.7,34.77l21.64,25.85
						c6.48,7.74,8.76,18.27,6.09,28.17c-5.82,21.62-9.17,43.96-9.95,66.4c-0.35,10.26-5.63,19.67-14.11,25.18l-28.31,18.37
						c-10.74,6.98-15.89,20.02-12.8,32.45l10.24,41.21c3.09,12.43,13.74,21.55,26.5,22.68l33.61,2.98
						c10.07,0.89,19.13,6.74,24.25,15.64c11.2,19.47,24.61,37.65,39.88,54.02c6.99,7.5,9.91,17.87,7.8,27.75l-7.02,32.97
						c-2.67,12.53,2.92,25.39,13.89,31.99l36.38,21.9c10.98,6.61,24.95,5.52,34.77-2.7l25.85-21.64
						C1380.53,756.3,1387.61,753.81,1394.84,753.81z M1479.66,719.16c-35.75,0-72.04-7.69-106.46-23.93l0,0
						c-124.88-58.92-178.54-208.45-119.62-333.32c58.92-124.88,208.44-178.54,333.32-119.62c60.49,28.54,106.25,78.93,128.84,141.89
						c22.59,62.96,19.32,130.94-9.22,191.44C1663.84,666.07,1573.62,719.16,1479.66,719.16z M1376.01,689.27
						c121.58,57.36,267.18,5.12,324.54-116.47c27.79-58.9,30.98-125.09,8.98-186.39c-22-61.3-66.55-110.36-125.45-138.15
						c-121.58-57.36-267.17-5.12-324.54,116.47C1202.18,486.32,1254.43,631.9,1376.01,689.27z"/>
				</g>
				<g>
					<linearGradient id="SVGID_51_" gradientUnits="userSpaceOnUse" x1="1569.1138" y1="413.1053" x2="1332.126" y2="911.0807">
						<stop  offset="0" style="stop-color:#FF928E"/>
						<stop  offset="1" style="stop-color:#FE7062"/>
					</linearGradient>
					<path class="st65" d="M1332.76,400.13c0,0,106.02-26.6,218.04-10.56c31.52,4.51,59.43,22.85,76.44,49.77
						c30.65,48.5,73.97,134.92,64.81,225.06l-48.1,11.89c0,0-33.24-106.96-70.66-150.5c0,0-44.31,101-42.07,156.47
						c0.06,1.57,0.16,3.1,0.3,4.59c5.08,54.26-212.7,10.13-212.7,10.13L1332.76,400.13z"/>
					
						<linearGradient id="SVGID_52_" gradientUnits="userSpaceOnUse" x1="1222.4542" y1="-259.8373" x2="1220.2544" y2="-409.4268" gradientTransform="matrix(0.9329 0.3602 -0.3602 0.9329 195.1155 291.8729)">
						<stop  offset="0" style="stop-color:#FEBBBA"/>
						<stop  offset="1" style="stop-color:#FF928E"/>
					</linearGradient>
					<path class="st66" d="M1447.38,309.58l-22.57,71.9c-2.1,6.69-0.01,13.85,5.23,17.89c12.08,9.31,35.96,24.12,65.14,23.69
						c5.34-0.08,9.83-4.63,10.2-10.23l8.02-120.17L1447.38,309.58z"/>
					<g>
						
							<linearGradient id="SVGID_53_" gradientUnits="userSpaceOnUse" x1="12170.6787" y1="-274.513" x2="12039.9424" y2="-174.4792" gradientTransform="matrix(0.9672 0.2541 -0.2541 0.9672 -10313.5703 -2550.3359)">
							<stop  offset="0" style="stop-color:#FEBBBA"/>
							<stop  offset="1" style="stop-color:#FF928E"/>
						</linearGradient>
						<path class="st67" d="M1534.78,230.78c0,0,8.77,56.62,3.25,83.68c-5.52,27.06-4.32,45.87-36.57,43.14
							c-32.25-2.73-54.19-24.92-61.28-55.18c0,0-11.29-46.73-1.94-62.19C1447.58,224.77,1534.78,230.78,1534.78,230.78z"/>
						
							<linearGradient id="SVGID_54_" gradientUnits="userSpaceOnUse" x1="12078.833" y1="-353.4787" x2="12197.2148" y2="-201.0627" gradientTransform="matrix(0.9672 0.2541 -0.2541 0.9672 -10313.5703 -2550.3359)">
							<stop  offset="0" style="stop-color:#E1473D"/>
							<stop  offset="1" style="stop-color:#E9605A"/>
						</linearGradient>
						<path class="st68" d="M1455.73,286.09l3.9,1.02c0,0-7.41-37.17,8.23-39.25s74.53,1.21,91.81-15.46
							c16.65-16.07,12.77-43.49-0.93-54.48c-0.87-0.7-2.15-0.54-2.9,0.28l-1.92,2.09c-1.32,1.43-3.71,0.54-3.76-1.41l0,0
							c-0.05-1.85-2.26-2.83-3.6-1.56c-5.25,4.96-17.78,11.98-45.9,9.88c-39.89-2.97-69.09,5.82-76.62,31.95
							c-0.48,1.66-2.5,2.11-3.69,0.86c-2.36-2.45-6.64-4.43-13.98-0.96c-12.76,6.04-14.47,29.95,3.51,54.71
							c0.85,1.18,0.4,2.87-0.98,3.33c-4.86,1.61-12.74,6.42,1.04,19.2c14.1,13.08,24.06,14.67,27.97,14.7
							c1.05,0.01,1.95-0.72,2.16-1.75l4.68-23.68c0.24-1.22,1.47-1.99,2.67-1.67L1455.73,286.09z"/>
						
							<linearGradient id="SVGID_55_" gradientUnits="userSpaceOnUse" x1="12154.4629" y1="-295.7077" x2="12023.7256" y2="-195.674" gradientTransform="matrix(0.9672 0.2541 -0.2541 0.9672 -10313.5703 -2550.3359)">
							<stop  offset="0" style="stop-color:#FEBBBA"/>
							<stop  offset="1" style="stop-color:#FF928E"/>
						</linearGradient>
						<path class="st69" d="M1455.41,291.22c0,0,0.09-34.67-16.85-29.4c-16.94,5.28-2,38.35,9.38,42.64L1455.41,291.22z"/>
					</g>
					<g>
						<linearGradient id="SVGID_56_" gradientUnits="userSpaceOnUse" x1="1406.8956" y1="335.9053" x2="1169.9076" y2="833.881">
							<stop  offset="0" style="stop-color:#FF928E"/>
							<stop  offset="1" style="stop-color:#FE7062"/>
						</linearGradient>
						<path class="st70" d="M1333.42,616.36c-4.7-33.16,29.65-81.91,43.85-100.41c4.06-5.29,6.34-11.76,6.39-18.43
							c0.42-46.97-19.31-77.13-50.9-97.39c0,0-114.68,133.61-85.48,236.38c3.15,11.09,8.03,20.62,14.23,28.81
							C1266.1,626.59,1310.86,618.14,1333.42,616.36z"/>
						<linearGradient id="SVGID_57_" gradientUnits="userSpaceOnUse" x1="2051.9707" y1="724.9935" x2="1742.9867" y2="651.4971">
							<stop  offset="0" style="stop-color:#E1473D"/>
							<stop  offset="1" style="stop-color:#E9605A"/>
						</linearGradient>
						<path class="st71" d="M1335.56,603.53l-4.37-0.5c3.7-32.52,32.24-72.67,44.34-88.42l3.49,2.68
							C1367.14,532.75,1339.14,572.1,1335.56,603.53z"/>
						<linearGradient id="SVGID_58_" gradientUnits="userSpaceOnUse" x1="1321.3575" y1="578.3368" x2="1404.9537" y2="798.3266">
							<stop  offset="0" style="stop-color:#FEBBBA"/>
							<stop  offset="1" style="stop-color:#FF928E"/>
						</linearGradient>
						<path class="st72" d="M1334.32,620.95c-0.4-1.49-0.68-3.03-0.9-4.59c-22.56,1.79-67.31,10.23-71.91,48.96
							c51.18,67.69,192.24,43.27,192.24,43.27v-26.34C1453.75,682.24,1345.41,662.11,1334.32,620.95z"/>
					</g>
					<linearGradient id="SVGID_59_" gradientUnits="userSpaceOnUse" x1="1425.0778" y1="538.9235" x2="1508.6736" y2="758.9125">
						<stop  offset="0" style="stop-color:#FEBBBA"/>
						<stop  offset="1" style="stop-color:#FF928E"/>
					</linearGradient>
					<path class="st73" d="M1440.19,701.31c0,0,20.83-49.15,57.53-31.71c36.7,17.43,33.82,28.84,33.82,28.84L1440.19,701.31z"/>
					<linearGradient id="SVGID_60_" gradientUnits="userSpaceOnUse" x1="1606.509" y1="618.8066" x2="1563.2444" y2="674.5372">
						<stop  offset="0" style="stop-color:#4F52FF"/>
						<stop  offset="1" style="stop-color:#4042E2"/>
					</linearGradient>
					<path class="st74" d="M1435.51,711.51L1435.51,711.51c0.29,3.72,3.46,6.55,7.19,6.42l190.18-6.63c2.96-0.1,5.52-2.06,6.41-4.88
						l5.52-17.66c1.36-4.34-1.74-8.79-6.28-9.03l-69.35-3.68c-0.63-0.03-1.26,0.02-1.88,0.16l-126.35,27.98
						C1437.56,704.91,1435.24,708.04,1435.51,711.51z"/>
					<linearGradient id="SVGID_61_" gradientUnits="userSpaceOnUse" x1="1562.9884" y1="692.3734" x2="1639.4607" y2="692.3734">
						<stop  offset="0" style="stop-color:#4F52FF"/>
						<stop  offset="1" style="stop-color:#4042E2"/>
					</linearGradient>
					<polygon class="st75" points="1562.99,704.57 1568.22,680.18 1639.46,683.58 1634.77,703.81 					"/>
					<linearGradient id="SVGID_62_" gradientUnits="userSpaceOnUse" x1="1653.4766" y1="454.0079" x2="1730.4729" y2="650.8981">
						<stop  offset="0" style="stop-color:#4F52FF"/>
						<stop  offset="1" style="stop-color:#4042E2"/>
					</linearGradient>
					<path class="st76" d="M1526.47,442.1c-4.03,32.94-22.17,166.79-27.36,205.04c-0.73,5.38,3.54,10.11,8.97,9.95l307.68-8.8
						c4.03-0.12,7.46-2.95,8.33-6.88l47.86-215.55c1.27-5.7-3.27-11.03-9.1-10.68l-328.17,19.22
						C1530.44,434.64,1526.98,437.88,1526.47,442.1z"/>
					<linearGradient id="SVGID_63_" gradientUnits="userSpaceOnUse" x1="1644.2047" y1="532.283" x2="1688.2028" y2="802.8695">
						<stop  offset="0" style="stop-color:#4F52FF"/>
						<stop  offset="1" style="stop-color:#4042E2"/>
					</linearGradient>
					<path class="st77" d="M1650.14,577.27l-45.47,129.07l105.74,2.24l8.8-130.53c0.41-6.13-4.67-11.21-10.79-10.8l-49.38,3.28
						C1654.99,570.79,1651.49,573.45,1650.14,577.27z"/>
					<linearGradient id="SVGID_64_" gradientUnits="userSpaceOnUse" x1="1624.3969" y1="689.6812" x2="1754.1906" y2="774.7436">
						<stop  offset="0" style="stop-color:#4F52FF"/>
						<stop  offset="1" style="stop-color:#4042E2"/>
					</linearGradient>
					<path class="st78" d="M1561.8,708.18L1561.8,708.18c-1.17,3.55,1.48,7.2,5.22,7.2h165.59c3.03,0,5.49-2.46,5.49-5.49v-7.1
						c0-3.13-2.6-5.62-5.73-5.49l-165.59,7.1C1564.5,704.5,1562.52,706,1561.8,708.18z"/>
				</g>
				<path class="st4" d="M1521.82,578.27l-2.18-0.27l15.12-119.22c0.94-7.4,7.02-13.09,14.46-13.54l283.59-17.13l0.13,2.2
					l-283.59,17.13c-6.38,0.38-11.6,5.27-12.41,11.62L1521.82,578.27z"/>
				
					<rect x="1501.78" y="623.9" transform="matrix(0.125 -0.9922 0.9922 0.125 705.3416 2049.7744)" class="st4" width="26.02" height="2.2"/>
			</g>
			<g>
				<g>
					<g>
						
							<linearGradient id="SVGID_65_" gradientUnits="userSpaceOnUse" x1="1470.165" y1="703.0745" x2="1521.5447" y2="668.2408" gradientTransform="matrix(0.9856 -0.1691 0.1691 0.9856 -118.8307 -105.8084)">
							<stop  offset="0" style="stop-color:#4F52FF"/>
							<stop  offset="1" style="stop-color:#4042E2"/>
						</linearGradient>
						<path class="st79" d="M1504.58,327.77c-34.17,2.58-54.03-32.75-54.22-33.11l2.29-1.26c0.19,0.34,19.26,34.21,51.74,31.76
							L1504.58,327.77z"/>
					</g>
					<linearGradient id="SVGID_66_" gradientUnits="userSpaceOnUse" x1="1501.3978" y1="326.455" x2="1518.5082" y2="326.455">
						<stop  offset="0" style="stop-color:#4F52FF"/>
						<stop  offset="1" style="stop-color:#4042E2"/>
					</linearGradient>
					<path class="st80" d="M1518.51,326.45c0,2.03-1.64,3.67-3.67,3.67h-9.78c-2.03,0-3.67-1.64-3.67-3.67l0,0
						c0-2.02,1.64-3.67,3.67-3.67h9.78C1516.87,322.79,1518.51,324.43,1518.51,326.45L1518.51,326.45z"/>
				</g>
				<g>
					
						<linearGradient id="SVGID_67_" gradientUnits="userSpaceOnUse" x1="1644.974" y1="568.1292" x2="1254.7241" y2="632.6051" gradientTransform="matrix(0.9856 -0.1691 0.1691 0.9856 -118.8307 -105.8084)">
						<stop  offset="0" style="stop-color:#4F52FF"/>
						<stop  offset="1" style="stop-color:#4042E2"/>
					</linearGradient>
					<path class="st81" d="M1452.71,255.48c0,0,12.26-62.9,48.39-68.84c0,0-10.23-5.15-20.9,0.44
						c-10.67,5.59-37.63,36.2-36.53,69.95C1451.01,259.67,1452.71,255.48,1452.71,255.48z"/>
					<linearGradient id="SVGID_68_" gradientUnits="userSpaceOnUse" x1="1653.5386" y1="184.0181" x2="1543.5386" y2="236.6847">
						<stop  offset="0" style="stop-color:#4F52FF"/>
						<stop  offset="1" style="stop-color:#4042E2"/>
					</linearGradient>
					<path class="st82" d="M1446.43,252.5c-18.78,3.81-16.47,27.57-16.47,27.57c-1.35,17.24,3.68,25.78,10.13,29.85
						c4.4,2.78,9.95,3.04,14.6,0.69c4.65-2.35,7.73-6.96,8.11-12.16c0.35-4.69,0.74-9.15,1.09-10.73
						C1464.73,283.89,1465.22,248.69,1446.43,252.5z"/>
				</g>
				<linearGradient id="SVGID_69_" gradientUnits="userSpaceOnUse" x1="1425.1143" y1="239.0015" x2="1354.4476" y2="97.6684">
					<stop  offset="0" style="stop-color:#4F52FF"/>
					<stop  offset="1" style="stop-color:#4042E2"/>
				</linearGradient>
				<path class="st83" d="M1448.16,258.51c-3.9-0.68-7.74,1.39-9.31,5.03c-11.23,26.01,2.56,42.92,9.32,43.27
					c7.13,0.37,6.99-33.94,5.47-42.73C1453.01,260.39,1450.67,258.94,1448.16,258.51z"/>
			</g>
		</g>
		<g class="st3">
			<polygon class="st5" points="1662.91,312.69 1622.59,353.94 1670.96,341.02 			"/>
			<path class="st5" d="M1902.86,329.76l-229.14,11.12c-5.88,0.29-10.81-4.41-10.81-10.3v-94.27c0-10.25,8.14-18.64,18.38-18.96
				l206.51-6.39c15.38,0,27.85,12.47,27.85,27.85v77.53C1915.65,323.51,1910.02,329.41,1902.86,329.76z"/>
			<path class="st84" d="M1899.25,326.26l-218.01,10.32c-7.8,0.37-14.32-5.85-14.32-13.66v-84.96c0-9.68,7.88-17.61,17.8-17.91
				l199.95-6.04c14.89,0,26.96,11.78,26.96,26.31v73.25C1911.63,320.35,1906.18,325.93,1899.25,326.26z"/>
			<path class="st85" d="M1884,231.7l-183.22,6.86c-1.8,0.07-3.22,1.26-3.16,2.66l0.07,1.61c0.06,1.38,1.54,2.44,3.32,2.38
				l183.23-6.69c1.8-0.07,3.22-1.26,3.16-2.66l-0.08-1.78C1887.27,232.7,1885.79,231.63,1884,231.7z"/>
			<path class="st85" d="M1867.61,278.09l-183.22,6.82c-1.8,0.07-3.21,1.3-3.15,2.75l0.07,1.67c0.06,1.43,1.55,2.53,3.33,2.47
				l183.23-6.65c1.8-0.07,3.22-1.3,3.16-2.75l-0.08-1.84C1870.88,279.12,1869.39,278.02,1867.61,278.09z"/>
			<path class="st85" d="M1889.01,297.49l-204.25,7.71c-2.01,0.08-3.59,1.33-3.53,2.79l0.07,1.68c0.06,1.45,1.71,2.55,3.7,2.48
				l204.26-7.54c2.01-0.07,3.59-1.33,3.53-2.79l-0.08-1.86C1892.65,298.52,1891,297.41,1889.01,297.49z"/>
			<path class="st85" d="M1763.12,259.96l-79.79,2.01c-0.78,0.02-1.36,1.36-1.28,2.98l0.09,1.87c0.08,1.61,0.77,2.89,1.54,2.87
				l79.8-1.82c0.78-0.02,1.36-1.36,1.28-2.98l-0.1-2.07C1764.59,261.22,1763.9,259.94,1763.12,259.96z"/>
			<path class="st85" d="M1893.45,255.6l-101.97,3.05c-1,0.03-1.75,1.38-1.67,3l0.09,1.87c0.08,1.61,0.94,2.88,1.94,2.85
				l101.98-2.86c1-0.03,1.75-1.38,1.67-3l-0.1-2.07C1895.31,256.85,1894.44,255.57,1893.45,255.6z"/>
		</g>
	</g>
</g>
</svg>
