<svg id="Layer_1" data-name="Layer 1" xmlns="http://www.w3.org/2000/svg" viewBox="0 0 231.96 231.96"><defs><style>.cls-1{fill:#fff;}.cls-2{fill:#162e51;}.cls-3{fill:#8a181a;}</style></defs><title>USAB_Logo_Star_and_Text_wh_circle</title><circle class="cls-1" cx="115.98" cy="115.98" r="115.98"/><path class="cls-2" d="M299,280.58l.68-4,7.57,1.28a6.14,6.14,0,0,1,2.06.71,4.62,4.62,0,0,1,1.56,1.42,4.34,4.34,0,0,1,.78,1.78,8.19,8.19,0,0,1,0,2.87,19.21,19.21,0,0,1-.48,2.05,5.56,5.56,0,0,1-.83,1.78,4.67,4.67,0,0,1-1.33,1.19,4,4,0,0,1-1.61.61,7.79,7.79,0,0,1-2.21,0L297.56,289l.68-4,7.75,1.31a2.23,2.23,0,0,0,1.72-.31,2.25,2.25,0,0,0-1-4.12Z" transform="translate(-283.74 -184.82)"/><path class="cls-2" d="M304,262.7l1.58-3.44,8.55-1.51-6.47-3,1.6-3.47,11.7,5.39-1.6,3.48-8.49,1.51,6.43,3-1.6,3.47Z" transform="translate(-283.74 -184.82)"/><path class="cls-2" d="M316.94,239.34l2.47-3.23,10.24,7.81-2.46,3.24Z" transform="translate(-283.74 -184.82)"/><path class="cls-2" d="M328.15,226.18l9.35-8.06,2.08,2.41-3.14,2.7,6.34,7.35-3.07,2.65-6.34-7.34-3.14,2.7Z" transform="translate(-283.74 -184.82)"/><path class="cls-2" d="M348.69,210.72l9.7-4.94,1.25,2.45-6.08,3.09.93,1.83,5.64-2.87,1.19,2.34-5.63,2.87,1.15,2.26,6.25-3.18,1.32,2.6-9.87,5Z" transform="translate(-283.74 -184.82)"/><path class="cls-2" d="M371.66,201l5.88-1.33a7.35,7.35,0,0,1,2.92-.17,4.54,4.54,0,0,1,2.07.93,5.46,5.46,0,0,1,1.47,1.78,9.47,9.47,0,0,1,.86,2.36,8.29,8.29,0,0,1,.24,3.23,5.25,5.25,0,0,1-.88,2.16,4.4,4.4,0,0,1-1.56,1.4,9.23,9.23,0,0,1-2.28.88l-5.88,1.33Zm4.6,1.95,1.55,6.87,1-.22a4.31,4.31,0,0,0,1.71-.67,1.92,1.92,0,0,0,.61-1.13,6.09,6.09,0,0,0-.2-2.25,4.28,4.28,0,0,0-1.28-2.58,2.85,2.85,0,0,0-2.37-.24Z" transform="translate(-283.74 -184.82)"/><path class="cls-2" d="M414.6,206.73l3.82.6a2.8,2.8,0,0,0,.2,1.49A2.15,2.15,0,0,0,420.2,210a2,2,0,0,0,1.39-.1,1.14,1.14,0,0,0,.42-1.78,5.44,5.44,0,0,0-1.87-1.18,9,9,0,0,1-3.38-2.35,3.14,3.14,0,0,1-.59-2.68,3.39,3.39,0,0,1,1-1.7,3.83,3.83,0,0,1,2-1,8.25,8.25,0,0,1,3.26.2,6.71,6.71,0,0,1,3.56,1.73,4,4,0,0,1,.9,3.19l-3.78-.61a2.06,2.06,0,0,0-.36-1.38,2.09,2.09,0,0,0-1.23-.67,1.59,1.59,0,0,0-1.1.05.9.9,0,0,0-.51.62.72.72,0,0,0,.17.61,3.35,3.35,0,0,0,1.23.76,17.57,17.57,0,0,1,3.48,1.93,4,4,0,0,1,1.32,1.76,3.5,3.5,0,0,1,.1,2,4.09,4.09,0,0,1-1.17,2.08,4.37,4.37,0,0,1-2.25,1.12,8.15,8.15,0,0,1-3.21-.15c-2.18-.49-3.6-1.23-4.26-2.24A5,5,0,0,1,414.6,206.73Z" transform="translate(-283.74 -184.82)"/><path class="cls-2" d="M440.11,205.09l11.06,5.49-1.42,2.85L446,211.59l-4.31,8.69-3.64-1.8,4.31-8.7-3.71-1.84Z" transform="translate(-283.74 -184.82)"/><path class="cls-2" d="M460.61,230.66l-3.54-2.95-1.86,1.23L452,226.29l12-6.75,3.41,2.83L463,235.44l-3.27-2.72Zm1.13-2.68,1.85-4.49-4.06,2.65Z" transform="translate(-283.74 -184.82)"/><path class="cls-2" d="M478.52,233.32l7.42,9.87-2.55,1.91-2.49-3.31-7.75,5.83-2.44-3.25,7.75-5.83L476,235.23Z" transform="translate(-283.74 -184.82)"/><path class="cls-2" d="M492.55,254.85l4.27,10-2.53,1.08-2.67-6.27-1.88.81,2.47,5.81-2.41,1-2.48-5.81-2.34,1,2.75,6.45L485,270.09,480.7,259.9Z" transform="translate(-283.74 -184.82)"/><path class="cls-2" d="M492,279l.85,3.77a3,3,0,0,0-1.31.73,2.15,2.15,0,0,0-.48,1.9,2,2,0,0,0,.6,1.25,1.18,1.18,0,0,0,1,.32,1.2,1.2,0,0,0,.82-.58,5.21,5.21,0,0,0,.4-2.18,9.05,9.05,0,0,1,.94-4,3.14,3.14,0,0,1,2.28-1.52,3.22,3.22,0,0,1,1.94.28,3.84,3.84,0,0,1,1.65,1.52,8.37,8.37,0,0,1,1,3.11,6.72,6.72,0,0,1-.3,3.94,3.93,3.93,0,0,1-2.63,2l-.83-3.75a2,2,0,0,0,1.15-.83,2,2,0,0,0,.17-1.4,1.57,1.57,0,0,0-.46-1,.85.85,0,0,0-.76-.24.71.71,0,0,0-.5.38,3.3,3.3,0,0,0-.25,1.42,17.14,17.14,0,0,1-.52,3.94,4.1,4.1,0,0,1-1.14,1.89,3.63,3.63,0,0,1-1.8.82,4,4,0,0,1-2.37-.33,4.39,4.39,0,0,1-1.88-1.68,7.92,7.92,0,0,1-1-3q-.54-3.32.51-4.79A4.88,4.88,0,0,1,492,279Z" transform="translate(-283.74 -184.82)"/><path class="cls-2" d="M302.15,325.41l-1-4.49-2.22-.14-.94-4,13.67,1.87,1,4.31-11.41,7.75-1-4.14Zm2.52-1.46,4.18-2.47-4.84-.34Z" transform="translate(-283.74 -184.82)"/><path class="cls-2" d="M314.21,347.27l.68,3.65a6.42,6.42,0,0,1-2.7.12,4.87,4.87,0,0,1-2.19-1,7,7,0,0,1-1.77-2.36,8.45,8.45,0,0,1-1.06-3.39,5.56,5.56,0,0,1,.84-3.07,7.18,7.18,0,0,1,3.05-2.67,6.56,6.56,0,0,1,5.16-.7A6.63,6.63,0,0,1,320,341.4a6.74,6.74,0,0,1,.91,3.92,5.79,5.79,0,0,1-1.73,3.26l-2.33-2.83a3,3,0,0,0,.59-.75,2.32,2.32,0,0,0,.24-1.06,2.59,2.59,0,0,0-2.22-2.48,4.57,4.57,0,0,0-2.51.67,4.72,4.72,0,0,0-2.31,1.93,2.28,2.28,0,0,0,.15,2,2.25,2.25,0,0,0,1.37,1.27A3.86,3.86,0,0,0,314.21,347.27Z" transform="translate(-283.74 -184.82)"/><path class="cls-2" d="M328.28,366.7l1.56,3.37a6.42,6.42,0,0,1-2.59.77,5,5,0,0,1-2.38-.46,7.44,7.44,0,0,1-2.29-1.86,8.52,8.52,0,0,1-1.85-3,5.5,5.5,0,0,1,.07-3.18,7.17,7.17,0,0,1,2.31-3.33,6,6,0,0,1,9.36.63,6.77,6.77,0,0,1,1.84,3.58,5.78,5.78,0,0,1-.89,3.58l-2.95-2.18a3.18,3.18,0,0,0,.39-.86,2.35,2.35,0,0,0,0-1.09,2.58,2.58,0,0,0-2.76-1.87,4.6,4.6,0,0,0-2.27,1.25,4.84,4.84,0,0,0-1.77,2.44,2.67,2.67,0,0,0,2.27,2.83A4,4,0,0,0,328.28,366.7Z" transform="translate(-283.74 -184.82)"/><path class="cls-2" d="M343.82,370.87l8.9,6.26-1.58,2.25-5.58-3.92-1.17,1.68,5.17,3.63-1.51,2.15-5.17-3.63-1.47,2.08,5.74,4-1.68,2.39-9.06-6.38Z" transform="translate(-283.74 -184.82)"/><path class="cls-2" d="M358,389.78l3.68,1.2a2.84,2.84,0,0,0-.05,1.49,2.17,2.17,0,0,0,1.38,1.39,1.92,1.92,0,0,0,1.39.12,1.19,1.19,0,0,0,.78-.68,1.15,1.15,0,0,0-.08-1,5.27,5.27,0,0,0-1.66-1.46,9,9,0,0,1-3-2.86,3.14,3.14,0,0,1-.15-2.74,3.45,3.45,0,0,1,1.24-1.53,4,4,0,0,1,2.15-.64,8.51,8.51,0,0,1,3.19.72,6.76,6.76,0,0,1,3.24,2.27,4,4,0,0,1,.38,3.3l-3.64-1.2a2,2,0,0,0-.13-1.42,2.07,2.07,0,0,0-1.1-.86,1.58,1.58,0,0,0-1.1-.12.87.87,0,0,0-.6.53.72.72,0,0,0,.07.63,3.43,3.43,0,0,0,1.09.94,17.59,17.59,0,0,1,3.13,2.46,4,4,0,0,1,1,1.95,3.5,3.5,0,0,1-.22,2,4,4,0,0,1-1.49,1.87,4.36,4.36,0,0,1-2.4.76,8.15,8.15,0,0,1-3.14-.67q-3.12-1.23-3.85-2.89A4.89,4.89,0,0,1,358,389.78Z" transform="translate(-283.74 -184.82)"/><path class="cls-2" d="M380,397.08l3.86.3a2.82,2.82,0,0,0,.3,1.47,2.18,2.18,0,0,0,1.67,1,2,2,0,0,0,1.38-.2,1.2,1.2,0,0,0,.6-.86,1.17,1.17,0,0,0-.32-.95,5.4,5.4,0,0,0-1.95-1,9,9,0,0,1-3.56-2.08,3.15,3.15,0,0,1-.78-2.63,3.31,3.31,0,0,1,.84-1.77,3.85,3.85,0,0,1,1.95-1.13,8.48,8.48,0,0,1,3.27-.05,6.75,6.75,0,0,1,3.67,1.45,4,4,0,0,1,1.15,3.12l-3.82-.32a2,2,0,0,0-.46-1.34,2.11,2.11,0,0,0-1.28-.59,1.64,1.64,0,0,0-1.1.15.9.9,0,0,0-.45.65.7.7,0,0,0,.21.59,3.44,3.44,0,0,0,1.28.67,16.93,16.93,0,0,1,3.62,1.66,4,4,0,0,1,1.46,1.65,3.51,3.51,0,0,1,.25,2,3.94,3.94,0,0,1-1,2.16,4.34,4.34,0,0,1-2.16,1.3,8,8,0,0,1-3.21.09c-2.21-.31-3.68-.95-4.42-1.9A5,5,0,0,1,380,397.08Z" transform="translate(-283.74 -184.82)"/><path class="cls-2" d="M425,387l7.16-2.56a4.17,4.17,0,0,1,3.05-.12,3,3,0,0,1,1.73,1.81,2.84,2.84,0,0,1,0,2.09,3.28,3.28,0,0,1-1,1.29,3.66,3.66,0,0,1,2.34.38,3.06,3.06,0,0,1,1.32,1.7,3.43,3.43,0,0,1-.64,3.48,4.13,4.13,0,0,1-1.31.92,17.73,17.73,0,0,1-1.65.78l-6.6,2.36Zm5.56,3.38,1.66-.6a2.06,2.06,0,0,0,1.14-.74,1.19,1.19,0,0,0,0-1,1.11,1.11,0,0,0-.65-.7,2,2,0,0,0-1.33.13l-1.69.61Zm1.7,4.77,1.95-.7a2.33,2.33,0,0,0,1.27-.84,1.22,1.22,0,0,0,.08-1.07,1.13,1.13,0,0,0-.71-.72,2.34,2.34,0,0,0-1.52.17l-1.95.7Z" transform="translate(-283.74 -184.82)"/><path class="cls-2" d="M448.53,384a6.56,6.56,0,0,1-1.27-5.08,6.78,6.78,0,0,1,3.15-4.25,6.94,6.94,0,0,1,5.15-1.41,6.44,6.44,0,0,1,4.18,3,7.76,7.76,0,0,1,1.44,3.5,5.53,5.53,0,0,1-.6,3.13,7.44,7.44,0,0,1-2.57,2.71,8.57,8.57,0,0,1-3.43,1.49,5.52,5.52,0,0,1-3.19-.5A7.19,7.19,0,0,1,448.53,384Zm3.37-2.27a4.25,4.25,0,0,0,2.18,1.91,2.57,2.57,0,0,0,2.15-.42,2.53,2.53,0,0,0,1.21-1.83,4.7,4.7,0,0,0-1.09-2.88,3.87,3.87,0,0,0-2.11-1.78,2.55,2.55,0,0,0-2.15.44,2.51,2.51,0,0,0-1.16,1.81A4.25,4.25,0,0,0,451.9,381.71Z" transform="translate(-283.74 -184.82)"/><path class="cls-2" d="M476.66,365.86l-3.08,3.43,1.15,1.9L472,374.27,465.68,362l3-3.29,12.88,4.94-2.85,3.16ZM474,364.62l-4.41-2,2.48,4.17Z" transform="translate(-283.74 -184.82)"/><path class="cls-2" d="M488.5,353.35l-11.38-6,3.17-6a10.39,10.39,0,0,1,1.63-2.4,3.19,3.19,0,0,1,1.79-.87,3.54,3.54,0,0,1,2.13.44,3.63,3.63,0,0,1,1.42,1.28,3.67,3.67,0,0,1,.51,1.73,4.79,4.79,0,0,1-.22,1.5,4.17,4.17,0,0,1,.92-.72,4.25,4.25,0,0,1,.9-.25,5.27,5.27,0,0,1,1-.13h4.22L492.41,346l-4.49.07a3.07,3.07,0,0,0-1.22.18,1.82,1.82,0,0,0-.74.74l-.16.32,4.62,2.45Zm-4.85-7.19.8-1.51a6.52,6.52,0,0,0,.35-1,1.08,1.08,0,0,0-.05-.77,1.15,1.15,0,0,0-.54-.57,1.18,1.18,0,0,0-1-.1,2.56,2.56,0,0,0-1,1.18l-.84,1.58Z" transform="translate(-283.74 -184.82)"/><path class="cls-2" d="M486.32,327.17l1.44-5.86a7.35,7.35,0,0,1,1.14-2.69,4.67,4.67,0,0,1,1.76-1.44,5.8,5.8,0,0,1,2.25-.52,9.42,9.42,0,0,1,2.5.29,8.39,8.39,0,0,1,3,1.22,5.55,5.55,0,0,1,1.54,1.75,4.4,4.4,0,0,1,.56,2,10,10,0,0,1-.24,2.44l-1.44,5.86Zm3.8-3.25,6.84,1.67.24-1a4.37,4.37,0,0,0,.16-1.83,1.94,1.94,0,0,0-.74-1.05,6,6,0,0,0-2.1-.82,4.27,4.27,0,0,0-2.89,0,2.93,2.93,0,0,0-1.27,2Z" transform="translate(-283.74 -184.82)"/><polygon class="cls-2" points="87.36 113.62 60.86 94.36 93.61 94.36 96.05 86.86 37.78 86.87 84.92 121.12 87.36 113.62"/><polygon class="cls-2" points="148.02 86.86 137.7 94.36 171.65 94.36 141.83 116.04 137.42 119.24 139.1 124.42 150.49 159.49 120.66 137.82 116.26 134.62 111.85 137.82 82.02 159.49 92.51 127.19 82.19 134.69 67.75 179.12 116.26 143.89 164.76 179.12 146.24 122.11 194.73 86.87 148.02 86.86"/><path class="cls-3" d="M424,271.6l-.52.39-12,8.85,1-3.29a14.17,14.17,0,0,0,5.19-7.43L423,252.23A61.25,61.25,0,0,1,427.6,264C428.43,267.31,426.23,269.9,424,271.6Zm-8.27-32.07-12.06,41a14.17,14.17,0,0,1-5.17,7.4l-1.05,3.28,7.1-5.24a18,18,0,0,0,6.6-9.44L420,246.56C418.65,244.22,417.22,241.87,415.73,239.53ZM408,228.35,389.57,290.9a14,14,0,0,1-5.13,7.35l-1.06,3.31,7.29-5.39a17.47,17.47,0,0,0,6.38-9.13l15.44-52.42C411,232.47,409.52,230.37,408,228.35Zm-8-10.07L376,299.8a18.51,18.51,0,0,1-6.77,9.68l-1,3.28,6.5-4.79a25.09,25.09,0,0,0,9.15-13.1l20.84-71C403,221.9,401.48,220,400,218.28Z" transform="translate(-283.74 -184.82)"/></svg>