<?xml version="1.0" encoding="UTF-8" standalone="no"?>
<svg
   xmlns:dc="http://purl.org/dc/elements/1.1/"
   xmlns:cc="http://creativecommons.org/ns#"
   xmlns:rdf="http://www.w3.org/1999/02/22-rdf-syntax-ns#"
   xmlns:svg="http://www.w3.org/2000/svg"
   xmlns="http://www.w3.org/2000/svg"
   xmlns:sodipodi="http://sodipodi.sourceforge.net/DTD/sodipodi-0.dtd"
   xmlns:inkscape="http://www.inkscape.org/namespaces/inkscape"
   id="Layer_1"
   data-name="Layer 1"
   viewBox="0 0 275.83 275.83"
   version="1.1"
   sodipodi:docname="usab-logo-white.svg"
   inkscape:version="1.0.1 (3bc2e813f5, 2020-09-07)">
  <metadata
     id="metadata879">
    <rdf:RDF>
      <cc:Work
         rdf:about="">
        <dc:format>image/svg+xml</dc:format>
        <dc:type
           rdf:resource="http://purl.org/dc/dcmitype/StillImage" />
        <dc:title>USAB_Logo_Star_white</dc:title>
      </cc:Work>
    </rdf:RDF>
  </metadata>
  <sodipodi:namedview
     pagecolor="#ffffff"
     bordercolor="#666666"
     borderopacity="1"
     objecttolerance="10"
     gridtolerance="10"
     guidetolerance="10"
     inkscape:pageopacity="0"
     inkscape:pageshadow="2"
     inkscape:window-width="1920"
     inkscape:window-height="1027"
     id="namedview877"
     showgrid="false"
     inkscape:zoom="2.4761629"
     inkscape:cx="126.46275"
     inkscape:cy="110.69268"
     inkscape:window-x="-8"
     inkscape:window-y="-8"
     inkscape:window-maximized="1"
     inkscape:current-layer="Layer_1" />
  <defs
     id="defs859">
    <style
       id="style857">.cls-1{fill:#fff;}.cls-2{fill:#162e51;}.cls-3{fill:#8a181a;}</style>
  </defs>
  <title
     id="title861">USAB_Logo_Star_white</title>
  <polygon
     class="cls-2"
     points="91.37 139.86 48.69 108.85 101.45 108.84 105.37 96.76 11.52 96.77 87.44 151.94 91.37 139.86"
     id="polygon870"
     style="fill:#ffffff;fill-opacity:1" />
  <polygon
     class="cls-2"
     points="189.08 96.77 172.45 108.84 227.14 108.85 179.1 143.76 172 148.91 174.72 157.26 193.06 213.74 145.02 178.84 137.92 173.68 130.82 178.84 82.77 213.74 99.67 161.72 83.04 173.8 59.8 245.36 137.92 188.61 216.03 245.36 186.2 153.53 264.31 96.77 189.08 96.77"
     id="polygon872"
     style="fill:#ffffff;fill-opacity:1" />
  <path
     class="cls-3"
     d="M165.06,94.67l-.85.62-19.33,14.26,1.7-5.3a22.84,22.84,0,0,0,8.35-12l8.49-28.82a98.54,98.54,0,0,1,7.43,19C172.19,87.75,168.65,91.93,165.06,94.67ZM151.73,43,132.3,109A22.78,22.78,0,0,1,124,120.9l-1.69,5.29,11.45-8.44a29.11,29.11,0,0,0,10.63-15.21l14.2-48.21C156.43,50.57,154.13,46.78,151.73,43ZM139.31,25,109.6,125.76a22.78,22.78,0,0,1-8.27,11.84l-1.71,5.32,11.75-8.68a28.15,28.15,0,0,0,10.27-14.71L146.51,35.1C144.14,31.64,141.72,28.26,139.31,25ZM126.38,8.79,87.68,140.08a29.88,29.88,0,0,1-10.9,15.6L75.09,161l10.47-7.7a40.43,40.43,0,0,0,14.74-21.11L133.87,17.88C131.29,14.61,128.78,11.56,126.38,8.79Z"
     transform="translate(11.52 1.96)"
     id="path874"
     style="fill:#ffffff;fill-opacity:1" />
</svg>
