<svg id="Layer_1" data-name="Layer 1" xmlns="http://www.w3.org/2000/svg" viewBox="0 0 275.83 275.83"><defs><style>.cls-1{fill:#fff;}.cls-2{fill:#162e51;}.cls-3{fill:#8a181a;}</style></defs><title>USAB_Logo_Star_wh_circle</title><g id="Layer_2" data-name="Layer 2"><path class="cls-1" d="M133.87,17.88c-2.58-3.27-5.09-6.32-7.49-9.09L87.68,140.08a29.88,29.88,0,0,1-10.9,15.6L75.09,161l69.79-51.4,19.33-14.26.85-.62c3.59-2.74,7.13-6.92,5.79-12.22a98.54,98.54,0,0,0-7.43-19l-4.86-9.14c-2.13-3.76-4.43-7.55-6.83-11.31l-5.22-7.92c-2.37-3.46-4.79-6.84-7.2-10.09Z" transform="translate(11.52 1.96)"/><polygon class="cls-1" points="189.08 96.77 105.37 96.76 37.66 103.74 87.44 151.94 83.04 173.8 73.96 226.54 137.52 181.76 201.16 226.54 179.45 151.94 243.57 104.08 189.08 96.77"/><circle class="cls-1" cx="137.92" cy="137.92" r="137.92"/></g><polygon class="cls-2" points="91.37 139.86 48.69 108.85 101.45 108.84 105.37 96.76 11.52 96.77 87.44 151.94 91.37 139.86"/><polygon class="cls-2" points="189.08 96.77 172.45 108.84 227.14 108.85 179.1 143.76 172 148.91 174.72 157.26 193.06 213.74 145.02 178.84 137.92 173.68 130.82 178.84 82.77 213.74 99.67 161.72 83.04 173.8 59.8 245.36 137.92 188.61 216.03 245.36 186.2 153.53 264.31 96.77 189.08 96.77"/><path class="cls-3" d="M165.06,94.67l-.85.62-19.33,14.26,1.7-5.3a22.84,22.84,0,0,0,8.35-12l8.49-28.82a98.54,98.54,0,0,1,7.43,19C172.19,87.75,168.65,91.93,165.06,94.67ZM151.73,43,132.3,109A22.78,22.78,0,0,1,124,120.9l-1.69,5.29,11.45-8.44a29.11,29.11,0,0,0,10.63-15.21l14.2-48.21C156.43,50.57,154.13,46.78,151.73,43ZM139.31,25,109.6,125.76a22.78,22.78,0,0,1-8.27,11.84l-1.71,5.32,11.75-8.68a28.15,28.15,0,0,0,10.27-14.71L146.51,35.1C144.14,31.64,141.72,28.26,139.31,25ZM126.38,8.79,87.68,140.08a29.88,29.88,0,0,1-10.9,15.6L75.09,161l10.47-7.7a40.43,40.43,0,0,0,14.74-21.11L133.87,17.88C131.29,14.61,128.78,11.56,126.38,8.79Z" transform="translate(11.52 1.96)"/></svg>